<?xml version="1.0" encoding="UTF-8" standalone="no"?>
<svg
   xmlns:dc="http://purl.org/dc/elements/1.1/"
   xmlns:cc="http://creativecommons.org/ns#"
   xmlns:rdf="http://www.w3.org/1999/02/22-rdf-syntax-ns#"
   xmlns:svg="http://www.w3.org/2000/svg"
   xmlns="http://www.w3.org/2000/svg"
   xmlns:sodipodi="http://sodipodi.sourceforge.net/DTD/sodipodi-0.dtd"
   xmlns:inkscape="http://www.inkscape.org/namespaces/inkscape"
   width="73.624573mm"
   height="75.158569mm"
   viewBox="0 0 73.624573 75.158569"
   version="1.1"
   id="svg8"
   inkscape:version="1.0.1 (3bc2e813f5, 2020-09-07)"
   sodipodi:docname="ananas_final_no_lines.svg">
  <defs
     id="defs2">
    <inkscape:path-effect
       effect="powerstroke"
       id="path-effect887"
       is_visible="true"
       lpeversion="1"
       offset_points="0,0.1322915"
       sort_points="true"
       interpolator_type="CubicBezierJohan"
       interpolator_beta="0.2"
       start_linecap_type="zerowidth"
       linejoin_type="extrp_arc"
       miter_limit="4"
       scale_width="1"
       end_linecap_type="zerowidth" />
  </defs>
  <sodipodi:namedview
     id="base"
     pagecolor="#ffffff"
     bordercolor="#666666"
     borderopacity="1.0"
     inkscape:pageopacity="0.0"
     inkscape:pageshadow="2"
     inkscape:zoom="1.4"
     inkscape:cx="106.44372"
     inkscape:cy="103.99014"
     inkscape:document-units="mm"
     inkscape:current-layer="layer1"
     inkscape:document-rotation="0"
     showgrid="false"
     inkscape:window-width="1920"
     inkscape:window-height="1017"
     inkscape:window-x="-8"
     inkscape:window-y="-8"
     inkscape:window-maximized="1">
    <inkscape:grid
       type="xygrid"
       id="grid921"
       originx="-42.943677"
       originy="-109.27539" />
  </sodipodi:namedview>
  <metadata
     id="metadata5">
    <rdf:RDF>
      <cc:Work
         rdf:about="">
        <dc:format>image/svg+xml</dc:format>
        <dc:type
           rdf:resource="http://purl.org/dc/dcmitype/StillImage" />
        <dc:title></dc:title>
      </cc:Work>
    </rdf:RDF>
  </metadata>
  <g
     inkscape:label="Слой 1"
     inkscape:groupmode="layer"
     id="layer1"
     transform="translate(-42.943679,-109.27539)">
    <path
       style="fill:none;stroke:none;stroke-width:0.502708;stroke-linecap:round;stroke-linejoin:round;stroke-miterlimit:4;stroke-dasharray:none;stroke-opacity:1"
       d="m 56.919295,119.6163 c 6.172234,-4.89368 13.978307,-7.81615 22.466961,-7.81615"
       id="path909" />
    <path
       style="fill:none;stroke:none;stroke-width:0.502708;stroke-linecap:round;stroke-linejoin:round;stroke-miterlimit:4;stroke-dasharray:none;stroke-opacity:1"
       d="m 103.61444,174.87671 c 5.0595,-4.56237 8.82469,-10.53261 10.67826,-17.29342 l -10.52531,-5.10602 11.40718,0.93265"
       id="path907" />
    <path
       style="fill:none;stroke:none;stroke-width:0.502708;stroke-linecap:round;stroke-linejoin:round;stroke-miterlimit:4;stroke-dasharray:none;stroke-opacity:1"
       d="m 99.671035,177.96792 c 0.748825,-0.50771 1.477625,-1.04275 2.184965,-1.60368 -0.0263,-0.23362 -3.233544,-4.94425 -3.233544,-4.94425 l 4.991984,3.45672"
       id="path905" />
    <path
       style="fill:none;stroke:none;stroke-width:0.502708;stroke-linecap:round;stroke-linejoin:round;stroke-miterlimit:4;stroke-dasharray:none;stroke-opacity:1"
       d="m 57.250546,176.62597 c 6.119184,4.7373 13.798203,7.55663 22.13571,7.55663 6.167383,0 11.974455,-1.54268 17.056391,-4.2632 -0.426069,-1.38336 -3.633303,-9.73553 -3.633303,-9.73553 l 6.861691,7.78405"
       id="path903" />
    <path
       style="fill:none;stroke:none;stroke-width:0.502708;stroke-linecap:round;stroke-linejoin:round;stroke-miterlimit:4;stroke-dasharray:none;stroke-opacity:1"
       d="m 53.392495,173.17333 c 0.477696,0.493 0.969292,0.97245 1.474156,1.43772 l 7.475797,-6.83687 -5.091902,8.85179"
       id="path901" />
    <path
       style="fill:none;stroke:none;stroke-width:0.502708;stroke-linecap:round;stroke-linejoin:round;stroke-miterlimit:4;stroke-dasharray:none;stroke-opacity:1"
       d="m 52.920088,123.29 c 0.662287,-0.70858 1.423589,-1.42891 2.140383,-2.08244 l 5.732251,5.34353 -3.873427,-6.93479"
       id="path899" />
    <path
       style="fill:none;stroke:none;stroke-width:0.502708;stroke-linecap:round;stroke-linejoin:round;stroke-miterlimit:4;stroke-dasharray:none;stroke-opacity:1"
       d="m 43.607485,153.47306 c -0.271614,-1.78763 -0.412452,-3.61821 -0.412452,-5.48169 10e-7,-8.50863 2.936244,-16.33147 7.850737,-22.51051"
       id="path897" />
    <path
       style="fill:none;stroke:none;stroke-width:0.502708;stroke-linecap:round;stroke-linejoin:round;stroke-miterlimit:4;stroke-dasharray:none;stroke-opacity:1"
       d="m 52.550069,172.27396 c -3.900221,-4.30773 -6.777718,-9.55877 -8.249382,-15.37002"
       id="path895" />
    <path
       style="fill:none;stroke:none;stroke-width:0.502708;stroke-linecap:round;stroke-linejoin:round;stroke-miterlimit:4;stroke-dasharray:none;stroke-opacity:1"
       d="m 114.61044,139.64544 c 0.63241,2.67924 0.96704,5.47351 0.96704,8.34593 0,1.84154 -0.13754,3.65096 -0.40291,5.41855"
       id="path927" />
    <path
       style="fill:none;stroke:none;stroke-width:0.502708;stroke-linecap:round;stroke-linejoin:round;stroke-miterlimit:4;stroke-dasharray:none;stroke-opacity:1"
       d="m 51.04577,125.48086 9.694739,6.3765 -7.823842,-8.56153"
       id="path887" />
    <path
       style="fill:none;stroke:none;stroke-width:0.502708;stroke-linecap:round;stroke-linejoin:round;stroke-miterlimit:4;stroke-dasharray:none;stroke-opacity:1"
       d="m 52.550069,172.27396 3.960856,-2.59929 -3.11843,3.49866"
       id="path885" />
    <path
       style="fill:none;stroke:none;stroke-width:0.502708;stroke-linecap:round;stroke-linejoin:round;stroke-miterlimit:4;stroke-dasharray:none;stroke-opacity:1"
       d="m 73.838858,134.40263 c 1.760479,-0.73208 3.691599,-1.13624 5.717116,-1.13624"
       id="path883" />
    <path
       style="fill:none;stroke:none;stroke-width:0.502708;stroke-linecap:round;stroke-linejoin:round;stroke-miterlimit:4;stroke-dasharray:none;stroke-opacity:1"
       d="m 94.092632,144.8803 c 0.238008,1.05731 0.363618,2.15717 0.363618,3.28637 0,0.24487 -0.0059,0.48836 -0.01759,0.73034 l 2.332695,0.54533 -2.388485,0.21236"
       id="path923" />
    <path
       style="fill:none;stroke:none;stroke-width:0.502708;stroke-linecap:round;stroke-linejoin:round;stroke-miterlimit:4;stroke-dasharray:none;stroke-opacity:1"
       d="m 94.38287,149.6547 c -0.09653,0.97354 -0.286757,1.91953 -0.561546,2.82881 l 5.265127,2.10875 -5.774404,-0.68937"
       id="path879" />
    <path
       style="fill:none;stroke:none;stroke-width:0.502708;stroke-linecap:round;stroke-linejoin:round;stroke-miterlimit:4;stroke-dasharray:none;stroke-opacity:1"
       d="m 75.902052,162.61561 c 0.956957,0.24125 1.950726,0.38994 2.971227,0.43594 l 0.383468,2.27136 0.299227,-2.25596"
       id="path877" />
    <path
       style="fill:none;stroke:none;stroke-width:0.502708;stroke-linecap:round;stroke-linejoin:round;stroke-miterlimit:4;stroke-dasharray:none;stroke-opacity:1"
       d="m 65.720155,153.70797 c 1.57731,3.93469 4.784409,7.04024 8.786163,8.48151 l -1.052065,6.03351 2.447799,-5.60738"
       id="path875" />
    <path
       style="fill:none;stroke:none;stroke-width:0.502708;stroke-linecap:round;stroke-linejoin:round;stroke-miterlimit:4;stroke-dasharray:none;stroke-opacity:1"
       d="m 71.386408,135.70362 c -4.05396,2.66278 -6.730711,7.2503 -6.73071,12.46301 0,1.55169 0.237184,3.04797 0.67728,4.45459 l -4.445738,2.23086 4.832915,-1.14411"
       id="path873" />
    <path
       style="fill:none;stroke:none;stroke-width:0.502708;stroke-linecap:round;stroke-linejoin:round;stroke-miterlimit:4;stroke-dasharray:none;stroke-opacity:1"
       d="m 93.312055,153.90289 c -2.24678,5.38179 -7.559731,9.16406 -13.756081,9.16406"
       id="path871" />
    <path
       style="fill:none;stroke:none;stroke-width:0.502708;stroke-linecap:round;stroke-linejoin:round;stroke-miterlimit:4;stroke-dasharray:none;stroke-opacity:1"
       d="m 43.607485,153.47306 9.726833,-0.19769 -9.033631,3.62857"
       id="path869" />
    <path
       style="fill:none;stroke:none;stroke-width:0.502708;stroke-linecap:round;stroke-linejoin:round;stroke-miterlimit:4;stroke-dasharray:none;stroke-opacity:1"
       d="m 71.386408,135.70366 -2.870557,-7.11361 5.323007,5.81258"
       id="path930" />
    <path
       style="fill:none;stroke-width:1.9;stroke-linecap:round;stroke-linejoin:round;stroke-miterlimit:4;stroke-dasharray:none;stroke:none"
       d="m 289.42049,695.04731 c -20.58648,-1.73864 -40.53651,-8.00832 -58.03572,-18.23884 -4.04219,-2.36318 -12.54507,-8.08364 -13.36936,-8.99447 -0.548,-0.60553 -0.008,-1.64482 8.90515,-17.13545 5.21869,-9.06995 9.38771,-16.65393 9.2645,-16.85329 -0.12321,-0.19937 -0.43561,-0.31341 -0.69421,-0.25343 -0.2586,0.06 -6.68973,5.79539 -14.2914,12.74534 l -13.82122,12.63628 -2.25979,-2.27913 -2.25978,-2.27914 5.69162,-6.38425 c 3.1304,-3.51134 5.69164,-6.60509 5.69164,-6.875 0,-0.26991 -0.23196,-0.49075 -0.51546,-0.49075 -0.28351,0 -3.76274,2.14016 -7.73162,4.7559 l -7.21615,4.75591 -1.31419,-1.45233 c -0.7228,-0.79879 -2.52585,-2.97912 -4.00677,-4.84519 C 182.45285,629.9925 174.56151,614.7945 169.47757,597.6759 l -1.25105,-4.21256 0.77916,-0.29623 c 0.42854,-0.16294 8.05707,-3.23149 16.95229,-6.81901 12.64398,-5.09943 16.14834,-6.64764 16.05953,-7.09499 -0.0823,-0.41466 -0.50466,-0.56614 -1.53388,-0.55013 -0.78115,0.0121 -8.98648,0.15039 -18.23407,0.30722 l -16.81379,0.28515 -0.42397,-2.9858 c -0.23318,-1.64219 -0.61292,-6.1599 -0.84386,-10.03937 -1.69509,-28.47534 6.4408,-58.02276 22.69182,-82.41071 2.12373,-3.18709 5.04676,-7.26742 5.96989,-8.3335 0.14182,-0.16378 8.26153,4.96685 18.04381,11.4014 9.78228,6.43456 18.17408,11.77339 18.64845,11.86407 0.63501,0.12139 0.82956,0.0232 0.73767,-0.37211 -0.0686,-0.29534 -6.63372,-7.65025 -14.58908,-16.34424 -7.95536,-8.69398 -14.51183,-15.92927 -14.56994,-16.0784 -0.11996,-0.30786 6.59452,-6.60151 7.04291,-6.60151 0.16034,0 4.9833,4.37947 10.71767,9.73214 5.73438,5.35268 10.65701,9.73215 10.93918,9.73215 0.28217,0 0.51304,-0.23978 0.51304,-0.53284 0,-0.29306 -3.12152,-6.12189 -6.9367,-12.95296 -3.81519,-6.83107 -6.9893,-12.61792 -7.05358,-12.85969 -0.0643,-0.24176 1.84486,-1.84654 4.24254,-3.56618 19.45234,-13.95143 40.84606,-22.16568 64.99231,-24.95421 6.38556,-0.73744 21.13158,-0.84112 27.25542,-0.19163 4.28964,0.45495 12.89797,1.76499 13.13134,1.99837 0.0743,0.0743 -0.84095,8.63339 -2.03385,19.02024 -1.1929,10.38685 -2.16891,19.4137 -2.16891,20.05966 0,0.87005 0.14275,1.14454 0.55075,1.05899 0.32946,-0.0691 4.05829,-7.29033 9.28047,-17.97261 4.80134,-9.82143 8.78493,-18.0157 8.85241,-18.20949 0.15875,-0.4559 3.01103,0.43578 9.35208,2.92366 11.56995,4.5394 22.67661,10.80696 32.67857,18.44071 3.89543,2.97309 11.78572,9.76111 11.78572,10.13927 0,0.11908 -3.05358,4.2867 -6.78572,9.2614 -8.83045,11.77039 -8.88786,12.31594 -0.67831,6.446 2.82843,-2.02237 7.02238,-5.00134 9.31988,-6.61994 l 4.17729,-2.9429 1.39523,1.53065 c 0.76738,0.84185 1.90324,2.11692 2.52413,2.83347 l 1.1289,1.30283 -12.8576,16.37574 c -7.07168,9.00666 -12.85964,16.50132 -12.86213,16.65481 -0.0178,1.0948 2.80083,-0.47621 17.44892,-9.72553 9.04888,-5.71379 16.66858,-10.47162 16.93267,-10.57296 0.31862,-0.12227 1.39209,1.35197 3.19065,4.38187 10.60758,17.86974 16.77392,37.33692 18.52855,58.4947 0.66274,7.99157 -0.1321,29.50325 -1.11864,30.27495 -0.0909,0.0711 -2.57597,-0.0744 -5.5224,-0.32321 -28.94057,-2.44436 -37.07206,-3.02254 -37.43297,-2.66162 -0.24403,0.24402 -0.26231,0.50534 -0.0492,0.70284 0.18661,0.17292 9.01538,4.51776 19.61949,9.65521 10.60412,5.13744 19.41608,9.47668 19.58214,9.64274 0.39695,0.39695 -1.47667,6.45587 -3.93008,12.70909 -5.21273,13.28615 -12.91636,26.42732 -21.62459,36.88813 -4.18667,5.02927 -9.48112,10.72183 -11.87066,12.76328 l -1.91652,1.63733 -9.31962,-6.46544 c -8.4239,-5.84403 -10.0223,-6.75353 -10.0223,-5.70272 0,0.18064 2.65178,4.31962 5.89286,9.19772 3.24107,4.8781 5.89285,9.02911 5.89285,9.22446 0,0.19535 -1.08482,1.14193 -2.41071,2.1035 -1.32589,0.96157 -2.90598,2.116 -3.5113,2.56541 l -1.10059,0.8171 -12.51933,-14.20466 c -6.88563,-7.81256 -12.78557,-14.42561 -13.11098,-14.69568 -1.65172,-1.3708 -1.15865,0.56265 2.7792,10.89805 5.00654,13.14031 9.51657,25.36415 9.51657,25.79343 0,0.46102 -8.41712,4.4045 -14.27984,6.6902 -11.49697,4.48234 -23.21488,7.28355 -35.84357,8.56854 -4.53856,0.46181 -19.76044,0.64444 -23.98373,0.28776 z M 280.1125,627.3361 c 2.14847,-4.95679 4.19342,-9.669 4.54435,-10.47158 l 0.63806,-1.45924 2.24136,0.48169 c 1.23275,0.26493 3.5433,0.58216 5.13455,0.70496 l 2.89319,0.22326 0.65255,4.25465 c 0.9489,6.18691 1.68044,6.20931 2.535,0.0776 0.29793,-2.13782 0.57081,-3.91606 0.60639,-3.95164 0.0356,-0.0356 1.84171,-0.2306 4.01363,-0.43339 20.38125,-1.90297 37.43078,-13.46692 46.4049,-31.47438 0.73419,-1.47322 1.36956,-2.7187 1.41195,-2.76775 0.0424,-0.049 4.93327,0.49213 10.86861,1.20262 5.93535,0.71049 10.88382,1.19951 10.99662,1.08672 0.63591,-0.63591 -1.06862,-1.50328 -9.83937,-5.00692 -5.32766,-2.12824 -9.68666,-3.92163 -9.68666,-3.98533 0,-0.0637 0.30736,-1.45438 0.68303,-3.09043 0.37567,-1.63604 0.78609,-3.72993 0.91205,-4.65308 0.27004,-1.97914 0.17346,-1.93648 5.12807,-2.26504 2.77053,-0.18372 3.73814,-0.37664 3.89133,-0.77584 0.29094,-0.75818 -0.18565,-0.95861 -4.51044,-1.89683 l -3.85973,-0.83733 -0.20543,-4.66611 c -0.63471,-14.41679 -6.30363,-27.50256 -16.29069,-37.60437 -1.93892,-1.9612 -6.6972,-6.06188 -7.82695,-6.74525 -0.063,-0.0381 1.9058,-3.82751 4.375,-8.42095 2.46921,-4.59344 4.48947,-8.55818 4.48947,-8.81053 0,-1.23571 -1.66501,0.29519 -6.35842,5.84627 -2.82208,3.3378 -5.56741,6.60897 -6.10071,7.26928 l -0.96965,1.20056 -2.86933,-1.44267 c -3.69367,-1.85714 -9.27657,-3.79482 -13.64525,-4.73592 -5.40885,-1.16516 -15.35289,-1.34907 -20.97917,-0.38799 -3.43049,0.58599 -8.91524,2.05334 -11.77028,3.14891 -0.20602,0.0791 -4.86278,-4.76255 -10.34834,-10.75914 -5.48556,-5.99658 -10.17932,-10.90288 -10.43058,-10.90288 -0.25126,0 -0.45389,0.28125 -0.45028,0.625 0.004,0.34375 2.37643,6.4986 5.27295,13.67745 l 5.26639,13.05245 -2.48009,1.76898 c -3.50332,2.49882 -9.24705,8.35709 -12.08418,12.32515 -4.48093,6.2671 -7.87763,14.09388 -9.60078,22.1224 -0.68451,3.18926 -0.80615,4.84477 -0.81349,11.07143 -0.008,6.6328 0.0827,7.74876 0.962,11.86479 0.53385,2.49886 0.97064,4.59093 0.97064,4.64907 0,0.0581 -3.69642,1.94832 -8.21428,4.20042 -7.51983,3.74855 -8.80932,4.59009 -7.89717,5.15384 0.24619,0.15215 15.0153,-3.13907 17.54003,-3.90871 0.38465,-0.11725 1.11639,0.98275 2.59496,3.90093 2.86318,5.65093 5.82614,9.70067 10.61932,14.5144 5.44913,5.47248 13.36871,10.72335 19.28303,12.78509 0.83418,0.29079 1.07926,0.55847 0.9407,1.02742 -0.22593,0.76467 -3.79516,21.32727 -3.79516,21.86417 0,0.20743 0.28125,0.37467 0.625,0.37164 0.47401,-0.004 1.56871,-2.18276 4.5313,-9.01786 z"
       id="path855"
       transform="scale(0.26458333)" />
    <path
       id="path915"
       style="fill:none;stroke:none;stroke-width:0.502708;stroke-linecap:round;stroke-linejoin:round;stroke-miterlimit:4;stroke-dasharray:none;stroke-opacity:1"
       d="m 81.26243,130.99298 -0.16972,-21.46624 m 14.70638,33.08015 20.51781,-5.23486 m -10.00261,-17.60938 -3.73544,4.96394 5.06638,-3.60091 m 3.7422,4.78486 -9.04481,5.71411 6.84277,-8.72532 m -19.5362,10.67632 c 3.06473,2.09073 5.30893,5.29539 6.1499,9.03124 M 81.26243,130.99298 c 2.72946,0 5.28751,0.7339 7.48759,2.01513 l 3.35498,-3.98536 -2.45581,4.5529 m 2.08092,-22.46038 c 5.54709,1.70322 10.52645,4.70366 14.58418,8.64738 m 1.33094,1.36303 c 0.5321,0.57424 1.0458,1.16577 1.54016,1.77365 m 2.20204,3.01121 c 2.26364,3.45512 3.95214,7.32096 4.92947,11.46149 M 81.09271,109.52674 c 2.42784,0 4.79985,0.23906 7.09376,0.69494 l -1.22103,10.64934 4.76467,-9.75575" />
    <path
       style="fill:none;stroke:none;stroke-width:0.502708;stroke-linecap:round;stroke-linejoin:round;stroke-miterlimit:4;stroke-dasharray:none;stroke-opacity:1"
       d="m 79.386254,111.80015 0.16972,21.46624"
       id="path933" />
    <path
       style="fill:none;stroke:none;stroke-width:0.502708;stroke-linecap:round;stroke-linejoin:round;stroke-miterlimit:4;stroke-dasharray:none;stroke-opacity:1"
       d="m 94.092632,144.8803 20.517808,-5.23486"
       id="path935" />
    <path
       style="fill:none;stroke-width:0.502708;stroke-linecap:round;stroke-linejoin:round;stroke-miterlimit:4;stroke-dasharray:none;stroke:none"
       d="m 95.765287,141.35655 c -0.341292,-1.20025 -1.511433,-3.49987 -2.328471,-4.57601 -0.633476,-0.83438 -2.218492,-2.4405 -2.994448,-3.03433 l -0.371277,-0.28414 1.139677,-2.12291 c 0.626822,-1.1676 1.139674,-2.22502 1.139674,-2.34981 0,-0.5675 -0.563232,-0.10487 -2.062697,1.69424 l -1.59498,1.91372 -1.091983,-0.51172 c -1.457642,-0.68308 -3.332861,-1.1799 -4.817665,-1.27641 l -1.215157,-0.079 -0.0954,-10.41979 c -0.05247,-5.73088 -0.06892,-10.44627 -0.03655,-10.47863 0.171339,-0.17134 6.123792,0.46473 6.336128,0.67707 0.03847,0.0385 -0.196051,2.38897 -0.521161,5.22333 -0.325109,2.83436 -0.545224,5.22684 -0.48914,5.31664 0.07114,0.1139 0.164991,0.12286 0.310417,0.0296 0.114647,-0.0735 1.243333,-2.2563 2.508192,-4.85068 2.226529,-4.56687 2.310421,-4.71439 2.635096,-4.63377 0.820354,0.20371 3.500932,1.33731 5.195549,2.19718 2.734979,1.38775 5.404919,3.22404 7.832409,5.38685 l 0.66548,0.59292 -1.78666,2.38068 c -0.98267,1.30938 -1.79328,2.47554 -1.80138,2.59146 -0.0323,0.4628 0.61412,0.12825 2.89459,-1.49807 l 2.37475,-1.69356 0.49839,0.5481 c 0.27412,0.30146 0.53655,0.61598 0.58318,0.69894 0.0466,0.083 -1.40865,2.04511 -3.23395,4.36033 -1.8253,2.31523 -3.32175,4.31119 -3.32543,4.43547 -0.004,0.12429 0.0525,0.26255 0.12483,0.30726 0.0723,0.0447 2.13199,-1.18332 4.57699,-2.72894 4.35515,-2.75314 4.44972,-2.80464 4.65454,-2.53498 0.41394,0.54498 1.77096,3.08831 2.40022,4.49851 0.99228,2.22374 2.16306,5.79425 1.96493,5.99238 -0.0365,0.0365 -4.41811,1.17672 -9.73699,2.53389 -5.31888,1.35717 -9.761769,2.49629 -9.87309,2.53138 -0.152283,0.048 -0.265848,-0.15932 -0.458615,-0.83725 z"
       id="path944" />
    <path
       style="fill:#f8c80b;fill-opacity:1;stroke-width:1.9;stroke-linecap:round;stroke-linejoin:round;stroke-miterlimit:4;stroke-dasharray:none;stroke:none"
       d="m 292.70001,695.48112 c -23.99525,-1.09565 -47.29453,-8.84068 -68.09411,-22.63549 -4.21703,-2.79685 -7.66733,-5.17798 -7.66733,-5.2914 0,-0.1977 16.23139,-28.58123 18.2818,-31.96904 0.54642,-0.90283 0.78216,-1.6415 0.52386,-1.6415 -0.25829,0 -6.68888,5.68211 -14.2902,12.6269 -7.60132,6.9448 -13.95149,12.62691 -14.1115,12.62691 -0.16001,0 -1.34987,-1.0796 -2.64413,-2.39911 l -2.3532,-2.39911 5.8405,-6.46485 c 3.21228,-3.55568 5.72133,-6.58404 5.57567,-6.7297 -0.14566,-0.14566 -3.5906,1.90875 -7.65542,4.56535 l -7.39059,4.83019 -1.62126,-1.83903 c -8.76511,-9.94241 -17.31966,-23.6067 -22.76528,-36.36329 -1.8179,-4.25849 -5.49585,-14.91185 -6.0844,-17.62378 l -0.33451,-1.54134 16.92771,-6.79242 c 9.31024,-3.73583 16.93242,-6.96703 16.93819,-7.18044 0.01,-0.35736 -5.9175,-0.27442 -28.33938,0.39654 l -8.39934,0.25135 -0.67792,-5.93831 c -0.81975,-7.18073 -0.81129,-22.74309 0.0161,-29.6769 2.35363,-19.72337 8.92503,-38.96449 18.95877,-55.51136 2.61858,-4.31836 7.84927,-11.91569 9.35415,-13.58644 0.20183,-0.22409 8.35291,4.83951 18.11349,11.25243 9.76058,6.41293 18.14586,11.80206 18.63395,11.97584 1.05794,0.37667 2.2911,1.78498 -15.24294,-17.40802 -7.4315,-8.13462 -13.40117,-15.07855 -13.26594,-15.43096 0.13523,-0.3524 1.82233,-2.03837 3.74912,-3.7466 l 3.50326,-3.10587 10.56689,9.818 c 5.81179,5.3999 10.74535,9.82082 10.96346,9.82426 0.49365,0.008 0.58318,0.17927 -7.27988,-13.94268 -3.57567,-6.42186 -6.49372,-11.87668 -6.48457,-12.12183 0.0256,-0.6835 7.53707,-6.04517 13.54356,-9.66727 19.55859,-11.79443 40.72409,-18.27698 64.0118,-19.60548 l 6.10372,-0.3482 0.3355,27.71959 c 0.18453,15.24578 0.33573,33.42419 0.33601,40.39648 l 5e-4,12.67688 -4.92449,0.31522 c -4.48329,0.28699 -13.0123,2.16004 -15.22281,3.34307 -0.75116,0.402 -2.46048,-1.23658 -10.66746,-10.22606 -5.37514,-5.88762 -9.95939,-10.78053 -10.18723,-10.87313 -0.79883,-0.32465 -0.37276,0.88127 4.83451,13.68333 l 5.24877,12.90408 -4.07516,3.20545 c -9.50769,7.47858 -16.29853,18.10972 -19.67297,30.79827 -0.97644,3.67159 -1.12034,5.45473 -1.09519,13.5709 0.0237,7.6625 0.20732,9.99094 1.02017,12.93957 l 0.99122,3.59566 -8.35375,4.18004 c -4.59456,2.29902 -8.11382,4.26492 -7.82057,4.36866 0.29325,0.10374 4.32633,-0.72473 8.9624,-1.84105 4.63607,-1.11632 8.52741,-2.02967 8.64743,-2.02967 0.12003,0 0.79465,1.25906 1.49916,2.79793 5.05257,11.03626 14.60973,20.71176 26.17975,26.50391 2.85104,1.42729 5.25533,2.66669 5.34288,2.75423 0.0875,0.0875 -0.64954,4.80754 -1.63796,10.48888 -0.98842,5.68134 -1.78907,10.76308 -1.77923,11.29277 0.0267,1.43826 0.81894,-0.15571 5.37308,-10.81087 l 3.95293,-9.24854 1.76777,0.29803 c 0.97227,0.16392 3.31203,0.43892 5.19947,0.61111 3.90616,0.35636 4.09401,0.54635 4.65528,4.70849 0.20604,1.52786 0.54248,3.23249 0.74765,3.78808 0.32695,0.88539 0.41011,0.82302 0.67331,-0.50508 0.16517,-0.83338 0.44736,-2.80662 0.6271,-4.38499 l 0.32681,-2.86976 3.35537,-0.32015 c 12.00239,-1.14522 20.73103,-4.29153 29.87187,-10.76758 6.63526,-4.70089 14.2631,-13.86172 17.64062,-21.18589 1.15336,-2.50106 1.31718,-2.64252 2.77792,-2.39875 3.94341,0.65807 19.11039,2.32709 19.851,2.18446 0.45666,-0.0879 -3.71573,-1.96656 -9.27198,-4.17471 l -10.10227,-4.01482 0.91263,-3.8131 c 0.50195,-2.0972 0.91441,-4.414 0.91657,-5.14844 0.004,-1.31777 0.0637,-1.34007 4.54963,-1.69512 2.50013,-0.19788 4.54569,-0.52741 4.54569,-0.73229 0,-0.20489 -1.93192,-0.77795 -4.29315,-1.27346 l -4.29315,-0.90095 -0.0275,-3.34487 c -0.0152,-1.83968 -0.30242,-5.16822 -0.63839,-7.39675 l -0.61086,-4.05188 38.30242,-9.75978 c 21.06633,-5.36788 38.37969,-9.68121 38.47412,-9.58518 0.36013,0.36623 1.76876,8.00965 2.59194,14.06424 1.03635,7.62244 1.17864,24.75969 0.26405,31.80107 -0.34145,2.62875 -0.70054,4.85927 -0.79797,4.95671 -0.17345,0.17344 -35.95972,-2.61788 -40.93974,-3.1933 -1.71801,-0.1985 -2.36224,-0.12676 -2.01507,0.22442 0.28067,0.28391 9.2584,4.75263 19.95051,9.93048 10.69211,5.17784 19.48877,9.45912 19.54813,9.51394 0.23924,0.22095 -2.12321,7.45517 -4.14055,12.67909 -6.45861,16.72461 -16.50994,32.40158 -29.17524,45.50434 -3.33122,3.44628 -6.25986,6.26597 -6.50808,6.26597 -0.24822,0 -4.56043,-2.85785 -9.58269,-6.35079 -5.02225,-3.49293 -9.23498,-6.24718 -9.36161,-6.12055 -0.12663,0.12663 2.51318,4.38455 5.86624,9.46204 l 6.09647,9.2318 -3.77228,2.73412 c -2.07475,1.50376 -3.90214,2.72114 -4.06087,2.70527 -0.15872,-0.0159 -5.99873,-6.51012 -12.9778,-14.43166 -6.97908,-7.92156 -12.87869,-14.40282 -13.11024,-14.40282 -0.23157,0 -0.17611,0.62503 0.12323,1.38896 2.41983,6.17543 13.0678,34.74708 13.0678,35.06477 0,1.06958 -13.62067,6.98165 -22.97372,9.97176 -15.17176,4.85032 -30.89553,6.81264 -48.24203,6.02057 z"
       id="path948"
       transform="scale(0.26458333)" />
    <path
       style="fill:#06cd99;fill-opacity:1;stroke-width:0.502708;stroke-linecap:round;stroke-linejoin:round;stroke-miterlimit:4;stroke-dasharray:none;stroke:none"
       d="m 95.824585,142.30692 c -0.5071,-1.62383 -0.724609,-2.20226 -1.156695,-3.07603 -0.960903,-1.94316 -2.562563,-3.92826 -4.140242,-5.13141 -0.360839,-0.27518 -0.656074,-0.5515 -0.656074,-0.61405 0,-0.0625 0.518258,-1.07541 1.151684,-2.25082 0.633423,-1.1754 1.121627,-2.16715 1.084894,-2.20388 -0.03673,-0.0367 -0.71483,0.70285 -1.506884,1.64351 -0.792056,0.94066 -1.542565,1.82059 -1.667798,1.9554 -0.220065,0.23689 -0.254063,0.23185 -1.01455,-0.15035 -1.797278,-0.90326 -4.078412,-1.49792 -5.746107,-1.49792 H 81.31895 l -1.33e-4,-3.37427 c -7.4e-5,-1.85586 -0.0401,-6.67605 -0.08894,-10.71154 l -0.0888,-7.33726 1.696048,0.0942 c 1.456367,0.0809 5.143383,0.53591 5.230664,0.64549 0.01611,0.0202 -0.233556,2.29187 -0.554823,5.04809 -0.321265,2.75621 -0.568463,5.15932 -0.549328,5.34024 0.02376,0.22459 0.794205,-1.22356 2.428626,-4.5649 l 2.393834,-4.89383 1.347941,0.46738 c 4.230867,1.46699 9.082701,4.36326 12.073191,7.20699 l 0.9684,0.92088 -1.81427,2.37576 c -0.99784,1.30667 -1.79478,2.43001 -1.77096,2.49631 0.0238,0.0663 1.12574,-0.65508 2.44872,-1.60308 1.32299,-0.94799 2.47158,-1.72555 2.55243,-1.7279 0.0808,-0.002 0.44621,0.34149 0.81191,0.76411 l 0.66492,0.7684 -3.37467,4.27631 c -1.85607,2.35197 -3.37904,4.32785 -3.38439,4.39084 -0.0168,0.19805 0.27515,0.0278 4.15382,-2.42272 2.08325,-1.31617 4.04155,-2.55264 4.35178,-2.74773 l 0.56404,-0.3547 0.75324,1.27986 c 0.91874,1.56107 2.30721,4.44318 2.79477,5.8012 0.53231,1.4827 1.12151,3.42347 1.16537,3.83865 l 0.0385,0.36413 -10.02261,2.56775 c -5.51243,1.41227 -10.069592,2.57139 -10.127025,2.57583 -0.05743,0.004 -0.127894,-0.0671 -0.156586,-0.15897 z"
       id="path950" />
  </g>
</svg>
