<?xml version="1.0" encoding="iso-8859-1"?>
<!-- Generator: Adobe Illustrator 19.0.0, SVG Export Plug-In . SVG Version: 6.00 Build 0)  -->
<svg version="1.1" id="Layer_1" xmlns="http://www.w3.org/2000/svg" xmlns:xlink="http://www.w3.org/1999/xlink" x="0px" y="0px"
	 viewBox="0 0 512 512" style="enable-background:new 0 0 512 512;" xml:space="preserve">
<g>
	<path style="fill:#FFB74D;" d="M113,358.8l50.4,50.4l-34,34l-5.2,0.4c-15.2-19.2-25.6-42-30.8-66.8l1.6-0.4L113,358.8z"/>
	<path style="fill:#FFB74D;" d="M258.2,501.2l46.8-45.6l29.6,28.8l1.2,4c-21.6,11.2-45.6,19.2-71.6,19.2h-6V501.2z"/>
	<path style="fill:#FFB74D;" d="M181,484.4l28.8-27.6l45.6,46.8h2.8v4h-9.6c-27.2,0-52.8-8.8-75.2-21.2L181,484.4z"/>
	<path style="fill:#FFB74D;" d="M389.8,185.6c14,18.4,24.4,42.4,29.2,66.4l0,0l-15.6,12.8l-46.4-48l32.8-32V185.6z"/>
	<path style="fill:#FFB74D;" d="M200.2,128c6-2,12-3.2,18-4.4c8-1.6,16.4-0.8,25.2-1.2c1.6,0,3.6,1.6,5.6,1.6h5.6l-4.4,2.8
		L200.2,128z"/>
	<polygon style="fill:#FFB74D;" points="422.2,280.8 422.2,339.6 403.4,358.8 355,310.4 403.4,262 	"/>
	<path style="fill:#FFB74D;" d="M422.2,346c0,10-0.8,19.6-2.4,29.2l-16.4-16.4l18.8-18.8L422.2,346L422.2,346z"/>
	<path style="fill:#FFB74D;" d="M422.2,280.8l-18.8-16L419,252l0,0c2,8,3.2,15.6,3.2,26.8V280.8L422.2,280.8z"/>
	
		<rect x="321.93" y="230.205" transform="matrix(0.7071 -0.7071 0.7071 0.7071 -81.6644 328.8538)" style="fill:#FFB74D;" width="68.399" height="65.599"/>
	<polygon style="fill:#FFB74D;" points="304.6,360.8 258.2,314.4 308.6,264 355,310.4 403.4,358.8 353,409.2 	"/>
	<path style="fill:#FFB74D;" d="M419.8,375.2c-4.8,25.6-16,49.2-31.6,69.2l-1.2-1.2l-34-34l50.4-50.4L419.8,375.2z"/>
	<path style="fill:#FFB74D;" d="M334.6,137.2c21.6,10.8,40.8,26.4,55.2,45.6l0,0L357,215.6l-50.4-50.4l0,0L334.6,137.2z"/>
	<polygon style="fill:#FFB74D;" points="258.2,213.6 209.8,165.2 249.8,124.8 265.4,124 306.6,165.2 357,215.6 308.6,264 	"/>
	<polygon style="fill:#FFB74D;" points="304.6,360.8 353,409.2 306.6,455.6 258.2,407.2 	"/>
	<path style="fill:#FFB74D;" d="M388.2,444c-14,17.6-31.6,32.4-52,42.8l-0.8-2L306.6,456l46.4-46.4l34,34L388.2,444z"/>
	<path style="fill:#FFB74D;" d="M288.2,122.4c16.4,2.4,32,7.6,46.4,14.8l-28,28l0,0L265.4,124L288.2,122.4z"/>
	<polygon style="fill:#FFB74D;" points="258.2,314.4 212.2,360.4 211.8,360.8 161.4,310.4 207.8,264 258.2,213.6 308.6,264 	"/>
	<polygon style="fill:#FFB74D;" points="306.6,457.2 261,504 255.4,504 209.8,457.2 258.2,408.8 	"/>
</g>
<path style="fill:#7CB342;" d="M317.4,72.4c-12,10.4-23.6,25.6-33.6,47.2l10.4,2.4l0,0l31.6,8c43.6-40,44-82.8,44-82.8
	S341,46.8,317.4,72.4z"/>
<g>
	<path style="fill:#FFB74D;" d="M264.2,124c8,0,16-1.2,24,0l-22.8,2.4l-3.2-2.4H264.2z"/>
	<polygon style="fill:#FFB74D;" points="265.4,125.6 249.8,127.6 254.2,124 262.2,124 	"/>
</g>
<g>
	<path style="fill:#7CB342;" d="M279.4,42.8c-1.2-4.8-6-25.2-21.2-38.8c0,0-16.8,17.2-20.8,38.4c-0.4,2.8-0.8,5.2-0.8,8
		c6.4,9.6,12,21.2,16.8,36.4c8-19.2,17.6-33.6,27.2-44H279.4z"/>
	<polygon style="fill:#7CB342;" points="255.4,119.6 261,119.6 262.2,120.8 254.2,120.8 	"/>
</g>
<g>
	<polygon style="fill:#FFB74D;" points="258.2,213.6 207.8,264 206.2,262.4 159.4,215.6 209.8,165.2 	"/>
	<polygon style="fill:#FFB74D;" points="163.4,409.2 113,358.8 161.4,310.4 211.8,360.8 258.2,407.2 209.8,455.6 	"/>
</g>
<path style="fill:#7CB342;" d="M253.4,87.2L253.4,87.2L253.4,87.2L253.4,87.2z"/>
<path style="fill:#FFB74D;" d="M249.8,124.8l-40,40l-29.2-29.2c6.4-3.2,12.8-5.6,19.6-7.6L249.8,124.8z"/>
<g>
	<path style="fill:#7CB342;" d="M318.6,16c0,0-18,6-37.2,27.2l0,0c-9.6,10.4-20,24.8-28,44l0,0l0,0c-4,9.2-7.6,23.6-10.8,35.2
		c1.6,0,3.6,2,5.6,2h5.6h0.8h6h0.8h2c8,0,16.4-1.2,24,0l5.2-2.4l-9.6-2.4c10-21.6,21.6-36.4,33.6-47.2V70l5.2-4
		C324.6,35.6,318.6,16,318.6,16z"/>
	<path style="fill:#7CB342;" d="M236.6,50.8c-1.6-2.4-3.2-4.8-5.2-6.8l5.6-1.2C236.6,45.2,236.6,48,236.6,50.8z"/>
	<path style="fill:#7CB342;" d="M253.4,87.2C248.6,72,243,60,236.6,50.8c-1.6-2.4-3.2-4.8-5.2-6.8C212.2,19.6,191,16,191,16
		s-2.8,14.8,0,36.4c0,1.6,0.4,3.6,0.8,5.2c2.8,18.8,10,41.6,26,64.4l0.4,1.6c8-1.6,16.4-2.4,25.2-2.8v-2
		C245.8,107.2,249.4,96.8,253.4,87.2L253.4,87.2z"/>
</g>
<g>
	<polygon style="fill:#FFB74D;" points="212.2,360.4 258.2,314.4 304.6,360.8 258.2,407.2 211.8,360.8 	"/>
	<polygon style="fill:#FFB74D;" points="207.8,264 161.4,310.4 113,262 159.4,215.6 206.2,262.4 	"/>
</g>
<path style="fill:#7CB342;" d="M191,52.4c0,1.6,0.4,3.6,0.8,5.2c-2-1.2-4.4-2-6.4-3.2v-0.8L191,52.4z"/>
<g>
	<path style="fill:#FFB74D;" d="M181,484.4l-7.6,0.4c-19.2-10.4-35.6-24.4-49.2-41.6l5.2-0.4l34-34l46.4,46.4L181,484.4z"/>
	<polygon style="fill:#FFB74D;" points="161.4,310.4 113,359.6 92.2,340 90.2,340 90.2,284 92.2,284 113,262.4 	"/>
</g>
<path style="fill:#7CB342;" d="M217.8,122c-16-22.8-23.2-46-26-64.4c-2-1.2-4.4-2-6.4-3.2c-21.2-10-37.6-10.8-37.6-10.8
	s1.2,44,47.6,84.8l4.8-0.4c6-2,12-3.6,18-4.4L217.8,122z"/>
<g>
	<path style="fill:#FFB74D;" d="M159.4,215.6L113,262l-17.6-17.6l-1.2-0.4c10.8-48,43.2-87.6,86.4-108.4l29.2,29.2L159.4,215.6z"/>
	<path style="fill:#FFB74D;" d="M92.2,284h-2v-5.2c0-12,1.6-23.6,4-34.4l1.2,0.4l17.6,18L92.2,284z"/>
	<path style="fill:#FFB74D;" d="M95,376.4l-2,0.4c-2-10-3.2-20.4-3.2-30.8v-6h2l20.8,19.6L95,376.4z"/>
</g>
<path d="M195.4,132.4c-0.8,0-2-0.4-2.8-0.8c-47.2-41.6-49.2-86-49.2-88c0-1.2,0.4-2,1.2-2.8s2-1.2,2.8-1.2s17.6,0.8,39.2,11.2
	c2,0.8,4.4,2,6.4,3.2s2.8,3.6,1.6,5.6s-3.6,2.8-5.6,1.6c-2-1.2-4-2-6-3.2c-13.6-6.4-25.2-8.8-31.6-10c2,12,10,46,46,77.2
	c1.6,1.6,2,4,0.4,5.6C197.8,132,196.6,132.4,195.4,132.4z"/>
<path d="M264.2,512h-16c-24.8,0-50.8-7.2-77.2-21.6c-18.4-10-36-25.2-50.4-43.6c-15.6-20-26.8-44-31.6-68.8
	c-2-10.4-3.2-21.6-3.2-32.4v-67.2c0-11.6,1.2-23.6,4-35.2c10.8-48,44-89.6,88.8-111.2c6.4-2.8,13.2-5.6,20-8c6-2,12-3.6,18.4-4.8
	c5.6-1.2,11.2-0.8,16.4-0.4c3.2,0,6.4,0.4,9.2,0.4c1.2,0,2.8,0,4.4,0.4c1.2,0,2,0.4,2.8,0.4h14.4c2.4,0,5.2,0,7.6-0.4
	c5.6-0.4,11.2-0.4,16.8,0.4c18.4,2.8,34,7.6,47.6,14.4c22.8,11.2,41.6,26.8,56.8,46.4c14.8,19.2,24.8,41.2,30,65.2
	c2.4,10.8,3.2,21.6,3.2,33.2v67.2c0,10.4-0.8,20.4-2.8,30c-4.8,25.6-16,50.4-32.4,70.8c-16,20.4-34.4,36-53.2,45.6
	C312.2,505.6,288.2,512,264.2,512z M226.2,126.8c-2.4,0-5.2,0-7.6,0.8c-6,1.2-11.6,2.8-17.6,4.4c-6.8,2-13.2,4.8-19.2,7.6
	c-42.4,20.4-74,59.6-84.4,105.6c-2.4,11.2-4,22.4-4,33.6V346c0,10,1.2,20.8,3.2,30.8c4.8,24,15.2,46.4,30,65.6
	c13.6,17.6,30.4,32,48,41.2c25.2,13.6,50,20.8,73.6,20.8h16c22.4,0,45.2-6,70-18.8c17.6-9.2,35.2-24,50.4-43.6
	c15.6-19.6,26-42.8,30.8-67.2c1.6-8.8,2.4-18.4,2.4-28.4v-6l0,0v-61.2c0-11.2-1.2-21.2-3.2-31.2c-4.8-22.8-14.4-43.6-28.4-62
	s-32.4-33.2-54-44c-12.8-6.4-27.6-10.8-45.2-13.6c-4.8-0.8-10-0.4-15.2-0.4c-2.8,0-5.2,0.4-8,0.4h-14.4c-1.2,0-2.4,0-4-0.4
	c-1.2,0-2.4-0.4-2.8-0.4c-3.2,0-6.8,0-10-0.4C231,127.2,228.6,126.8,226.2,126.8z"/>
<path d="M217.8,126c-1.2,0-2.4-0.4-3.2-1.6c-14-20-23.2-42.4-26.8-66.4c-0.4-2-0.4-3.6-0.8-5.2c-2.8-22,0-36.8,0.4-37.6
	c0.4-2,2.4-3.6,4.4-3.2c0.8,0,22.8,4,42.8,29.2c2,2.4,3.6,4.8,5.2,7.2C247,59.2,252.6,71.6,257,86c0.8,2-0.4,4.4-2.8,5.2
	c-2,0.8-4.4-0.4-5.2-2.8c-4-13.6-9.6-25.2-16.4-35.6c-1.6-2.4-3.2-4.4-4.8-6.8c-13.2-16.8-27.2-23.2-34-25.2
	c-0.8,5.6-1.2,16.8,0.4,30.8c0,1.6,0.4,3.2,0.8,5.2c3.6,22.8,12,44,25.6,62.8c1.2,2,0.8,4.4-0.8,5.6
	C219.4,125.6,218.6,126,217.8,126z"/>
<path d="M243,122.8c-0.4,0-0.8,0-0.8,0c-2-0.4-3.6-2.8-2.8-4.8c2.8-11.2,6.4-22,10.4-32v-0.4c7.2-17.2,16.8-32.4,28-44.8
	c19.6-22,38.4-28.4,38.8-28.4c1.2-0.4,2-0.4,3.2,0.4c0.8,0.4,1.6,1.2,2,2.4c0.4,0.8,6,20.8,4.4,51.2c0,2.4-2,4-4.4,3.6
	c-2.4,0-4-2-3.6-4.4c1.2-21.2-1.2-36.8-2.8-44.4c-6,2.8-18.4,10-31.6,24.4c-10.8,12-19.6,26.4-26.4,42.8c-4,9.6-7.6,20-10,30.8
	C246.6,121.6,245,122.8,243,122.8z"/>
<path d="M325.4,134.4c-1.2,0-2-0.4-2.8-1.2c-1.6-1.6-1.2-4,0.4-5.6c33.6-30.8,40.4-64,42-75.6c-8,0.8-26.8,5.2-46,23.6
	c-12.4,11.6-23.2,27.2-32,46c-0.8,2-3.2,2.8-5.2,2s-2.8-3.2-2-5.2c9.2-20,20.4-36,33.6-48.4c28.4-26.8,54.8-26,56-26c2,0,4,2,4,4
	s-0.4,45.2-44.8,85.6C327.4,134,326.2,134.4,325.4,134.4z"/>
<path d="M236.6,54.8c-2.4,0-4-1.6-4-4c0-2.8,0.4-6,0.8-8.8c4-22.4,21.2-40,22-40.8c1.6-1.6,4-1.6,5.6,0c16,14,21.2,34.8,22.4,40.8
	l0.4,1.2c0.4,2-0.8,4.4-3.2,4.8c-2,0.4-4.4-0.8-4.8-3.2l-0.4-1.2c-0.8-3.6-4.8-20.8-17.2-33.6c-4.8,5.6-14.4,18.4-16.8,33.6
	c-0.4,2.4-0.8,4.8-0.8,7.6C240.6,52.8,238.6,54.8,236.6,54.8z"/>
<path d="M387,446.8c-1.2,0-2-0.4-2.8-1.2L218.6,280c-1.6-1.6-1.6-4,0-5.6s4-1.6,5.6,0L389.8,440c1.6,1.6,1.6,4,0,5.6
	C389,446.4,387.8,446.8,387,446.8z"/>
<path d="M206.2,266.4c-1.2,0-2-0.4-2.8-1.2L134.2,196c-1.6-1.6-1.6-4,0-5.6s4-1.6,5.6,0l69.2,69.2c1.6,1.6,1.6,4,0,5.6
	C208.2,266,207.4,266.4,206.2,266.4z"/>
<path d="M419.8,379.2c-1.2,0-2-0.4-2.8-1.2L177.8,138.8c-1.6-1.6-1.6-4,0-5.6s4-1.6,5.6,0l239.2,239.2c1.6,1.6,1.6,4,0,5.6
	C421.8,378.8,420.6,379.2,419.8,379.2z"/>
<path d="M335.4,488.4c-1.2,0-2-0.4-2.8-1.2l-240-240c-1.6-1.6-1.6-4,0-5.6s4-1.6,5.6,0l240,240c1.6,1.6,1.6,4,0,5.6
	C337.4,488,336.6,488.4,335.4,488.4z"/>
<path d="M255.4,505.2c-1.2,0-2-0.4-2.8-1.2L89.4,340.8c-1.6-1.6-1.6-4,0-5.6s4-1.6,5.6,0l163.2,163.2c1.6,1.6,1.6,4,0,5.6
	C257.4,504.8,256.2,505.2,255.4,505.2z"/>
<path d="M420.6,283.2c-1.2,0-2-0.4-2.8-1.2L265,129.2c-1.6-1.6-1.6-4,0-5.6s4-1.6,5.6,0l152.8,152.8c1.6,1.6,1.6,4,0,5.6
	C422.6,282.8,421.8,283.2,420.6,283.2z"/>
<path d="M212.2,364.4c-1.2,0-2-0.4-2.8-1.2c-1.6-1.6-1.6-4,0-5.6L387,180c1.6-1.6,4-1.6,5.6,0s1.6,4,0,5.6L215,363.2
	C214.2,364,213.4,364.4,212.2,364.4z"/>
<path d="M129.4,447.2c-1.2,0-2-0.4-2.8-1.2c-1.6-1.6-1.6-4,0-5.6l72-72c1.6-1.6,4-1.6,5.6,0s1.6,4,0,5.6l-72,72
	C131.4,446.8,130.2,447.2,129.4,447.2z"/>
<path d="M95,380.4c-1.2,0-2-0.4-2.8-1.2c-1.6-1.6-1.6-4,0-5.6L291,174.8c1.6-1.6,4-1.6,5.6,0s1.6,4,0,5.6L97.8,379.2
	C97.4,380,96.2,380.4,95,380.4z"/>
<path d="M306.6,168.8c-1.2,0-2-0.4-2.8-1.2c-1.6-1.6-1.6-4,0-5.6l25.6-25.6c1.6-1.6,4-1.6,5.6,0s1.6,4,0,5.6l-25.6,25.6
	C309,168.4,307.8,168.8,306.6,168.8z"/>
<path d="M181,488.4c-1.2,0-2-0.4-2.8-1.2c-1.6-1.6-1.6-4,0-5.6l162-162c1.6-1.6,4-1.6,5.6,0s1.6,4,0,5.6l-162,162
	C183,488,181.8,488.4,181,488.4z"/>
<path d="M355,314.4c-1.2,0-2-0.4-2.8-1.2c-1.6-1.6-1.6-4,0-5.6l64-64c1.6-1.6,4-1.6,5.6,0s1.6,4,0,5.6l-64,64
	C357,314,356.2,314.4,355,314.4z"/>
<path d="M261,505.2c-1.2,0-2-0.4-2.8-1.2c-1.6-1.6-1.6-4,0-5.6l159.6-159.6c1.6-1.6,4-1.6,5.6,0s1.6,4,0,5.6L406.2,362L263.8,504.4
	C263.4,504.8,262.2,505.2,261,505.2z"/>
<path d="M92.2,286.8c-1.2,0-2-0.4-2.8-1.2c-1.6-1.6-1.6-4,0-5.6L247,122.4c1.6-1.6,4-1.6,5.6,0s1.6,4,0,5.6L95,285.6
	C94.2,286.4,93.4,286.8,92.2,286.8z"/>
<g>
</g>
<g>
</g>
<g>
</g>
<g>
</g>
<g>
</g>
<g>
</g>
<g>
</g>
<g>
</g>
<g>
</g>
<g>
</g>
<g>
</g>
<g>
</g>
<g>
</g>
<g>
</g>
<g>
</g>
</svg>
