<?xml version="1.0" encoding="UTF-8" standalone="no"?>
<svg
   xmlns:dc="http://purl.org/dc/elements/1.1/"
   xmlns:cc="http://creativecommons.org/ns#"
   xmlns:rdf="http://www.w3.org/1999/02/22-rdf-syntax-ns#"
   xmlns:svg="http://www.w3.org/2000/svg"
   xmlns="http://www.w3.org/2000/svg"
   xmlns:sodipodi="http://sodipodi.sourceforge.net/DTD/sodipodi-0.dtd"
   xmlns:inkscape="http://www.inkscape.org/namespaces/inkscape"
   height="36pt"
   version="1.1"
   viewBox="0 0 360 36"
   width="360pt"
   id="svg77"
   sodipodi:docname="vorontsov.svg"
   inkscape:version="1.0 (6e3e5246a0, 2020-05-07)">
  <metadata
     id="metadata81">
    <rdf:RDF>
      <cc:Work
         rdf:about="">
        <dc:format>image/svg+xml</dc:format>
        <dc:type
           rdf:resource="http://purl.org/dc/dcmitype/StillImage" />
        <dc:title></dc:title>
      </cc:Work>
    </rdf:RDF>
  </metadata>
  <sodipodi:namedview
     inkscape:document-rotation="0"
     pagecolor="#ffffff"
     bordercolor="#666666"
     borderopacity="1"
     objecttolerance="10"
     gridtolerance="10"
     guidetolerance="10"
     inkscape:pageopacity="0"
     inkscape:pageshadow="2"
     inkscape:window-width="1859"
     inkscape:window-height="1020"
     id="namedview79"
     showgrid="false"
     inkscape:zoom="1.234554"
     inkscape:cx="67.851125"
     inkscape:cy="-1.9231036"
     inkscape:window-x="61"
     inkscape:window-y="31"
     inkscape:window-maximized="1"
     inkscape:current-layer="text60" />
  <defs
     id="defs4">
    <rect
       id="rect54"
       height="235.27781"
       width="610.43811"
       y="139.82067"
       x="9.7169559" />
    <style
       type="text/css"
       id="style2">
*{stroke-linecap:butt;stroke-linejoin:round;}
  </style>
  </defs>
  <g
     id="figure_1">
    <g
       id="axes_1">
      <g
         id="text_1">
        <!-- vsevolod.makeev@vigg.ru -->
        <defs
           id="defs24">
          <path
             d="M 30.203125 0  L 21.59375 0  L 1 50.75  L 8.796875 50.75  Q 9.953125 50.75 10.671875 50.203125  Q 11.40625 49.65625 11.65625 48.84375  L 24.046875 17.203125  Q 24.703125 15.296875 25.140625 13.421875  Q 25.59375 11.546875 26 9.703125  Q 26.40625 11.546875 26.875 13.390625  Q 27.34375 15.25 28.046875 17.203125  L 40.59375 48.84375  Q 40.84375 49.703125 41.59375 50.21875  Q 42.34375 50.75 43.34375 50.75  L 50.796875 50.75  z "
             id="Lato-Medium-118" />
          <path
             d="M 36.703125 42.15625  Q 36 40.953125 34.75 40.953125  Q 33.953125 40.953125 32.96875 41.5  Q 32 42.046875 30.640625 42.71875  Q 29.296875 43.40625 27.421875 43.953125  Q 25.546875 44.5 23 44.5  Q 20.84375 44.5 19.09375 43.953125  Q 17.34375 43.40625 16.125 42.453125  Q 14.90625 41.5 14.21875 40.21875  Q 13.546875 38.953125 13.546875 37.453125  Q 13.546875 35.546875 14.671875 34.265625  Q 15.796875 33 17.625 32.078125  Q 19.453125 31.15625 21.796875 30.421875  Q 24.15625 29.703125 26.59375 28.890625  Q 29.046875 28.09375 31.390625 27.0625  Q 33.75 26.046875 35.578125 24.546875  Q 37.40625 23.046875 38.53125 20.875  Q 39.65625 18.703125 39.65625 15.65625  Q 39.65625 12.09375 38.375 9.09375  Q 37.09375 6.09375 34.625 3.890625  Q 32.15625 1.703125 28.546875 0.453125  Q 24.953125 -0.796875 20.25 -0.796875  Q 14.953125 -0.796875 10.578125 0.953125  Q 6.203125 2.703125 3.203125 5.40625  L 5.40625 9  Q 5.796875 9.703125 6.390625 10.078125  Q 7 10.453125 7.90625 10.453125  Q 8.84375 10.453125 9.84375 9.75  Q 10.84375 9.046875 12.265625 8.21875  Q 13.703125 7.40625 15.71875 6.703125  Q 17.75 6 20.75 6  Q 23.296875 6 25.171875 6.640625  Q 27.046875 7.296875 28.296875 8.375  Q 29.546875 9.453125 30.140625 10.890625  Q 30.75 12.34375 30.75 13.953125  Q 30.75 16 29.625 17.34375  Q 28.5 18.703125 26.671875 19.640625  Q 24.84375 20.59375 22.5 21.296875  Q 20.15625 22 17.671875 22.796875  Q 15.203125 23.59375 12.84375 24.625  Q 10.5 25.65625 8.671875 27.25  Q 6.84375 28.84375 5.71875 31.125  Q 4.59375 33.40625 4.59375 36.703125  Q 4.59375 39.65625 5.796875 42.34375  Q 7 45.046875 9.328125 47.09375  Q 11.65625 49.15625 15.046875 50.34375  Q 18.453125 51.546875 22.796875 51.546875  Q 27.796875 51.546875 31.875 49.96875  Q 35.953125 48.40625 38.796875 45.59375  z "
             id="Lato-Medium-115" />
          <path
             d="M 27.84375 51.546875  Q 32.453125 51.546875 36.34375 50.015625  Q 40.25 48.5 43.09375 45.59375  Q 45.953125 42.703125 47.546875 38.46875  Q 49.15625 34.25 49.15625 28.796875  Q 49.15625 26.59375 48.671875 25.84375  Q 48.203125 25.09375 46.90625 25.09375  L 13.40625 25.09375  Q 13.546875 20.453125 14.71875 17  Q 15.90625 13.546875 17.921875 11.265625  Q 19.953125 9 22.796875 7.875  Q 25.65625 6.75 29.15625 6.75  Q 32.453125 6.75 34.828125 7.5  Q 37.203125 8.25 38.921875 9.140625  Q 40.65625 10.046875 41.84375 10.796875  Q 43.046875 11.546875 43.953125 11.546875  Q 45.15625 11.546875 45.703125 10.65625  L 48.40625 7.203125  Q 46.65625 5.09375 44.34375 3.625  Q 42.046875 2.15625 39.390625 1.171875  Q 36.75 0.203125 33.921875 -0.25  Q 31.09375 -0.703125 28.34375 -0.703125  Q 23.09375 -0.703125 18.625 1.0625  Q 14.15625 2.84375 10.90625 6.265625  Q 7.65625 9.703125 5.828125 14.765625  Q 4 19.84375 4 26.453125  Q 4 31.75 5.640625 36.328125  Q 7.296875 40.90625 10.375 44.28125  Q 13.453125 47.65625 17.875 49.59375  Q 22.296875 51.546875 27.84375 51.546875  z M 28 44.59375  Q 21.75 44.59375 18.171875 40.96875  Q 14.59375 37.34375 13.703125 30.953125  L 40.65625 30.953125  Q 40.65625 33.953125 39.796875 36.453125  Q 38.953125 38.953125 37.328125 40.75  Q 35.703125 42.546875 33.34375 43.5625  Q 31 44.59375 28 44.59375  z "
             id="Lato-Medium-101" />
          <path
             d="M 28.453125 51.546875  Q 34.046875 51.546875 38.546875 49.71875  Q 43.046875 47.90625 46.1875 44.5  Q 49.34375 41.09375 51.046875 36.265625  Q 52.75 31.453125 52.75 25.453125  Q 52.75 19.453125 51.046875 14.59375  Q 49.34375 9.75 46.1875 6.34375  Q 43.046875 2.953125 38.546875 1.125  Q 34.046875 -0.703125 28.453125 -0.703125  Q 22.84375 -0.703125 18.3125 1.125  Q 13.796875 2.953125 10.625 6.34375  Q 7.453125 9.75 5.75 14.59375  Q 4.046875 19.453125 4.046875 25.453125  Q 4.046875 31.453125 5.75 36.265625  Q 7.453125 41.09375 10.625 44.5  Q 13.796875 47.90625 18.3125 49.71875  Q 22.84375 51.546875 28.453125 51.546875  z M 28.453125 6.703125  Q 35.75 6.703125 39.34375 11.59375  Q 42.953125 16.5 42.953125 25.40625  Q 42.953125 34.25 39.34375 39.203125  Q 35.75 44.15625 28.453125 44.15625  Q 21.046875 44.15625 17.421875 39.203125  Q 13.796875 34.25 13.796875 25.40625  Q 13.796875 16.5 17.421875 11.59375  Q 21.046875 6.703125 28.453125 6.703125  z "
             id="Lato-Medium-111" />
          <path
             d="M 16.65625 73.75  L 16.65625 0  L 7.15625 0  L 7.15625 73.75  z "
             id="Lato-Medium-108" />
          <path
             d="M 43.546875 0  Q 41.546875 0 41.046875 1.90625  L 40.203125 7.84375  Q 38.59375 5.90625 36.75 4.328125  Q 34.90625 2.75 32.796875 1.625  Q 30.703125 0.5 28.34375 -0.09375  Q 26 -0.703125 23.296875 -0.703125  Q 18.953125 -0.703125 15.421875 0.96875  Q 11.90625 2.65625 9.375 5.953125  Q 6.84375 9.25 5.5 14.078125  Q 4.15625 18.90625 4.15625 25.203125  Q 4.15625 30.84375 5.65625 35.671875  Q 7.15625 40.5 10 44.046875  Q 12.84375 47.59375 16.890625 49.625  Q 20.953125 51.65625 26.046875 51.65625  Q 30.65625 51.65625 33.921875 50.125  Q 37.203125 48.59375 39.75 45.84375  L 39.75 73.75  L 49.25 73.75  L 49.25 0  z M 26.40625 6.953125  Q 30.65625 6.953125 33.84375 8.875  Q 37.046875 10.796875 39.75 14.34375  L 39.75 38.546875  Q 37.34375 41.75 34.5 43.015625  Q 31.65625 44.296875 28.203125 44.296875  Q 21.34375 44.296875 17.640625 39.390625  Q 13.953125 34.5 13.953125 25.203125  Q 13.953125 20.34375 14.796875 16.890625  Q 15.65625 13.453125 17.25 11.21875  Q 18.84375 9 21.140625 7.96875  Q 23.453125 6.953125 26.40625 6.953125  z "
             id="Lato-Medium-100" />
          <path
             d="M 5.34375 5.75  Q 5.34375 7.09375 5.84375 8.265625  Q 6.34375 9.453125 7.1875 10.34375  Q 8.046875 11.25 9.25 11.75  Q 10.453125 12.25 11.796875 12.25  Q 13.15625 12.25 14.328125 11.75  Q 15.5 11.25 16.375 10.34375  Q 17.25 9.453125 17.75 8.265625  Q 18.25 7.09375 18.25 5.75  Q 18.25 4.34375 17.75 3.171875  Q 17.25 2 16.375 1.125  Q 15.5 0.25 14.328125 -0.25  Q 13.15625 -0.75 11.796875 -0.75  Q 10.453125 -0.75 9.25 -0.25  Q 8.046875 0.25 7.1875 1.125  Q 6.34375 2 5.84375 3.171875  Q 5.34375 4.34375 5.34375 5.75  z "
             id="Lato-Medium-46" />
          <path
             d="M 6.90625 0  L 6.90625 50.75  L 12.59375 50.75  Q 14.59375 50.75 15.09375 48.84375  L 15.75 43.90625  Q 18.546875 47.25 22 49.390625  Q 25.453125 51.546875 30.046875 51.546875  Q 35.15625 51.546875 38.296875 48.765625  Q 41.453125 46 42.84375 41.25  Q 43.953125 43.953125 45.703125 45.890625  Q 47.453125 47.84375 49.59375 49.09375  Q 51.75 50.34375 54.171875 50.9375  Q 56.59375 51.546875 59.09375 51.546875  Q 67.25 51.546875 71.703125 46.5625  Q 76.15625 41.59375 76.15625 32.34375  L 76.15625 0  L 66.65625 0  L 66.65625 32.34375  Q 66.65625 38.09375 64.125 41.046875  Q 61.59375 44 56.796875 44  Q 54.65625 44 52.71875 43.25  Q 50.796875 42.5 49.34375 41.046875  Q 47.90625 39.59375 47.046875 37.390625  Q 46.203125 35.203125 46.203125 32.34375  L 46.203125 0  L 36.703125 0  L 36.703125 32.34375  Q 36.703125 38.25 34.328125 41.125  Q 31.953125 44 27.34375 44  Q 24.203125 44 21.421875 42.328125  Q 18.65625 40.65625 16.40625 37.703125  L 16.40625 0  z "
             id="Lato-Medium-109" />
          <path
             d="M 39.34375 0  Q 37.953125 0 37.203125 0.453125  Q 36.453125 0.90625 36 2.203125  L 34.953125 6.75  Q 33 4.953125 31.09375 3.515625  Q 29.203125 2.09375 27.125 1.140625  Q 25.046875 0.203125 22.6875 -0.296875  Q 20.34375 -0.796875 17.453125 -0.796875  Q 14.453125 -0.796875 11.84375 0.015625  Q 9.25 0.84375 7.328125 2.546875  Q 5.40625 4.25 4.28125 6.765625  Q 3.15625 9.296875 3.15625 12.75  Q 3.15625 15.75 4.78125 18.5  Q 6.40625 21.25 10.078125 23.421875  Q 13.75 25.59375 19.671875 27  Q 25.59375 28.40625 34.25 28.59375  L 34.25 32.40625  Q 34.25 38.15625 31.765625 41.078125  Q 29.296875 44 24.5 44  Q 21.25 44 19.078125 43.171875  Q 16.90625 42.34375 15.328125 41.375  Q 13.75 40.40625 12.546875 39.59375  Q 11.34375 38.796875 10.15625 38.796875  Q 9.15625 38.796875 8.46875 39.3125  Q 7.796875 39.84375 7.296875 40.546875  L 5.59375 43.65625  Q 9.84375 47.65625 14.765625 49.65625  Q 19.703125 51.65625 25.65625 51.65625  Q 29.953125 51.65625 33.296875 50.25  Q 36.65625 48.84375 38.921875 46.3125  Q 41.203125 43.796875 42.375 40.25  Q 43.546875 36.703125 43.546875 32.40625  L 43.546875 0  z M 20.296875 5.84375  Q 22.546875 5.84375 24.46875 6.296875  Q 26.40625 6.75 28.078125 7.59375  Q 29.75 8.453125 31.25 9.671875  Q 32.75 10.90625 34.25 12.453125  L 34.25 22.65625  Q 28.25 22.453125 24.046875 21.703125  Q 19.84375 20.953125 17.21875 19.75  Q 14.59375 18.546875 13.390625 16.875  Q 12.203125 15.203125 12.203125 13.203125  Q 12.203125 11.25 12.828125 9.84375  Q 13.453125 8.453125 14.546875 7.578125  Q 15.65625 6.703125 17.125 6.265625  Q 18.59375 5.84375 20.296875 5.84375  z "
             id="Lato-Medium-97" />
          <path
             d="M 16.40625 73.75  L 16.40625 30.546875  L 18.703125 30.546875  Q 19.703125 30.546875 20.390625 30.84375  Q 21.09375 31.15625 21.84375 32  L 37.34375 48.90625  Q 38.046875 49.796875 38.875 50.265625  Q 39.703125 50.75 41 50.75  L 49.59375 50.75  L 31.40625 31.046875  Q 30 29.25 28.34375 28.25  Q 29.296875 27.65625 30.015625 26.796875  Q 30.75 25.953125 31.453125 24.953125  L 50.796875 0  L 42.296875 0  Q 41.15625 0 40.28125 0.390625  Q 39.40625 0.796875 38.75 1.84375  L 22.703125 22.34375  Q 21.953125 23.453125 21.21875 23.765625  Q 20.5 24.09375 19 24.09375  L 16.40625 24.09375  L 16.40625 0  L 6.90625 0  L 6.90625 73.75  z "
             id="Lato-Medium-107" />
          <path
             d="M 59.296875 9.25  Q 55.5 9.25 53.015625 11.078125  Q 50.546875 12.90625 49.796875 16.75  Q 46.90625 12.84375 43.5 11.125  Q 40.09375 9.40625 36.203125 9.40625  Q 33.203125 9.40625 30.96875 10.453125  Q 28.75 11.5 27.265625 13.328125  Q 25.796875 15.15625 25.0625 17.671875  Q 24.34375 20.203125 24.34375 23.15625  Q 24.34375 27.40625 25.96875 31.71875  Q 27.59375 36.046875 30.796875 39.515625  Q 34 43 38.796875 45.203125  Q 43.59375 47.40625 49.90625 47.40625  Q 53.34375 47.40625 55.921875 46.875  Q 58.5 46.34375 60.796875 45.34375  L 56.09375 27.203125  Q 55.15625 23.5 55.171875 21.171875  Q 55.203125 18.84375 55.890625 17.546875  Q 56.59375 16.25 57.875 15.765625  Q 59.15625 15.296875 60.703125 15.296875  Q 63.09375 15.296875 65.21875 16.6875  Q 67.34375 18.09375 68.96875 20.59375  Q 70.59375 23.09375 71.546875 26.625  Q 72.5 30.15625 72.5 34.453125  Q 72.5 41.296875 70.328125 46.4375  Q 68.15625 51.59375 64.328125 55.015625  Q 60.5 58.453125 55.265625 60.171875  Q 50.046875 61.90625 43.953125 61.90625  Q 37.25 61.90625 31.453125 59.375  Q 25.65625 56.84375 21.328125 52.375  Q 17 47.90625 14.515625 41.796875  Q 12.046875 35.703125 12.046875 28.546875  Q 12.046875 20.09375 14.6875 13.6875  Q 17.34375 7.296875 21.9375 2.96875  Q 26.546875 -1.34375 32.75 -3.515625  Q 38.953125 -5.703125 46.09375 -5.703125  Q 53.703125 -5.703125 59.5 -4.078125  Q 65.296875 -2.453125 69.453125 0.046875  Q 70.453125 0.65625 71.265625 0.421875  Q 72.09375 0.203125 72.453125 -0.796875  L 73.796875 -4.296875  Q 68.453125 -7.796875 61.578125 -9.890625  Q 54.703125 -12 46.09375 -12  Q 40.25 -12 34.953125 -10.75  Q 29.65625 -9.5 25.09375 -7.125  Q 20.546875 -4.75 16.84375 -1.25  Q 13.15625 2.25 10.546875 6.75  Q 7.953125 11.25 6.515625 16.71875  Q 5.09375 22.203125 5.09375 28.546875  Q 5.09375 33.953125 6.46875 39  Q 7.84375 44.046875 10.34375 48.4375  Q 12.84375 52.84375 16.375 56.46875  Q 19.90625 60.09375 24.21875 62.6875  Q 28.546875 65.296875 33.515625 66.71875  Q 38.5 68.15625 43.953125 68.15625  Q 48.546875 68.15625 52.96875 67.125  Q 57.40625 66.09375 61.34375 64.140625  Q 65.296875 62.203125 68.59375 59.296875  Q 71.90625 56.40625 74.296875 52.671875  Q 76.703125 48.953125 78.015625 44.375  Q 79.34375 39.796875 79.34375 34.453125  Q 79.34375 29.046875 77.8125 24.421875  Q 76.296875 19.796875 73.59375 16.421875  Q 70.90625 13.046875 67.21875 11.140625  Q 63.546875 9.25 59.296875 9.25  z M 38.09375 15.65625  Q 39.59375 15.65625 41.140625 16.125  Q 42.703125 16.59375 44.09375 17.8125  Q 45.5 19.046875 46.703125 21.09375  Q 47.90625 23.15625 48.75 26.296875  L 52.5 40.90625  Q 50.59375 41.34375 48.40625 41.34375  Q 44.796875 41.34375 41.71875 39.8125  Q 38.65625 38.296875 36.453125 35.765625  Q 34.25 33.25 33 30  Q 31.75 26.75 31.75 23.34375  Q 31.75 19.84375 33.34375 17.75  Q 34.953125 15.65625 38.09375 15.65625  z "
             id="Lato-Medium-64" />
          <path
             d="M 16.84375 50.75  L 16.84375 0  L 7.34375 0  L 7.34375 50.75  z M 18.703125 66.5  Q 18.703125 65.15625 18.171875 63.96875  Q 17.65625 62.796875 16.71875 61.890625  Q 15.796875 61 14.5625 60.46875  Q 13.34375 59.953125 12 59.953125  Q 10.703125 59.953125 9.515625 60.46875  Q 8.34375 61 7.4375 61.890625  Q 6.546875 62.796875 6.015625 63.96875  Q 5.5 65.15625 5.5 66.5  Q 5.5 67.84375 6.015625 69.0625  Q 6.546875 70.296875 7.4375 71.1875  Q 8.34375 72.09375 9.515625 72.625  Q 10.703125 73.15625 12 73.15625  Q 13.34375 73.15625 14.5625 72.625  Q 15.796875 72.09375 16.71875 71.1875  Q 17.65625 70.296875 18.171875 69.0625  Q 18.703125 67.84375 18.703125 66.5  z "
             id="Lato-Medium-105" />
          <path
             d="M 24.703125 51.59375  Q 28 51.59375 30.828125 50.875  Q 33.65625 50.15625 36.046875 48.796875  L 50.046875 48.796875  L 50.046875 45.296875  Q 50.046875 43.5 47.84375 43.046875  L 42.296875 42.25  Q 43.84375 39.046875 43.84375 35.25  Q 43.84375 31.5 42.421875 28.5  Q 41 25.5 38.453125 23.34375  Q 35.90625 21.203125 32.375 20.046875  Q 28.84375 18.90625 24.703125 18.90625  Q 21.203125 18.90625 18.203125 19.65625  Q 15.046875 17.75 15.046875 15.453125  Q 15.046875 13.703125 16.515625 12.828125  Q 18 11.953125 20.390625 11.546875  Q 22.796875 11.15625 25.84375 11.046875  Q 28.90625 10.953125 32.09375 10.71875  Q 35.296875 10.5 38.34375 9.953125  Q 41.40625 9.40625 43.796875 8.125  Q 46.203125 6.84375 47.671875 4.640625  Q 49.15625 2.453125 49.15625 -1.09375  Q 49.15625 -4.40625 47.53125 -7.46875  Q 45.90625 -10.546875 42.828125 -12.921875  Q 39.75 -15.296875 35.296875 -16.75  Q 30.84375 -18.203125 25.25 -18.203125  Q 19.65625 -18.203125 15.46875 -17.09375  Q 11.296875 -16 8.515625 -14.140625  Q 5.75 -12.296875 4.375 -9.875  Q 3 -7.453125 3 -4.796875  Q 3 -1.046875 5.328125 1.515625  Q 7.65625 4.09375 11.703125 5.546875  Q 9.453125 6.546875 8.140625 8.265625  Q 6.84375 10 6.84375 12.84375  Q 6.84375 13.953125 7.25 15.125  Q 7.65625 16.296875 8.46875 17.46875  Q 9.296875 18.65625 10.515625 19.703125  Q 11.75 20.75 13.34375 21.546875  Q 9.59375 23.65625 7.4375 27.125  Q 5.296875 30.59375 5.296875 35.25  Q 5.296875 39 6.75 42  Q 8.203125 45 10.765625 47.140625  Q 13.34375 49.296875 16.890625 50.4375  Q 20.453125 51.59375 24.703125 51.59375  z M 40.40625 -2.65625  Q 40.40625 -0.84375 39.375 0.25  Q 38.34375 1.34375 36.59375 2  Q 34.84375 2.65625 32.546875 2.90625  Q 30.25 3.15625 27.703125 3.296875  Q 25.15625 3.453125 22.46875 3.59375  Q 19.796875 3.75 17.34375 4.09375  Q 14.65625 2.796875 12.953125 0.890625  Q 11.25 -1 11.25 -3.546875  Q 11.25 -5.203125 12.09375 -6.625  Q 12.953125 -8.046875 14.671875 -9.0625  Q 16.40625 -10.09375 19.078125 -10.6875  Q 21.75 -11.296875 25.40625 -11.296875  Q 29 -11.296875 31.796875 -10.640625  Q 34.59375 -10 36.5 -8.84375  Q 38.40625 -7.703125 39.40625 -6.125  Q 40.40625 -4.546875 40.40625 -2.65625  z M 24.703125 25.15625  Q 27.34375 25.15625 29.34375 25.875  Q 31.34375 26.59375 32.6875 27.890625  Q 34.046875 29.203125 34.71875 31  Q 35.40625 32.796875 35.40625 35  Q 35.40625 39.5 32.671875 42.171875  Q 29.953125 44.84375 24.703125 44.84375  Q 19.453125 44.84375 16.71875 42.171875  Q 14 39.5 14 35  Q 14 32.84375 14.703125 31.046875  Q 15.40625 29.25 16.75 27.921875  Q 18.09375 26.59375 20.09375 25.875  Q 22.09375 25.15625 24.703125 25.15625  z "
             id="Lato-Medium-103" />
          <path
             d="M 6.90625 0  L 6.90625 50.75  L 12.34375 50.75  Q 13.90625 50.75 14.46875 50.203125  Q 15.046875 49.65625 15.25 48.203125  L 15.84375 40.796875  Q 18.25 45.84375 21.75 48.75  Q 25.25 51.65625 30.15625 51.65625  Q 31.796875 51.65625 33.265625 51.296875  Q 34.75 50.953125 35.84375 50.203125  L 35.203125 43.09375  Q 34.90625 41.75 33.59375 41.75  Q 32.90625 41.75 31.53125 42.046875  Q 30.15625 42.34375 28.5 42.34375  Q 26.15625 42.34375 24.328125 41.640625  Q 22.5 40.953125 21.046875 39.59375  Q 19.59375 38.25 18.46875 36.296875  Q 17.34375 34.34375 16.40625 31.84375  L 16.40625 0  z "
             id="Lato-Medium-114" />
          <path
             d="M 15.90625 50.75  L 15.90625 18.40625  Q 15.90625 12.90625 18.453125 9.828125  Q 21 6.75 26.203125 6.75  Q 30 6.75 33.328125 8.515625  Q 36.65625 10.296875 39.5 13.453125  L 39.5 50.75  L 49 50.75  L 49 0  L 43.296875 0  Q 41.296875 0 40.796875 1.90625  L 40.046875 7.15625  Q 36.75 3.59375 32.71875 1.390625  Q 28.703125 -0.796875 23.40625 -0.796875  Q 19.203125 -0.796875 16.015625 0.59375  Q 12.84375 2 10.71875 4.515625  Q 8.59375 7.046875 7.5 10.5625  Q 6.40625 14.09375 6.40625 18.40625  L 6.40625 50.75  z "
             id="Lato-Medium-117" />
        </defs>
        <g
           style="fill:#262626;"
           transform="translate(-1.593 25.776563)scale(0.28 -0.28)"
           id="g72">
          <g
             style="font-style:normal;font-weight:normal;font-size:107.143px;line-height:1.25;font-family:sans-serif;white-space:pre;shape-inside:url(#rect54);fill:#000000;fill-opacity:1;stroke:none;stroke-linecap:butt;stroke-linejoin:round"
             id="text52" />
          <g
             style="font-style:normal;font-variant:normal;font-weight:500;font-stretch:normal;font-size:100px;line-height:1.25;font-family:Lato;-inkscape-font-specification:'Lato, Medium';font-variant-ligatures:normal;font-variant-caps:normal;font-variant-numeric:normal;font-variant-east-asian:normal;letter-spacing:0.348214px;fill:#262626;fill-opacity:0.992157;stroke:none;stroke-width:2.67857;stroke-linecap:butt;stroke-linejoin:round"
             id="text60"
             transform="scale(1,-1)"
             aria-label="vorontsov.i.e@gmail.com">
            <path
               id="path904"
               style="font-style:normal;font-variant:normal;font-weight:500;font-stretch:normal;font-size:100px;font-family:Lato;-inkscape-font-specification:'Lato, Medium';font-variant-ligatures:normal;font-variant-caps:normal;font-variant-numeric:normal;font-variant-east-asian:normal;fill:#262626;fill-opacity:0.992157;stroke-width:2.67857;stroke-linecap:butt;stroke-linejoin:round"
               d="m 35.631581,-0.28577986 h -8.6 L 6.4315815,-51.03578 h 7.7999995 q 1.15,0 1.85,0.55 0.75,0.55 1,1.35 l 12.4,31.65 q 0.65,1.9 1.1,3.8 0.45,1.85 0.85,3.7000001 0.4,-1.8500001 0.85,-3.7000001 0.5,-1.85 1.2,-3.8 l 12.55,-31.65 q 0.25,-0.85 1,-1.35 0.75,-0.55 1.75,-0.55 h 7.45 z" />
            <path
               id="path906"
               style="font-style:normal;font-variant:normal;font-weight:500;font-stretch:normal;font-size:100px;font-family:Lato;-inkscape-font-specification:'Lato, Medium';font-variant-ligatures:normal;font-variant-caps:normal;font-variant-numeric:normal;font-variant-east-asian:normal;fill:#262626;fill-opacity:0.992157;stroke-width:2.67857;stroke-linecap:butt;stroke-linejoin:round"
               d="m 84.62042,-51.83578 q 5.6,0 10.1,1.85 4.5,1.8 7.65,5.2 3.15,3.4 4.85,8.25 1.7,4.8 1.7,10.8 0,6 -1.7,10.85 -1.7,4.85 -4.85,8.2500001 -3.15,3.4 -7.65,5.25 -4.5,1.80000004 -10.1,1.80000004 -5.6,0 -10.15,-1.80000004 -4.5,-1.85 -7.7,-5.25 -3.15,-3.4000001 -4.85,-8.2500001 -1.7,-4.85 -1.7,-10.85 0,-6 1.7,-10.8 1.7,-4.85 4.85,-8.25 3.2,-3.4 7.7,-5.2 4.55,-1.85 10.15,-1.85 z m 0,44.8500001 q 7.3,0 10.9,-4.9000001 3.6,-4.9 3.6,-13.8 0,-8.85 -3.6,-13.8 -3.6,-4.95 -10.9,-4.95 -7.4,0 -11.05,4.95 -3.6,4.95 -3.6,13.8 0,8.9 3.6,13.8 3.65,4.9000001 11.05,4.9000001 z" />
            <path
               id="path908"
               style="font-style:normal;font-variant:normal;font-weight:500;font-stretch:normal;font-size:100px;font-family:Lato;-inkscape-font-specification:'Lato, Medium';font-variant-ligatures:normal;font-variant-caps:normal;font-variant-numeric:normal;font-variant-east-asian:normal;fill:#262626;fill-opacity:0.992157;stroke-width:2.67857;stroke-linecap:butt;stroke-linejoin:round"
               d="M 120.25457,-0.28577986 V -51.03578 h 5.45 q 1.55,0 2.1,0.55 0.6,0.55 0.8,2 l 0.6,7.4 q 2.4,-5.05 5.9,-7.95 3.5,-2.9 8.4,-2.9 1.65,0 3.1,0.35 1.5,0.35 2.6,1.1 l -0.65,7.1 q -0.3,1.35 -1.6,1.35 -0.7,0 -2.1,-0.3 -1.35,-0.3 -3,-0.3 -2.35,0 -4.2,0.7 -1.8,0.7 -3.25,2.05 -1.45,1.35 -2.6,3.3 -1.1,1.95 -2.05,4.45 v 31.85000014 z" />
            <path
               id="path910"
               style="font-style:normal;font-variant:normal;font-weight:500;font-stretch:normal;font-size:100px;font-family:Lato;-inkscape-font-specification:'Lato, Medium';font-variant-ligatures:normal;font-variant-caps:normal;font-variant-numeric:normal;font-variant-east-asian:normal;fill:#262626;fill-opacity:0.992157;stroke-width:2.67857;stroke-linecap:butt;stroke-linejoin:round"
               d="m 176.7231,-51.83578 q 5.6,0 10.1,1.85 4.5,1.8 7.65,5.2 3.15,3.4 4.85,8.25 1.7,4.8 1.7,10.8 0,6 -1.7,10.85 -1.7,4.85 -4.85,8.2500001 -3.15,3.4 -7.65,5.25 -4.5,1.80000004 -10.1,1.80000004 -5.6,0 -10.15,-1.80000004 -4.5,-1.85 -7.7,-5.25 -3.15,-3.4000001 -4.85,-8.2500001 -1.7,-4.85 -1.7,-10.85 0,-6 1.7,-10.8 1.7,-4.85 4.85,-8.25 3.2,-3.4 7.7,-5.2 4.55,-1.85 10.15,-1.85 z m 0,44.8500001 q 7.3,0 10.9,-4.9000001 3.6,-4.9 3.6,-13.8 0,-8.85 -3.6,-13.8 -3.6,-4.95 -10.9,-4.95 -7.4,0 -11.05,4.95 -3.6,4.95 -3.6,13.8 0,8.9 3.6,13.8 3.65,4.9000001 11.05,4.9000001 z" />
            <path
               id="path912"
               style="font-style:normal;font-variant:normal;font-weight:500;font-stretch:normal;font-size:100px;font-family:Lato;-inkscape-font-specification:'Lato, Medium';font-variant-ligatures:normal;font-variant-caps:normal;font-variant-numeric:normal;font-variant-east-asian:normal;fill:#262626;fill-opacity:0.992157;stroke-width:2.67857;stroke-linecap:butt;stroke-linejoin:round"
               d="M 212.35725,-0.28577986 V -51.03578 h 5.7 q 2,0 2.5,1.9 l 0.7,5.25 q 3.3,-3.55 7.35,-5.75 4.05,-2.2 9.35,-2.2 4.15,0 7.3,1.4 3.2,1.4 5.35,3.95 2.15,2.5 3.25,6.05 1.1,3.5 1.1,7.8 v 32.35000014 h -9.5 V -32.63578 q 0,-5.5 -2.55,-8.55 -2.55,-3.1 -7.75,-3.1 -3.85,0 -7.15,1.8 -3.3,1.8 -6.15,4.95 v 37.25000014 z" />
            <path
               id="path914"
               style="font-style:normal;font-variant:normal;font-weight:500;font-stretch:normal;font-size:100px;font-family:Lato;-inkscape-font-specification:'Lato, Medium';font-variant-ligatures:normal;font-variant-caps:normal;font-variant-numeric:normal;font-variant-east-asian:normal;fill:#262626;fill-opacity:0.992157;stroke-width:2.67857;stroke-linecap:butt;stroke-linejoin:round"
               d="m 283.58359,0.51422014 q -6.1,0 -9.4,-3.40000004 -3.3,-3.4 -3.3,-9.8000001 v -30.6 h -5.95 q -0.85,0 -1.4,-0.5 -0.55,-0.55 -0.55,-1.55 v -3.8 l 8.25,-1.1 2.15,-15.35 q 0.2,-0.8 0.75,-1.25 0.55,-0.5 1.45,-0.5 h 4.8 v 17.15 h 14.45 v 6.9 h -14.45 v 29.95 q 0,3.05 1.45,4.6000001 1.5,1.5 3.9,1.5 1.35,0 2.35,-0.35 1,-0.35 1.7,-0.8 0.7,-0.45 1.2,-0.8 0.55,-0.35 0.95,-0.35 0.45,0 0.7,0.2 0.3,0.2 0.6,0.7 l 2.8,4.55 q -2.4,2.2 -5.7,3.40000004 -3.25,1.2 -6.75,1.2 z" />
            <path
               id="path916"
               style="font-style:normal;font-variant:normal;font-weight:500;font-stretch:normal;font-size:100px;font-family:Lato;-inkscape-font-specification:'Lato, Medium';font-variant-ligatures:normal;font-variant-caps:normal;font-variant-numeric:normal;font-variant-east-asian:normal;fill:#262626;fill-opacity:0.992157;stroke-width:2.67857;stroke-linecap:butt;stroke-linejoin:round"
               d="m 334.06463,-42.43578 q -0.7,1.2 -1.95,1.2 -0.8,0 -1.8,-0.55 -0.95,-0.55 -2.3,-1.2 -1.35,-0.7 -3.25,-1.25 -1.85,-0.55 -4.4,-0.55 -2.15,0 -3.9,0.55 -1.75,0.55 -3,1.5 -1.2,0.95 -1.9,2.25 -0.65,1.25 -0.65,2.75 0,1.9 1.1,3.2 1.15,1.25 2.95,2.2 1.85,0.9 4.2,1.65 2.35,0.7 4.8,1.5 2.45,0.8 4.8,1.85 2.35,1 4.15,2.5 1.85,1.5 2.95,3.7 1.15,2.15 1.15,5.2 0,3.55 -1.3,6.5500001 -1.25,3 -3.75,5.2 -2.45,2.2 -6.05,3.45000004 -3.6,1.25 -8.3,1.25 -5.3,0 -9.7,-1.75000004 -4.35,-1.75 -7.35,-4.45 l 2.2,-3.6 q 0.4,-0.7 1,-1.0500001 0.6,-0.4 1.5,-0.4 0.95,0 1.95,0.7 1,0.7000001 2.4,1.5500001 1.45,0.8 3.45,1.5 2.05,0.7 5.05,0.7 2.55,0 4.4,-0.65 1.9,-0.65 3.15,-1.7 1.25,-1.1 1.85,-2.5500001 0.6,-1.45 0.6,-3.05 0,-2.05 -1.15,-3.4 -1.1,-1.35 -2.95,-2.3 -1.8,-0.95 -4.15,-1.65 -2.35,-0.7 -4.85,-1.5 -2.45,-0.8 -4.8,-1.8 -2.35,-1.05 -4.2,-2.65 -1.8,-1.6 -2.95,-3.85 -1.1,-2.3 -1.1,-5.6 0,-2.95 1.2,-5.65 1.2,-2.7 3.5,-4.75 2.35,-2.05 5.75,-3.25 3.4,-1.2 7.75,-1.2 5,0 9.05,1.6 4.1,1.55 6.95,4.35 z" />
            <path
               id="path918"
               style="font-style:normal;font-variant:normal;font-weight:500;font-stretch:normal;font-size:100px;font-family:Lato;-inkscape-font-specification:'Lato, Medium';font-variant-ligatures:normal;font-variant-caps:normal;font-variant-numeric:normal;font-variant-east-asian:normal;fill:#262626;fill-opacity:0.992157;stroke-width:2.67857;stroke-linecap:butt;stroke-linejoin:round"
               d="m 369.52221,-51.83578 q 5.6,0 10.1,1.85 4.5,1.8 7.65,5.2 3.15,3.4 4.85,8.25 1.7,4.8 1.7,10.8 0,6 -1.7,10.85 -1.7,4.85 -4.85,8.2500001 -3.15,3.4 -7.65,5.25 -4.5,1.80000004 -10.1,1.80000004 -5.6,0 -10.15,-1.80000004 -4.5,-1.85 -7.7,-5.25 -3.15,-3.4000001 -4.85,-8.2500001 -1.7,-4.85 -1.7,-10.85 0,-6 1.7,-10.8 1.7,-4.85 4.85,-8.25 3.2,-3.4 7.7,-5.2 4.55,-1.85 10.15,-1.85 z m 0,44.8500001 q 7.3,0 10.9,-4.9000001 3.6,-4.9 3.6,-13.8 0,-8.85 -3.6,-13.8 -3.6,-4.95 -10.9,-4.95 -7.4,0 -11.05,4.95 -3.6,4.95 -3.6,13.8 0,8.9 3.6,13.8 3.65,4.9000001 11.05,4.9000001 z" />
            <path
               id="path920"
               style="font-style:normal;font-variant:normal;font-weight:500;font-stretch:normal;font-size:100px;font-family:Lato;-inkscape-font-specification:'Lato, Medium';font-variant-ligatures:normal;font-variant-caps:normal;font-variant-numeric:normal;font-variant-east-asian:normal;fill:#262626;fill-opacity:0.992157;stroke-width:2.67857;stroke-linecap:butt;stroke-linejoin:round"
               d="m 427.08916,-0.28577986 h -8.6 l -20.6,-50.75000014 h 7.8 q 1.15,0 1.85,0.55 0.75,0.55 1,1.35 l 12.4,31.65 q 0.65,1.9 1.1,3.8 0.45,1.85 0.85,3.7000001 0.4,-1.8500001 0.85,-3.7000001 0.5,-1.85 1.2,-3.8 l 12.55,-31.65 q 0.25,-0.85 1,-1.35 0.75,-0.55 1.75,-0.55 h 7.45 z" />
            <path
               id="path922"
               style="font-style:normal;font-variant:normal;font-weight:500;font-stretch:normal;font-size:100px;font-family:Lato;-inkscape-font-specification:'Lato, Medium';font-variant-ligatures:normal;font-variant-caps:normal;font-variant-numeric:normal;font-variant-east-asian:normal;fill:#262626;fill-opacity:0.992157;stroke-width:2.67857;stroke-linecap:butt;stroke-linejoin:round"
               d="m 451.02487,-6.0357799 q 0,-1.35 0.5,-2.5 0.5,-1.2 1.35,-2.1000001 0.85,-0.9 2.05,-1.4 1.2,-0.5 2.55,-0.5 1.35,0 2.5,0.5 1.2,0.5 2.05,1.4 0.9,0.9000001 1.4,2.1000001 0.5,1.15 0.5,2.5 0,1.4 -0.5,2.6 -0.5,1.15 -1.4,2.05 -0.85,0.85000004 -2.05,1.35000004 -1.15,0.5 -2.5,0.5 -1.35,0 -2.55,-0.5 -1.2,-0.5 -2.05,-1.35000004 -0.85,-0.9 -1.35,-2.05 -0.5,-1.2 -0.5,-2.6 z" />
            <path
               id="path924"
               style="font-style:normal;font-variant:normal;font-weight:500;font-stretch:normal;font-size:100px;font-family:Lato;-inkscape-font-specification:'Lato, Medium';font-variant-ligatures:normal;font-variant-caps:normal;font-variant-numeric:normal;font-variant-east-asian:normal;fill:#262626;fill-opacity:0.992157;stroke-width:2.67857;stroke-linecap:butt;stroke-linejoin:round"
               d="m 486.50592,-51.03578 v 50.75000014 h -9.5 V -51.03578 Z m 1.85,-15.75 q 0,1.35 -0.55,2.55 -0.5,1.15 -1.45,2.05 -0.9,0.9 -2.15,1.45 -1.2,0.5 -2.55,0.5 -1.3,0 -2.5,-0.5 -1.15,-0.55 -2.05,-1.45 -0.9,-0.9 -1.45,-2.05 -0.5,-1.2 -0.5,-2.55 0,-1.35 0.5,-2.55 0.55,-1.25 1.45,-2.15 0.9,-0.9 2.05,-1.4 1.2,-0.55 2.5,-0.55 1.35,0 2.55,0.55 1.25,0.5 2.15,1.4 0.95,0.9 1.45,2.15 0.55,1.2 0.55,2.55 z" />
            <path
               id="path926"
               style="font-style:normal;font-variant:normal;font-weight:500;font-stretch:normal;font-size:100px;font-family:Lato;-inkscape-font-specification:'Lato, Medium';font-variant-ligatures:normal;font-variant-caps:normal;font-variant-numeric:normal;font-variant-east-asian:normal;fill:#262626;fill-opacity:0.992157;stroke-width:2.67857;stroke-linecap:butt;stroke-linejoin:round"
               d="m 499.57287,-6.0357799 q 0,-1.35 0.5,-2.5 0.5,-1.2 1.35,-2.1000001 0.85,-0.9 2.05,-1.4 1.2,-0.5 2.55,-0.5 1.35,0 2.5,0.5 1.2,0.5 2.05,1.4 0.9,0.9000001 1.4,2.1000001 0.5,1.15 0.5,2.5 0,1.4 -0.5,2.6 -0.5,1.15 -1.4,2.05 -0.85,0.85000004 -2.05,1.35000004 -1.15,0.5 -2.5,0.5 -1.35,0 -2.55,-0.5 -1.2,-0.5 -2.05,-1.35000004 -0.85,-0.9 -1.35,-2.05 -0.5,-1.2 -0.5,-2.6 z" />
            <path
               id="path928"
               style="font-style:normal;font-variant:normal;font-weight:500;font-stretch:normal;font-size:100px;font-family:Lato;-inkscape-font-specification:'Lato, Medium';font-variant-ligatures:normal;font-variant-caps:normal;font-variant-numeric:normal;font-variant-east-asian:normal;fill:#262626;fill-opacity:0.992157;stroke-width:2.67857;stroke-linecap:butt;stroke-linejoin:round"
               d="m 546.05392,-51.83578 q 4.6,0 8.5,1.55 3.9,1.5 6.75,4.4 2.85,2.9 4.45,7.15 1.6,4.2 1.6,9.65 0,2.2 -0.5,2.95 -0.45,0.75 -1.75,0.75 h -33.5 q 0.15,4.65 1.3,8.1 1.2,3.45 3.2,5.75 2.05,2.2500001 4.9,3.4000001 2.85,1.1 6.35,1.1 3.3,0 5.65,-0.75 2.4,-0.75 4.1,-1.65 1.75,-0.9000001 2.95,-1.6500001 1.2,-0.75 2.1,-0.75 1.2,0 1.75,0.9 l 2.7,3.4500001 q -1.75,2.1 -4.05,3.6 -2.3,1.45 -4.95,2.45 -2.65,0.95000004 -5.5,1.40000004 -2.8,0.45 -5.55,0.45 -5.25,0 -9.75,-1.75000004 -4.45,-1.8 -7.7,-5.2 -3.25,-3.45 -5.1,-8.5000001 -1.8,-5.1 -1.8,-11.7 0,-5.3 1.65,-9.85 1.65,-4.6 4.7,-7.95 3.1,-3.4 7.5,-5.35 4.45,-1.95 10,-1.95 z m 0.15,6.95 q -6.25,0 -9.85,3.65 -3.55,3.6 -4.45,10 h 26.95 q 0,-3 -0.85,-5.5 -0.85,-2.5 -2.5,-4.3 -1.6,-1.8 -3.95,-2.8 -2.35,-1.05 -5.35,-1.05 z" />
            <path
               id="path930"
               style="font-style:normal;font-variant:normal;font-weight:500;font-stretch:normal;font-size:100px;font-family:Lato;-inkscape-font-specification:'Lato, Medium';font-variant-ligatures:normal;font-variant-caps:normal;font-variant-numeric:normal;font-variant-east-asian:normal;fill:#262626;fill-opacity:0.992157;stroke-width:2.67857;stroke-linecap:butt;stroke-linejoin:round"
               d="m 630.78181,-9.5357799 q -3.8,0 -6.3,-1.8000001 -2.45,-1.85 -3.2,-5.7 -2.9,3.9 -6.3,5.65 -3.4,1.7000001 -7.3,1.7000001 -3,0 -5.25,-1.0500001 -2.2,-1.05 -3.7,-2.85 -1.45,-1.85 -2.2,-4.35 -0.7,-2.55 -0.7,-5.5 0,-4.25 1.6,-8.55 1.65,-4.35 4.85,-7.8 3.2,-3.5 8,-5.7 4.8,-2.2 11.1,-2.2 3.45,0 6,0.55 2.6,0.5 4.9,1.5 l -4.7,18.15 q -0.95,3.7 -0.95,6.05 0.05,2.3 0.75,3.6 0.7,1.3 1.95,1.8 1.3,0.45 2.85,0.45 2.4,0 4.5,-1.4 2.15,-1.4 3.75,-3.9 1.65,-2.5 2.6,-6 0.95,-3.55 0.95,-7.85 0,-6.85 -2.2,-12 -2.15,-5.15 -6,-8.55 -3.8,-3.45 -9.05,-5.15 -5.2,-1.75 -11.3,-1.75 -6.7,0 -12.5,2.55 -5.8,2.5 -10.15,7 -4.3,4.45 -6.8,10.55 -2.45,6.1 -2.45,13.25 0,8.45 2.65,14.85 2.65,6.4000001 7.25,10.7500001 4.6,4.3 10.8,6.45 6.2,2.2 13.35,2.2 7.6,0 13.4,-1.65 5.8,-1.6 9.95,-4.09999996 1,-0.6 1.8,-0.35 0.85,0.2 1.2,1.2 l 1.35,3.49999996 q -5.35,3.5 -12.25,5.6 -6.85,2.0999999 -15.45,2.0999999 -5.85,0 -11.15,-1.25 -5.3,-1.2499999 -9.85,-3.6499999 -4.55,-2.35 -8.25,-5.84999996 -3.7,-3.50000004 -6.3,-8.00000004 -2.6,-4.5000001 -4.05,-9.9500001 -1.4,-5.5 -1.4,-11.85 0,-5.4 1.35,-10.45 1.4,-5.05 3.9,-9.45 2.5,-4.4 6,-8 3.55,-3.65 7.85,-6.25 4.35,-2.6 9.3,-4 5,-1.45 10.45,-1.45 4.6,0 9,1.05 4.45,1 8.4,2.95 3.95,1.95 7.25,4.85 3.3,2.9 5.7,6.65 2.4,3.7 3.7,8.3 1.35,4.55 1.35,9.9 0,5.4 -1.55,10.05 -1.5,4.6 -4.2,8 -2.7,3.35 -6.4,5.25 -3.65,1.9000001 -7.9,1.9000001 z m -21.2,-6.4000001 q 1.5,0 3.05,-0.45 1.55,-0.5 2.95,-1.7 1.4,-1.25 2.6,-3.3 1.2,-2.05 2.05,-5.2 l 3.75,-14.6 q -1.9,-0.45 -4.1,-0.45 -3.6,0 -6.7,1.55 -3.05,1.5 -5.25,4.05 -2.2,2.5 -3.45,5.75 -1.25,3.25 -1.25,6.65 0,3.5 1.6,5.6 1.6,2.1 4.75,2.1 z" />
            <path
               id="path932"
               style="font-style:normal;font-variant:normal;font-weight:500;font-stretch:normal;font-size:100px;font-family:Lato;-inkscape-font-specification:'Lato, Medium';font-variant-ligatures:normal;font-variant-caps:normal;font-variant-numeric:normal;font-variant-east-asian:normal;fill:#262626;fill-opacity:0.992157;stroke-width:2.67857;stroke-linecap:butt;stroke-linejoin:round"
               d="m 680.31908,-51.88578 q 3.3,0 6.1,0.75 2.85,0.7 5.25,2.05 h 14 v 3.5 q 0,1.8 -2.2,2.25 l -5.55,0.8 q 1.55,3.2 1.55,7 0,3.75 -1.45,6.75 -1.4,3 -3.95,5.15 -2.55,2.15 -6.1,3.3 -3.5,1.15 -7.65,1.15 -3.5,0 -6.5,-0.75 -3.15,1.9 -3.15,4.2 0,1.75 1.45,2.65 1.5,0.85 3.9,1.25 2.4,0.4 5.45,0.5 3.05,0.1 6.25,0.35 3.2,0.2 6.25,0.75 3.05,0.5500001 5.45,1.8500001 2.4,1.25 3.85,3.45 1.5,2.2 1.5,5.75000004 0,3.29999996 -1.65,6.34999996 -1.6,3.0999999 -4.7,5.4499999 -3.05,2.4 -7.5,3.85 -4.45,1.45 -10.05,1.45 -5.6,0 -9.8,-1.1 -4.15,-1.1 -6.95,-2.95 -2.75,-1.85 -4.15,-4.2999999 -1.35,-2.4 -1.35,-5.05 0,-3.74999996 2.3,-6.3 2.35,-2.6 6.4,-4.05 -2.25,-1 -3.55,-2.7 -1.3,-1.7500001 -1.3,-4.6000001 0,-1.1 0.4,-2.25 0.4,-1.2 1.2,-2.35 0.85,-1.2 2.05,-2.25 1.25,-1.05 2.85,-1.85 -3.75,-2.1 -5.9,-5.55 -2.15,-3.5 -2.15,-8.15 0,-3.75 1.45,-6.75 1.45,-3 4,-5.15 2.6,-2.15 6.15,-3.3 3.55,-1.15 7.8,-1.15 z m 15.7,54.2500001 q 0,-1.79999996 -1.05,-2.89999996 -1,-1.10000004 -2.75,-1.75000004 -1.75,-0.65 -4.05,-0.9 -2.3,-0.25 -4.85,-0.4 -2.55,-0.15 -5.25,-0.3 -2.65,-0.15 -5.1,-0.5 -2.7,1.3 -4.4,3.2 -1.7,1.90000004 -1.7,4.45 0,1.65 0.85,3.05 0.85,1.45 2.55,2.45 1.75,1.05 4.4,1.6499999 2.7,0.6 6.35,0.6 3.6,0 6.4,-0.65 2.8,-0.6499999 4.7,-1.7999999 1.9,-1.15 2.9,-2.75 1,-1.55 1,-3.45 z m -15.7,-27.8000001 q 2.65,0 4.65,-0.7 2,-0.75 3.35,-2.05 1.35,-1.3 2,-3.1 0.7,-1.8 0.7,-4 0,-4.5 -2.75,-7.15 -2.7,-2.7 -7.95,-2.7 -5.25,0 -8,2.7 -2.7,2.65 -2.7,7.15 0,2.15 0.7,3.95 0.7,1.8 2.05,3.15 1.35,1.3 3.35,2.05 2,0.7 4.6,0.7 z" />
            <path
               id="path934"
               style="font-style:normal;font-variant:normal;font-weight:500;font-stretch:normal;font-size:100px;font-family:Lato;-inkscape-font-specification:'Lato, Medium';font-variant-ligatures:normal;font-variant-caps:normal;font-variant-numeric:normal;font-variant-east-asian:normal;fill:#262626;fill-opacity:0.992157;stroke-width:2.67857;stroke-linecap:butt;stroke-linejoin:round"
               d="M 715.01572,-0.28577986 V -51.03578 h 5.7 q 2,0 2.5,1.9 l 0.65,4.95 q 2.8,-3.35 6.25,-5.5 3.45,-2.15 8.05,-2.15 5.1,0 8.25,2.8 3.15,2.75 4.55,7.5 1.1,-2.7 2.85,-4.65 1.75,-1.95 3.9,-3.2 2.15,-1.25 4.55,-1.85 2.45,-0.6 4.95,-0.6 8.15,0 12.6,5 4.45,4.95 4.45,14.2 v 32.35000014 h -9.5 V -32.63578 q 0,-5.75 -2.55,-8.7 -2.5,-2.95 -7.3,-2.95 -2.15,0 -4.1,0.75 -1.9,0.75 -3.35,2.2 -1.45,1.45 -2.3,3.65 -0.85,2.2 -0.85,5.05 v 32.35000014 h -9.5 V -32.63578 q 0,-5.9 -2.4,-8.75 -2.35,-2.9 -6.95,-2.9 -3.15,0 -5.95,1.7 -2.75,1.65 -5,4.6 v 37.70000014 z" />
            <path
               id="path936"
               style="font-style:normal;font-variant:normal;font-weight:500;font-stretch:normal;font-size:100px;font-family:Lato;-inkscape-font-specification:'Lato, Medium';font-variant-ligatures:normal;font-variant-caps:normal;font-variant-numeric:normal;font-variant-east-asian:normal;fill:#262626;fill-opacity:0.992157;stroke-width:2.67857;stroke-linecap:butt;stroke-linejoin:round"
               d="m 830.23581,-0.28577986 q -1.4,0 -2.15,-0.45 -0.75,-0.45000004 -1.2,-1.75000004 l -1.05,-4.55 q -1.95,1.8 -3.85,3.25 -1.9,1.4 -4,2.35 -2.05,0.95000004 -4.4,1.45000004 -2.35,0.5 -5.25,0.5 -3,0 -5.6,-0.8 -2.6,-0.85000004 -4.55,-2.55000004 -1.9,-1.7 -3.05,-4.2 -1.1,-2.55 -1.1,-6.0000001 0,-3 1.6,-5.75 1.65,-2.75 5.3,-4.9 3.7,-2.2 9.6,-3.6 5.95,-1.4 14.6,-1.6 v -3.8 q 0,-5.75 -2.5,-8.65 -2.45,-2.95 -7.25,-2.95 -3.25,0 -5.45,0.85 -2.15,0.8 -3.75,1.8 -1.55,0.95 -2.75,1.75 -1.2,0.8 -2.4,0.8 -1,0 -1.7,-0.5 -0.65,-0.55 -1.15,-1.25 l -1.7,-3.1 q 4.25,-4 9.15,-6 4.95,-2 10.9,-2 4.3,0 7.65,1.4 3.35,1.4 5.6,3.95 2.3,2.5 3.45,6.05 1.2,3.55 1.2,7.85 v 32.40000014 z m -19.05,-5.85000004 q 2.25,0 4.15,-0.45 1.95,-0.45 3.6,-1.3 1.7,-0.85 3.2,-2.05 1.5,-1.2500001 3,-2.8000001 v -10.2 q -6,0.2 -10.2,0.95 -4.2,0.75 -6.85,1.95 -2.6,1.2 -3.8,2.9 -1.2,1.65 -1.2,3.65 0,1.95 0.6,3.35 0.65,1.4000001 1.75,2.3000001 1.1,0.85 2.55,1.3 1.5,0.4 3.2,0.4 z" />
            <path
               id="path938"
               style="font-style:normal;font-variant:normal;font-weight:500;font-stretch:normal;font-size:100px;font-family:Lato;-inkscape-font-specification:'Lato, Medium';font-variant-ligatures:normal;font-variant-caps:normal;font-variant-numeric:normal;font-variant-east-asian:normal;fill:#262626;fill-opacity:0.992157;stroke-width:2.67857;stroke-linecap:butt;stroke-linejoin:round"
               d="m 857.8887,-51.03578 v 50.75000014 h -9.5 V -51.03578 Z m 1.85,-15.75 q 0,1.35 -0.55,2.55 -0.5,1.15 -1.45,2.05 -0.9,0.9 -2.15,1.45 -1.2,0.5 -2.55,0.5 -1.3,0 -2.5,-0.5 -1.15,-0.55 -2.05,-1.45 -0.9,-0.9 -1.45,-2.05 -0.5,-1.2 -0.5,-2.55 0,-1.35 0.5,-2.55 0.55,-1.25 1.45,-2.15 0.9,-0.9 2.05,-1.4 1.2,-0.55 2.5,-0.55 1.35,0 2.55,0.55 1.25,0.5 2.15,1.4 0.95,0.9 1.45,2.15 0.55,1.2 0.55,2.55 z" />
            <path
               id="path940"
               style="font-style:normal;font-variant:normal;font-weight:500;font-stretch:normal;font-size:100px;font-family:Lato;-inkscape-font-specification:'Lato, Medium';font-variant-ligatures:normal;font-variant-caps:normal;font-variant-numeric:normal;font-variant-east-asian:normal;fill:#262626;fill-opacity:0.992157;stroke-width:2.67857;stroke-linecap:butt;stroke-linejoin:round"
               d="m 882.25565,-74.03578 v 73.75000014 h -9.5 V -74.03578 Z" />
            <path
               id="path942"
               style="font-style:normal;font-variant:normal;font-weight:500;font-stretch:normal;font-size:100px;font-family:Lato;-inkscape-font-specification:'Lato, Medium';font-variant-ligatures:normal;font-variant-caps:normal;font-variant-numeric:normal;font-variant-east-asian:normal;fill:#262626;fill-opacity:0.992157;stroke-width:2.67857;stroke-linecap:butt;stroke-linejoin:round"
               d="m 895.13205,-6.0357799 q 0,-1.35 0.5,-2.5 0.5,-1.2 1.35,-2.1000001 0.85,-0.9 2.05,-1.4 1.2,-0.5 2.55,-0.5 1.35,0 2.5,0.5 1.2,0.5 2.05,1.4 0.9,0.9000001 1.4,2.1000001 0.5,1.15 0.5,2.5 0,1.4 -0.5,2.6 -0.5,1.15 -1.4,2.05 -0.85,0.85000004 -2.05,1.35000004 -1.15,0.5 -2.5,0.5 -1.35,0 -2.55,-0.5 -1.2,-0.5 -2.05,-1.35000004 -0.85,-0.9 -1.35,-2.05 -0.5,-1.2 -0.5,-2.6 z" />
            <path
               id="path944"
               style="font-style:normal;font-variant:normal;font-weight:500;font-stretch:normal;font-size:100px;font-family:Lato;-inkscape-font-specification:'Lato, Medium';font-variant-ligatures:normal;font-variant-caps:normal;font-variant-numeric:normal;font-variant-east-asian:normal;fill:#262626;fill-opacity:0.992157;stroke-width:2.67857;stroke-linecap:butt;stroke-linejoin:round"
               d="m 956.16306,-41.68578 q -0.4,0.55 -0.85,0.85 -0.4,0.3 -1.15,0.3 -0.8,0 -1.7,-0.6 -0.9,-0.65 -2.2,-1.35 -1.3,-0.75 -3.2,-1.35 -1.9,-0.65 -4.65,-0.65 -3.65,0 -6.45,1.3 -2.8,1.3 -4.7,3.75 -1.85,2.45 -2.8,5.9 -0.95,3.45 -0.95,7.8 0,4.5 1,8 1.05,3.5 2.9,5.9 1.9,2.4000001 4.55,3.6500001 2.7,1.25 6,1.25 3.2,0 5.25,-0.75 2.05,-0.8 3.4,-1.7 1.35,-0.9000001 2.25,-1.6500001 0.95,-0.8 1.9,-0.8 1.2,0 1.8,0.9 l 2.7,3.4500001 q -1.75,2.1 -3.9,3.6 -2.15,1.5 -4.6,2.45 -2.45,0.95000004 -5.1,1.40000004 -2.65,0.45 -5.4,0.45 -4.75,0 -8.85,-1.75000004 -4.1,-1.75 -7.15,-5.1 -3,-3.35 -4.75,-8.2000001 -1.7,-4.9 -1.7,-11.1 0,-5.65 1.55,-10.4 1.6,-4.8 4.65,-8.3 3.05,-3.5 7.5,-5.45 4.5,-1.95 10.3,-1.95 5.45,0 9.55,1.75 4.15,1.75 7.3,4.9 z" />
            <path
               id="path946"
               style="font-style:normal;font-variant:normal;font-weight:500;font-stretch:normal;font-size:100px;font-family:Lato;-inkscape-font-specification:'Lato, Medium';font-variant-ligatures:normal;font-variant-caps:normal;font-variant-numeric:normal;font-variant-east-asian:normal;fill:#262626;fill-opacity:0.992157;stroke-width:2.67857;stroke-linecap:butt;stroke-linejoin:round"
               d="m 989.43627,-51.83578 q 5.6,0 10.1,1.85 4.50003,1.8 7.65003,5.2 3.15,3.4 4.85,8.25 1.7,4.8 1.7,10.8 0,6 -1.7,10.85 -1.7,4.85 -4.85,8.2500001 -3.15,3.4 -7.65003,5.25 -4.5,1.80000004 -10.1,1.80000004 -5.6,0 -10.15,-1.80000004 -4.5,-1.85 -7.7,-5.25 -3.15,-3.4000001 -4.85,-8.2500001 -1.7,-4.85 -1.7,-10.85 0,-6 1.7,-10.8 1.7,-4.85 4.85,-8.25 3.2,-3.4 7.7,-5.2 4.55,-1.85 10.15,-1.85 z m 0,44.8500001 q 7.3,0 10.90003,-4.9000001 3.6,-4.9 3.6,-13.8 0,-8.85 -3.6,-13.8 -3.60003,-4.95 -10.90003,-4.95 -7.4,0 -11.05,4.95 -3.6,4.95 -3.6,13.8 0,8.9 3.6,13.8 3.65,4.9000001 11.05,4.9000001 z" />
            <path
               id="path948"
               style="font-style:normal;font-variant:normal;font-weight:500;font-stretch:normal;font-size:100px;font-family:Lato;-inkscape-font-specification:'Lato, Medium';font-variant-ligatures:normal;font-variant-caps:normal;font-variant-numeric:normal;font-variant-east-asian:normal;fill:#262626;fill-opacity:0.992157;stroke-width:2.67857;stroke-linecap:butt;stroke-linejoin:round"
               d="M 1025.0704,-0.28577986 V -51.03578 h 5.7 q 2,0 2.5,1.9 l 0.65,4.95 q 2.8,-3.35 6.25,-5.5 3.45,-2.15 8.05,-2.15 5.1,0 8.25,2.8 3.15,2.75 4.55,7.5 1.1,-2.7 2.85,-4.65 1.75,-1.95 3.9,-3.2 2.15,-1.25 4.55,-1.85 2.45,-0.6 4.95,-0.6 8.15,0 12.6,5 4.45,4.95 4.45,14.2 v 32.35000014 h -9.5 V -32.63578 q 0,-5.75 -2.55,-8.7 -2.5,-2.95 -7.3,-2.95 -2.15,0 -4.1,0.75 -1.9,0.75 -3.35,2.2 -1.45,1.45 -2.3,3.65 -0.85,2.2 -0.85,5.05 v 32.35000014 h -9.5 V -32.63578 q 0,-5.9 -2.4,-8.75 -2.35,-2.9 -6.95,-2.9 -3.15,0 -5.95,1.7 -2.75,1.65 -5,4.6 v 37.70000014 z" />
          </g>
        </g>
      </g>
    </g>
  </g>
</svg>
