<?xml version="1.0" encoding="utf-8" standalone="no"?>
<!DOCTYPE svg PUBLIC "-//W3C//DTD SVG 1.1//EN"
  "http://www.w3.org/Graphics/SVG/1.1/DTD/svg11.dtd">
<!-- Created with matplotlib (https://matplotlib.org/) -->
<svg height="36pt" version="1.1" viewBox="0 0 360 36" width="360pt" xmlns="http://www.w3.org/2000/svg" xmlns:xlink="http://www.w3.org/1999/xlink">
 <defs>
  <style type="text/css">
*{stroke-linecap:butt;stroke-linejoin:round;}
  </style>
 </defs>
 <g id="figure_1">
  <g id="patch_1">
   <path d="M 0 36 
L 360 36 
L 360 0 
L 0 0 
z
" style="fill:none;"/>
  </g>
  <g id="axes_1">
   <g id="text_1">
    <!-- ivan.kulakovskiy@gmail.com -->
    <defs>
     <path d="M 16.84375 50.75 
L 16.84375 0 
L 7.34375 0 
L 7.34375 50.75 
z
M 18.703125 66.5 
Q 18.703125 65.15625 18.171875 63.96875 
Q 17.65625 62.796875 16.71875 61.890625 
Q 15.796875 61 14.5625 60.46875 
Q 13.34375 59.953125 12 59.953125 
Q 10.703125 59.953125 9.515625 60.46875 
Q 8.34375 61 7.4375 61.890625 
Q 6.546875 62.796875 6.015625 63.96875 
Q 5.5 65.15625 5.5 66.5 
Q 5.5 67.84375 6.015625 69.0625 
Q 6.546875 70.296875 7.4375 71.1875 
Q 8.34375 72.09375 9.515625 72.625 
Q 10.703125 73.15625 12 73.15625 
Q 13.34375 73.15625 14.5625 72.625 
Q 15.796875 72.09375 16.71875 71.1875 
Q 17.65625 70.296875 18.171875 69.0625 
Q 18.703125 67.84375 18.703125 66.5 
z
" id="Lato-Medium-105"/>
     <path d="M 30.203125 0 
L 21.59375 0 
L 1 50.75 
L 8.796875 50.75 
Q 9.953125 50.75 10.671875 50.203125 
Q 11.40625 49.65625 11.65625 48.84375 
L 24.046875 17.203125 
Q 24.703125 15.296875 25.140625 13.421875 
Q 25.59375 11.546875 26 9.703125 
Q 26.40625 11.546875 26.875 13.390625 
Q 27.34375 15.25 28.046875 17.203125 
L 40.59375 48.84375 
Q 40.84375 49.703125 41.59375 50.21875 
Q 42.34375 50.75 43.34375 50.75 
L 50.796875 50.75 
z
" id="Lato-Medium-118"/>
     <path d="M 39.34375 0 
Q 37.953125 0 37.203125 0.453125 
Q 36.453125 0.90625 36 2.203125 
L 34.953125 6.75 
Q 33 4.953125 31.09375 3.515625 
Q 29.203125 2.09375 27.125 1.140625 
Q 25.046875 0.203125 22.6875 -0.296875 
Q 20.34375 -0.796875 17.453125 -0.796875 
Q 14.453125 -0.796875 11.84375 0.015625 
Q 9.25 0.84375 7.328125 2.546875 
Q 5.40625 4.25 4.28125 6.765625 
Q 3.15625 9.296875 3.15625 12.75 
Q 3.15625 15.75 4.78125 18.5 
Q 6.40625 21.25 10.078125 23.421875 
Q 13.75 25.59375 19.671875 27 
Q 25.59375 28.40625 34.25 28.59375 
L 34.25 32.40625 
Q 34.25 38.15625 31.765625 41.078125 
Q 29.296875 44 24.5 44 
Q 21.25 44 19.078125 43.171875 
Q 16.90625 42.34375 15.328125 41.375 
Q 13.75 40.40625 12.546875 39.59375 
Q 11.34375 38.796875 10.15625 38.796875 
Q 9.15625 38.796875 8.46875 39.3125 
Q 7.796875 39.84375 7.296875 40.546875 
L 5.59375 43.65625 
Q 9.84375 47.65625 14.765625 49.65625 
Q 19.703125 51.65625 25.65625 51.65625 
Q 29.953125 51.65625 33.296875 50.25 
Q 36.65625 48.84375 38.921875 46.3125 
Q 41.203125 43.796875 42.375 40.25 
Q 43.546875 36.703125 43.546875 32.40625 
L 43.546875 0 
z
M 20.296875 5.84375 
Q 22.546875 5.84375 24.46875 6.296875 
Q 26.40625 6.75 28.078125 7.59375 
Q 29.75 8.453125 31.25 9.671875 
Q 32.75 10.90625 34.25 12.453125 
L 34.25 22.65625 
Q 28.25 22.453125 24.046875 21.703125 
Q 19.84375 20.953125 17.21875 19.75 
Q 14.59375 18.546875 13.390625 16.875 
Q 12.203125 15.203125 12.203125 13.203125 
Q 12.203125 11.25 12.828125 9.84375 
Q 13.453125 8.453125 14.546875 7.578125 
Q 15.65625 6.703125 17.125 6.265625 
Q 18.59375 5.84375 20.296875 5.84375 
z
" id="Lato-Medium-97"/>
     <path d="M 6.90625 0 
L 6.90625 50.75 
L 12.59375 50.75 
Q 14.59375 50.75 15.09375 48.84375 
L 15.796875 43.59375 
Q 19.09375 47.15625 23.140625 49.34375 
Q 27.203125 51.546875 32.5 51.546875 
Q 36.65625 51.546875 39.828125 50.140625 
Q 43 48.75 45.140625 46.21875 
Q 47.296875 43.703125 48.390625 40.171875 
Q 49.5 36.65625 49.5 32.34375 
L 49.5 0 
L 40 0 
L 40 32.34375 
Q 40 37.84375 37.453125 40.921875 
Q 34.90625 44 29.703125 44 
Q 25.84375 44 22.546875 42.203125 
Q 19.25 40.40625 16.40625 37.25 
L 16.40625 0 
z
" id="Lato-Medium-110"/>
     <path d="M 5.34375 5.75 
Q 5.34375 7.09375 5.84375 8.265625 
Q 6.34375 9.453125 7.1875 10.34375 
Q 8.046875 11.25 9.25 11.75 
Q 10.453125 12.25 11.796875 12.25 
Q 13.15625 12.25 14.328125 11.75 
Q 15.5 11.25 16.375 10.34375 
Q 17.25 9.453125 17.75 8.265625 
Q 18.25 7.09375 18.25 5.75 
Q 18.25 4.34375 17.75 3.171875 
Q 17.25 2 16.375 1.125 
Q 15.5 0.25 14.328125 -0.25 
Q 13.15625 -0.75 11.796875 -0.75 
Q 10.453125 -0.75 9.25 -0.25 
Q 8.046875 0.25 7.1875 1.125 
Q 6.34375 2 5.84375 3.171875 
Q 5.34375 4.34375 5.34375 5.75 
z
" id="Lato-Medium-46"/>
     <path d="M 16.40625 73.75 
L 16.40625 30.546875 
L 18.703125 30.546875 
Q 19.703125 30.546875 20.390625 30.84375 
Q 21.09375 31.15625 21.84375 32 
L 37.34375 48.90625 
Q 38.046875 49.796875 38.875 50.265625 
Q 39.703125 50.75 41 50.75 
L 49.59375 50.75 
L 31.40625 31.046875 
Q 30 29.25 28.34375 28.25 
Q 29.296875 27.65625 30.015625 26.796875 
Q 30.75 25.953125 31.453125 24.953125 
L 50.796875 0 
L 42.296875 0 
Q 41.15625 0 40.28125 0.390625 
Q 39.40625 0.796875 38.75 1.84375 
L 22.703125 22.34375 
Q 21.953125 23.453125 21.21875 23.765625 
Q 20.5 24.09375 19 24.09375 
L 16.40625 24.09375 
L 16.40625 0 
L 6.90625 0 
L 6.90625 73.75 
z
" id="Lato-Medium-107"/>
     <path d="M 15.90625 50.75 
L 15.90625 18.40625 
Q 15.90625 12.90625 18.453125 9.828125 
Q 21 6.75 26.203125 6.75 
Q 30 6.75 33.328125 8.515625 
Q 36.65625 10.296875 39.5 13.453125 
L 39.5 50.75 
L 49 50.75 
L 49 0 
L 43.296875 0 
Q 41.296875 0 40.796875 1.90625 
L 40.046875 7.15625 
Q 36.75 3.59375 32.71875 1.390625 
Q 28.703125 -0.796875 23.40625 -0.796875 
Q 19.203125 -0.796875 16.015625 0.59375 
Q 12.84375 2 10.71875 4.515625 
Q 8.59375 7.046875 7.5 10.5625 
Q 6.40625 14.09375 6.40625 18.40625 
L 6.40625 50.75 
z
" id="Lato-Medium-117"/>
     <path d="M 16.65625 73.75 
L 16.65625 0 
L 7.15625 0 
L 7.15625 73.75 
z
" id="Lato-Medium-108"/>
     <path d="M 28.453125 51.546875 
Q 34.046875 51.546875 38.546875 49.71875 
Q 43.046875 47.90625 46.1875 44.5 
Q 49.34375 41.09375 51.046875 36.265625 
Q 52.75 31.453125 52.75 25.453125 
Q 52.75 19.453125 51.046875 14.59375 
Q 49.34375 9.75 46.1875 6.34375 
Q 43.046875 2.953125 38.546875 1.125 
Q 34.046875 -0.703125 28.453125 -0.703125 
Q 22.84375 -0.703125 18.3125 1.125 
Q 13.796875 2.953125 10.625 6.34375 
Q 7.453125 9.75 5.75 14.59375 
Q 4.046875 19.453125 4.046875 25.453125 
Q 4.046875 31.453125 5.75 36.265625 
Q 7.453125 41.09375 10.625 44.5 
Q 13.796875 47.90625 18.3125 49.71875 
Q 22.84375 51.546875 28.453125 51.546875 
z
M 28.453125 6.703125 
Q 35.75 6.703125 39.34375 11.59375 
Q 42.953125 16.5 42.953125 25.40625 
Q 42.953125 34.25 39.34375 39.203125 
Q 35.75 44.15625 28.453125 44.15625 
Q 21.046875 44.15625 17.421875 39.203125 
Q 13.796875 34.25 13.796875 25.40625 
Q 13.796875 16.5 17.421875 11.59375 
Q 21.046875 6.703125 28.453125 6.703125 
z
" id="Lato-Medium-111"/>
     <path d="M 36.703125 42.15625 
Q 36 40.953125 34.75 40.953125 
Q 33.953125 40.953125 32.96875 41.5 
Q 32 42.046875 30.640625 42.71875 
Q 29.296875 43.40625 27.421875 43.953125 
Q 25.546875 44.5 23 44.5 
Q 20.84375 44.5 19.09375 43.953125 
Q 17.34375 43.40625 16.125 42.453125 
Q 14.90625 41.5 14.21875 40.21875 
Q 13.546875 38.953125 13.546875 37.453125 
Q 13.546875 35.546875 14.671875 34.265625 
Q 15.796875 33 17.625 32.078125 
Q 19.453125 31.15625 21.796875 30.421875 
Q 24.15625 29.703125 26.59375 28.890625 
Q 29.046875 28.09375 31.390625 27.0625 
Q 33.75 26.046875 35.578125 24.546875 
Q 37.40625 23.046875 38.53125 20.875 
Q 39.65625 18.703125 39.65625 15.65625 
Q 39.65625 12.09375 38.375 9.09375 
Q 37.09375 6.09375 34.625 3.890625 
Q 32.15625 1.703125 28.546875 0.453125 
Q 24.953125 -0.796875 20.25 -0.796875 
Q 14.953125 -0.796875 10.578125 0.953125 
Q 6.203125 2.703125 3.203125 5.40625 
L 5.40625 9 
Q 5.796875 9.703125 6.390625 10.078125 
Q 7 10.453125 7.90625 10.453125 
Q 8.84375 10.453125 9.84375 9.75 
Q 10.84375 9.046875 12.265625 8.21875 
Q 13.703125 7.40625 15.71875 6.703125 
Q 17.75 6 20.75 6 
Q 23.296875 6 25.171875 6.640625 
Q 27.046875 7.296875 28.296875 8.375 
Q 29.546875 9.453125 30.140625 10.890625 
Q 30.75 12.34375 30.75 13.953125 
Q 30.75 16 29.625 17.34375 
Q 28.5 18.703125 26.671875 19.640625 
Q 24.84375 20.59375 22.5 21.296875 
Q 20.15625 22 17.671875 22.796875 
Q 15.203125 23.59375 12.84375 24.625 
Q 10.5 25.65625 8.671875 27.25 
Q 6.84375 28.84375 5.71875 31.125 
Q 4.59375 33.40625 4.59375 36.703125 
Q 4.59375 39.65625 5.796875 42.34375 
Q 7 45.046875 9.328125 47.09375 
Q 11.65625 49.15625 15.046875 50.34375 
Q 18.453125 51.546875 22.796875 51.546875 
Q 27.796875 51.546875 31.875 49.96875 
Q 35.953125 48.40625 38.796875 45.59375 
z
" id="Lato-Medium-115"/>
     <path d="M 22.84375 -14.796875 
Q 22.40625 -15.90625 21.703125 -16.46875 
Q 21 -17.046875 19.546875 -17.046875 
L 12.5 -17.046875 
L 21.796875 3.09375 
L 0.90625 50.75 
L 9.15625 50.75 
Q 10.34375 50.75 11.046875 50.171875 
Q 11.75 49.59375 12 48.84375 
L 25.15625 17.84375 
Q 26 15.546875 26.5 13.296875 
Q 26.84375 14.453125 27.25 15.625 
Q 27.65625 16.796875 28.09375 17.953125 
L 40.796875 48.84375 
Q 41.09375 49.703125 41.84375 50.21875 
Q 42.59375 50.75 43.546875 50.75 
L 51.09375 50.75 
z
" id="Lato-Medium-121"/>
     <path d="M 59.296875 9.25 
Q 55.5 9.25 53.015625 11.078125 
Q 50.546875 12.90625 49.796875 16.75 
Q 46.90625 12.84375 43.5 11.125 
Q 40.09375 9.40625 36.203125 9.40625 
Q 33.203125 9.40625 30.96875 10.453125 
Q 28.75 11.5 27.265625 13.328125 
Q 25.796875 15.15625 25.0625 17.671875 
Q 24.34375 20.203125 24.34375 23.15625 
Q 24.34375 27.40625 25.96875 31.71875 
Q 27.59375 36.046875 30.796875 39.515625 
Q 34 43 38.796875 45.203125 
Q 43.59375 47.40625 49.90625 47.40625 
Q 53.34375 47.40625 55.921875 46.875 
Q 58.5 46.34375 60.796875 45.34375 
L 56.09375 27.203125 
Q 55.15625 23.5 55.171875 21.171875 
Q 55.203125 18.84375 55.890625 17.546875 
Q 56.59375 16.25 57.875 15.765625 
Q 59.15625 15.296875 60.703125 15.296875 
Q 63.09375 15.296875 65.21875 16.6875 
Q 67.34375 18.09375 68.96875 20.59375 
Q 70.59375 23.09375 71.546875 26.625 
Q 72.5 30.15625 72.5 34.453125 
Q 72.5 41.296875 70.328125 46.4375 
Q 68.15625 51.59375 64.328125 55.015625 
Q 60.5 58.453125 55.265625 60.171875 
Q 50.046875 61.90625 43.953125 61.90625 
Q 37.25 61.90625 31.453125 59.375 
Q 25.65625 56.84375 21.328125 52.375 
Q 17 47.90625 14.515625 41.796875 
Q 12.046875 35.703125 12.046875 28.546875 
Q 12.046875 20.09375 14.6875 13.6875 
Q 17.34375 7.296875 21.9375 2.96875 
Q 26.546875 -1.34375 32.75 -3.515625 
Q 38.953125 -5.703125 46.09375 -5.703125 
Q 53.703125 -5.703125 59.5 -4.078125 
Q 65.296875 -2.453125 69.453125 0.046875 
Q 70.453125 0.65625 71.265625 0.421875 
Q 72.09375 0.203125 72.453125 -0.796875 
L 73.796875 -4.296875 
Q 68.453125 -7.796875 61.578125 -9.890625 
Q 54.703125 -12 46.09375 -12 
Q 40.25 -12 34.953125 -10.75 
Q 29.65625 -9.5 25.09375 -7.125 
Q 20.546875 -4.75 16.84375 -1.25 
Q 13.15625 2.25 10.546875 6.75 
Q 7.953125 11.25 6.515625 16.71875 
Q 5.09375 22.203125 5.09375 28.546875 
Q 5.09375 33.953125 6.46875 39 
Q 7.84375 44.046875 10.34375 48.4375 
Q 12.84375 52.84375 16.375 56.46875 
Q 19.90625 60.09375 24.21875 62.6875 
Q 28.546875 65.296875 33.515625 66.71875 
Q 38.5 68.15625 43.953125 68.15625 
Q 48.546875 68.15625 52.96875 67.125 
Q 57.40625 66.09375 61.34375 64.140625 
Q 65.296875 62.203125 68.59375 59.296875 
Q 71.90625 56.40625 74.296875 52.671875 
Q 76.703125 48.953125 78.015625 44.375 
Q 79.34375 39.796875 79.34375 34.453125 
Q 79.34375 29.046875 77.8125 24.421875 
Q 76.296875 19.796875 73.59375 16.421875 
Q 70.90625 13.046875 67.21875 11.140625 
Q 63.546875 9.25 59.296875 9.25 
z
M 38.09375 15.65625 
Q 39.59375 15.65625 41.140625 16.125 
Q 42.703125 16.59375 44.09375 17.8125 
Q 45.5 19.046875 46.703125 21.09375 
Q 47.90625 23.15625 48.75 26.296875 
L 52.5 40.90625 
Q 50.59375 41.34375 48.40625 41.34375 
Q 44.796875 41.34375 41.71875 39.8125 
Q 38.65625 38.296875 36.453125 35.765625 
Q 34.25 33.25 33 30 
Q 31.75 26.75 31.75 23.34375 
Q 31.75 19.84375 33.34375 17.75 
Q 34.953125 15.65625 38.09375 15.65625 
z
" id="Lato-Medium-64"/>
     <path d="M 24.703125 51.59375 
Q 28 51.59375 30.828125 50.875 
Q 33.65625 50.15625 36.046875 48.796875 
L 50.046875 48.796875 
L 50.046875 45.296875 
Q 50.046875 43.5 47.84375 43.046875 
L 42.296875 42.25 
Q 43.84375 39.046875 43.84375 35.25 
Q 43.84375 31.5 42.421875 28.5 
Q 41 25.5 38.453125 23.34375 
Q 35.90625 21.203125 32.375 20.046875 
Q 28.84375 18.90625 24.703125 18.90625 
Q 21.203125 18.90625 18.203125 19.65625 
Q 15.046875 17.75 15.046875 15.453125 
Q 15.046875 13.703125 16.515625 12.828125 
Q 18 11.953125 20.390625 11.546875 
Q 22.796875 11.15625 25.84375 11.046875 
Q 28.90625 10.953125 32.09375 10.71875 
Q 35.296875 10.5 38.34375 9.953125 
Q 41.40625 9.40625 43.796875 8.125 
Q 46.203125 6.84375 47.671875 4.640625 
Q 49.15625 2.453125 49.15625 -1.09375 
Q 49.15625 -4.40625 47.53125 -7.46875 
Q 45.90625 -10.546875 42.828125 -12.921875 
Q 39.75 -15.296875 35.296875 -16.75 
Q 30.84375 -18.203125 25.25 -18.203125 
Q 19.65625 -18.203125 15.46875 -17.09375 
Q 11.296875 -16 8.515625 -14.140625 
Q 5.75 -12.296875 4.375 -9.875 
Q 3 -7.453125 3 -4.796875 
Q 3 -1.046875 5.328125 1.515625 
Q 7.65625 4.09375 11.703125 5.546875 
Q 9.453125 6.546875 8.140625 8.265625 
Q 6.84375 10 6.84375 12.84375 
Q 6.84375 13.953125 7.25 15.125 
Q 7.65625 16.296875 8.46875 17.46875 
Q 9.296875 18.65625 10.515625 19.703125 
Q 11.75 20.75 13.34375 21.546875 
Q 9.59375 23.65625 7.4375 27.125 
Q 5.296875 30.59375 5.296875 35.25 
Q 5.296875 39 6.75 42 
Q 8.203125 45 10.765625 47.140625 
Q 13.34375 49.296875 16.890625 50.4375 
Q 20.453125 51.59375 24.703125 51.59375 
z
M 40.40625 -2.65625 
Q 40.40625 -0.84375 39.375 0.25 
Q 38.34375 1.34375 36.59375 2 
Q 34.84375 2.65625 32.546875 2.90625 
Q 30.25 3.15625 27.703125 3.296875 
Q 25.15625 3.453125 22.46875 3.59375 
Q 19.796875 3.75 17.34375 4.09375 
Q 14.65625 2.796875 12.953125 0.890625 
Q 11.25 -1 11.25 -3.546875 
Q 11.25 -5.203125 12.09375 -6.625 
Q 12.953125 -8.046875 14.671875 -9.0625 
Q 16.40625 -10.09375 19.078125 -10.6875 
Q 21.75 -11.296875 25.40625 -11.296875 
Q 29 -11.296875 31.796875 -10.640625 
Q 34.59375 -10 36.5 -8.84375 
Q 38.40625 -7.703125 39.40625 -6.125 
Q 40.40625 -4.546875 40.40625 -2.65625 
z
M 24.703125 25.15625 
Q 27.34375 25.15625 29.34375 25.875 
Q 31.34375 26.59375 32.6875 27.890625 
Q 34.046875 29.203125 34.71875 31 
Q 35.40625 32.796875 35.40625 35 
Q 35.40625 39.5 32.671875 42.171875 
Q 29.953125 44.84375 24.703125 44.84375 
Q 19.453125 44.84375 16.71875 42.171875 
Q 14 39.5 14 35 
Q 14 32.84375 14.703125 31.046875 
Q 15.40625 29.25 16.75 27.921875 
Q 18.09375 26.59375 20.09375 25.875 
Q 22.09375 25.15625 24.703125 25.15625 
z
" id="Lato-Medium-103"/>
     <path d="M 6.90625 0 
L 6.90625 50.75 
L 12.59375 50.75 
Q 14.59375 50.75 15.09375 48.84375 
L 15.75 43.90625 
Q 18.546875 47.25 22 49.390625 
Q 25.453125 51.546875 30.046875 51.546875 
Q 35.15625 51.546875 38.296875 48.765625 
Q 41.453125 46 42.84375 41.25 
Q 43.953125 43.953125 45.703125 45.890625 
Q 47.453125 47.84375 49.59375 49.09375 
Q 51.75 50.34375 54.171875 50.9375 
Q 56.59375 51.546875 59.09375 51.546875 
Q 67.25 51.546875 71.703125 46.5625 
Q 76.15625 41.59375 76.15625 32.34375 
L 76.15625 0 
L 66.65625 0 
L 66.65625 32.34375 
Q 66.65625 38.09375 64.125 41.046875 
Q 61.59375 44 56.796875 44 
Q 54.65625 44 52.71875 43.25 
Q 50.796875 42.5 49.34375 41.046875 
Q 47.90625 39.59375 47.046875 37.390625 
Q 46.203125 35.203125 46.203125 32.34375 
L 46.203125 0 
L 36.703125 0 
L 36.703125 32.34375 
Q 36.703125 38.25 34.328125 41.125 
Q 31.953125 44 27.34375 44 
Q 24.203125 44 21.421875 42.328125 
Q 18.65625 40.65625 16.40625 37.703125 
L 16.40625 0 
z
" id="Lato-Medium-109"/>
     <path d="M 42.40625 41.40625 
Q 42 40.84375 41.578125 40.546875 
Q 41.15625 40.25 40.40625 40.25 
Q 39.59375 40.25 38.6875 40.875 
Q 37.796875 41.5 36.5 42.21875 
Q 35.203125 42.953125 33.296875 43.578125 
Q 31.40625 44.203125 28.65625 44.203125 
Q 25 44.203125 22.203125 42.890625 
Q 19.40625 41.59375 17.53125 39.140625 
Q 15.65625 36.703125 14.703125 33.25 
Q 13.75 29.796875 13.75 25.453125 
Q 13.75 20.953125 14.765625 17.453125 
Q 15.796875 13.953125 17.671875 11.546875 
Q 19.546875 9.15625 22.21875 7.90625 
Q 24.90625 6.65625 28.203125 6.65625 
Q 31.40625 6.65625 33.453125 7.421875 
Q 35.5 8.203125 36.84375 9.09375 
Q 38.203125 10 39.125 10.765625 
Q 40.046875 11.546875 41 11.546875 
Q 42.203125 11.546875 42.796875 10.65625 
L 45.5 7.203125 
Q 43.75 5.09375 41.59375 3.59375 
Q 39.453125 2.09375 37 1.140625 
Q 34.546875 0.203125 31.890625 -0.25 
Q 29.25 -0.703125 26.5 -0.703125 
Q 21.75 -0.703125 17.640625 1.046875 
Q 13.546875 2.796875 10.515625 6.140625 
Q 7.5 9.5 5.765625 14.375 
Q 4.046875 19.25 4.046875 25.453125 
Q 4.046875 31.09375 5.625 35.875 
Q 7.203125 40.65625 10.25 44.15625 
Q 13.296875 47.65625 17.765625 49.59375 
Q 22.25 51.546875 28.046875 51.546875 
Q 33.5 51.546875 37.625 49.796875 
Q 41.75 48.046875 44.90625 44.90625 
z
" id="Lato-Medium-99"/>
    </defs>
    <g style="fill:#262626;" transform="translate(-1.872 25.776563)scale(0.28 -0.28)">
     <use xlink:href="#Lato-Medium-105"/>
     <use x="24.199997" xlink:href="#Lato-Medium-118"/>
     <use x="75.984375" xlink:href="#Lato-Medium-97"/>
     <use x="125.884384" xlink:href="#Lato-Medium-110"/>
     <use x="181.784393" xlink:href="#Lato-Medium-46"/>
     <use x="205.384399" xlink:href="#Lato-Medium-107"/>
     <use x="256.634399" xlink:href="#Lato-Medium-117"/>
     <use x="312.484406" xlink:href="#Lato-Medium-108"/>
     <use x="336.284409" xlink:href="#Lato-Medium-97"/>
     <use x="386.184418" xlink:href="#Lato-Medium-107"/>
     <use x="437.403168" xlink:href="#Lato-Medium-111"/>
     <use x="494.187546" xlink:href="#Lato-Medium-118"/>
     <use x="545.971924" xlink:href="#Lato-Medium-115"/>
     <use x="589.371933" xlink:href="#Lato-Medium-107"/>
     <use x="640.621933" xlink:href="#Lato-Medium-105"/>
     <use x="664.82193" xlink:href="#Lato-Medium-121"/>
     <use x="716.57193" xlink:href="#Lato-Medium-64"/>
     <use x="800.321945" xlink:href="#Lato-Medium-103"/>
     <use x="852.471954" xlink:href="#Lato-Medium-109"/>
     <use x="934.97197" xlink:href="#Lato-Medium-97"/>
     <use x="984.871979" xlink:href="#Lato-Medium-105"/>
     <use x="1009.071976" xlink:href="#Lato-Medium-108"/>
     <use x="1032.871979" xlink:href="#Lato-Medium-46"/>
     <use x="1056.471985" xlink:href="#Lato-Medium-99"/>
     <use x="1104.271988" xlink:href="#Lato-Medium-111"/>
     <use x="1161.071991" xlink:href="#Lato-Medium-109"/>
    </g>
   </g>
  </g>
 </g>
</svg>
