<?xml version="1.0" encoding="UTF-8" standalone="no"?>
<svg
   xmlns:dc="http://purl.org/dc/elements/1.1/"
   xmlns:cc="http://creativecommons.org/ns#"
   xmlns:rdf="http://www.w3.org/1999/02/22-rdf-syntax-ns#"
   xmlns:svg="http://www.w3.org/2000/svg"
   xmlns="http://www.w3.org/2000/svg"
   xmlns:xlink="http://www.w3.org/1999/xlink"
   xmlns:sodipodi="http://sodipodi.sourceforge.net/DTD/sodipodi-0.dtd"
   xmlns:inkscape="http://www.inkscape.org/namespaces/inkscape"
   inkscape:version="1.0 (6e3e5246a0, 2020-05-07)"
   sodipodi:docname="ivan_kulakovskiy.svg"
   id="svg83"
   width="360pt"
   viewBox="0 0 360 36"
   version="1.1"
   height="36pt">
  <metadata
     id="metadata87">
    <rdf:RDF>
      <cc:Work
         rdf:about="">
        <dc:format>image/svg+xml</dc:format>
        <dc:type
           rdf:resource="http://purl.org/dc/dcmitype/StillImage" />
      </cc:Work>
    </rdf:RDF>
  </metadata>
  <sodipodi:namedview
     inkscape:current-layer="svg83"
     inkscape:window-maximized="1"
     inkscape:window-y="31"
     inkscape:window-x="61"
     inkscape:cy="24"
     inkscape:cx="-165.44618"
     inkscape:zoom="2.4254841"
     showgrid="false"
     id="namedview85"
     inkscape:window-height="1020"
     inkscape:window-width="1859"
     inkscape:pageshadow="2"
     inkscape:pageopacity="0"
     guidetolerance="10"
     gridtolerance="10"
     objecttolerance="10"
     borderopacity="1"
     bordercolor="#666666"
     pagecolor="#ffffff" />
  <defs
     id="defs4">
    <style
       id="style2"
       type="text/css">
*{stroke-linecap:butt;stroke-linejoin:round;}
  </style>
  </defs>
  <g
     transform="translate(1.163488,-0.01957139)"
     id="figure_1">
    <g
       id="patch_1">
      <path
         id="path6"
         style="fill:none"
         d="M 0,36 H 360 V 0 H 0 Z" />
    </g>
    <g
       id="axes_1">
      <g
         id="text_1">
        <!-- ivan.kulakovskiy@gmail.com -->
        <defs
           id="defs24">
          <path
             id="Lato-Medium-105"
             d="M 16.84375,50.75 V 0 h -9.5 v 50.75 z m 1.859375,15.75 q 0,-1.34375 -0.53125,-2.53125 Q 17.65625,62.796875 16.71875,61.890625 15.796875,61 14.5625,60.46875 13.34375,59.953125 12,59.953125 q -1.296875,0 -2.484375,0.515625 Q 8.34375,61 7.4375,61.890625 6.546875,62.796875 6.015625,63.96875 5.5,65.15625 5.5,66.5 q 0,1.34375 0.515625,2.5625 0.53125,1.234375 1.421875,2.125 0.90625,0.90625 2.078125,1.4375 1.1875,0.53125 2.484375,0.53125 1.34375,0 2.5625,-0.53125 1.234375,-0.53125 2.15625,-1.4375 0.9375,-0.890625 1.453125,-2.125 0.53125,-1.21875 0.53125,-2.5625 z" />
          <path
             id="Lato-Medium-118"
             d="M 30.203125,0 H 21.59375 L 1,50.75 h 7.796875 q 1.15625,0 1.875,-0.546875 Q 11.40625,49.65625 11.65625,48.84375 L 24.046875,17.203125 q 0.65625,-1.90625 1.09375,-3.78125 0.453125,-1.875 0.859375,-3.71875 0.40625,1.84375 0.875,3.6875 0.46875,1.859375 1.171875,3.8125 L 40.59375,48.84375 q 0.25,0.859375 1,1.375 0.75,0.53125 1.75,0.53125 h 7.453125 z" />
          <path
             id="Lato-Medium-97"
             d="M 39.34375,0 Q 37.953125,0 37.203125,0.453125 36.453125,0.90625 36,2.203125 L 34.953125,6.75 Q 33,4.953125 31.09375,3.515625 29.203125,2.09375 27.125,1.140625 q -2.078125,-0.9375 -4.4375,-1.4375 -2.34375,-0.5 -5.234375,-0.5 -3,0 -5.609375,0.8125 Q 9.25,0.84375 7.328125,2.546875 5.40625,4.25 4.28125,6.765625 q -1.125,2.53125 -1.125,5.984375 0,3 1.625,5.75 1.625,2.75 5.296875,4.921875 Q 13.75,25.59375 19.671875,27 25.59375,28.40625 34.25,28.59375 v 3.8125 q 0,5.75 -2.484375,8.671875 Q 29.296875,44 24.5,44 21.25,44 19.078125,43.171875 16.90625,42.34375 15.328125,41.375 13.75,40.40625 12.546875,39.59375 11.34375,38.796875 10.15625,38.796875 q -1,0 -1.6875,0.515625 -0.671875,0.53125 -1.171875,1.234375 L 5.59375,43.65625 q 4.25,4 9.171875,6 4.9375,2 10.890625,2 4.296875,0 7.640625,-1.40625 3.359375,-1.40625 5.625,-3.9375 2.28125,-2.515625 3.453125,-6.0625 1.171875,-3.546875 1.171875,-7.84375 V 0 Z M 20.296875,5.84375 q 2.25,0 4.171875,0.453125 Q 26.40625,6.75 28.078125,7.59375 29.75,8.453125 31.25,9.671875 q 1.5,1.234375 3,2.78125 V 22.65625 q -6,-0.203125 -10.203125,-0.953125 -4.203125,-0.75 -6.828125,-1.953125 -2.625,-1.203125 -3.828125,-2.875 -1.1875,-1.671875 -1.1875,-3.671875 0,-1.953125 0.625,-3.359375 0.625,-1.390625 1.71875,-2.265625 1.109375,-0.875 2.578125,-1.3125 1.46875,-0.421875 3.171875,-0.421875 z" />
          <path
             id="Lato-Medium-110"
             d="m 6.90625,0 v 50.75 h 5.6875 q 2,0 2.5,-1.90625 l 0.703125,-5.25 q 3.296875,3.5625 7.34375,5.75 4.0625,2.203125 9.359375,2.203125 4.15625,0 7.328125,-1.40625 Q 43,48.75 45.140625,46.21875 q 2.15625,-2.515625 3.25,-6.046875 Q 49.5,36.65625 49.5,32.34375 V 0 H 40 v 32.34375 q 0,5.5 -2.546875,8.578125 Q 34.90625,44 29.703125,44 25.84375,44 22.546875,42.203125 19.25,40.40625 16.40625,37.25 V 0 Z" />
          <path
             id="Lato-Medium-46"
             d="m 5.34375,5.75 q 0,1.34375 0.5,2.515625 0.5,1.1875 1.34375,2.078125 Q 8.046875,11.25 9.25,11.75 q 1.203125,0.5 2.546875,0.5 1.359375,0 2.53125,-0.5 Q 15.5,11.25 16.375,10.34375 17.25,9.453125 17.75,8.265625 18.25,7.09375 18.25,5.75 18.25,4.34375 17.75,3.171875 17.25,2 16.375,1.125 15.5,0.25 14.328125,-0.25 13.15625,-0.75 11.796875,-0.75 10.453125,-0.75 9.25,-0.25 8.046875,0.25 7.1875,1.125 6.34375,2 5.84375,3.171875 5.34375,4.34375 5.34375,5.75 Z" />
          <path
             id="Lato-Medium-107"
             d="M 16.40625,73.75 V 30.546875 h 2.296875 q 1,0 1.6875,0.296875 Q 21.09375,31.15625 21.84375,32 l 15.5,16.90625 Q 38.046875,49.796875 38.875,50.265625 39.703125,50.75 41,50.75 h 8.59375 L 31.40625,31.046875 Q 30,29.25 28.34375,28.25 q 0.953125,-0.59375 1.671875,-1.453125 0.734375,-0.84375 1.4375,-1.84375 L 50.796875,0 h -8.5 Q 41.15625,0 40.28125,0.390625 39.40625,0.796875 38.75,1.84375 l -16.046875,20.5 q -0.75,1.109375 -1.484375,1.421875 Q 20.5,24.09375 19,24.09375 H 16.40625 V 0 h -9.5 v 73.75 z" />
          <path
             id="Lato-Medium-117"
             d="M 15.90625,50.75 V 18.40625 q 0,-5.5 2.546875,-8.578125 Q 21,6.75 26.203125,6.75 30,6.75 33.328125,8.515625 36.65625,10.296875 39.5,13.453125 V 50.75 H 49 V 0 h -5.703125 q -2,0 -2.5,1.90625 l -0.75,5.25 Q 36.75,3.59375 32.71875,1.390625 q -4.015625,-2.1875 -9.3125,-2.1875 -4.203125,0 -7.390625,1.390625 Q 12.84375,2 10.71875,4.515625 8.59375,7.046875 7.5,10.5625 6.40625,14.09375 6.40625,18.40625 V 50.75 Z" />
          <path
             id="Lato-Medium-108"
             d="M 16.65625,73.75 V 0 h -9.5 v 73.75 z" />
          <path
             id="Lato-Medium-111"
             d="m 28.453125,51.546875 q 5.59375,0 10.09375,-1.828125 4.5,-1.8125 7.640625,-5.21875 3.15625,-3.40625 4.859375,-8.234375 1.703125,-4.8125 1.703125,-10.8125 0,-6 -1.703125,-10.859375 Q 49.34375,9.75 46.1875,6.34375 43.046875,2.953125 38.546875,1.125 q -4.5,-1.828125 -10.09375,-1.828125 -5.609375,0 -10.140625,1.828125 -4.515625,1.828125 -7.6875,5.21875 -3.171875,3.40625 -4.875,8.25 -1.703125,4.859375 -1.703125,10.859375 0,6 1.703125,10.8125 1.703125,4.828125 4.875,8.234375 3.171875,3.40625 7.6875,5.21875 4.53125,1.828125 10.140625,1.828125 z m 0,-44.84375 q 7.296875,0 10.890625,4.890625 3.609375,4.90625 3.609375,13.8125 0,8.84375 -3.609375,13.796875 -3.59375,4.953125 -10.890625,4.953125 -7.40625,0 -11.03125,-4.953125 -3.625,-4.953125 -3.625,-13.796875 0,-8.90625 3.625,-13.8125 3.625,-4.890625 11.03125,-4.890625 z" />
          <path
             id="Lato-Medium-115"
             d="M 36.703125,42.15625 Q 36,40.953125 34.75,40.953125 q -0.796875,0 -1.78125,0.546875 -0.96875,0.546875 -2.328125,1.21875 -1.34375,0.6875 -3.21875,1.234375 Q 25.546875,44.5 23,44.5 q -2.15625,0 -3.90625,-0.546875 -1.75,-0.546875 -2.96875,-1.5 Q 14.90625,41.5 14.21875,40.21875 q -0.671875,-1.265625 -0.671875,-2.765625 0,-1.90625 1.125,-3.1875 1.125,-1.265625 2.953125,-2.1875 1.828125,-0.921875 4.171875,-1.65625 2.359375,-0.71875 4.796875,-1.53125 2.453125,-0.796875 4.796875,-1.828125 2.359375,-1.015625 4.1875,-2.515625 1.828125,-1.5 2.953125,-3.671875 1.125,-2.171875 1.125,-5.21875 0,-3.5625 -1.28125,-6.5625 -1.28125,-3 -3.75,-5.203125 -2.46875,-2.1875 -6.078125,-3.4375 -3.59375,-1.25 -8.296875,-1.25 -5.296875,0 -9.671875,1.75 -4.375,1.75 -7.375,4.453125 L 5.40625,9 q 0.390625,0.703125 0.984375,1.078125 0.609375,0.375 1.515625,0.375 0.9375,0 1.9375,-0.703125 1,-0.703125 2.421875,-1.53125 1.4375,-0.8125 3.453125,-1.515625 Q 17.75,6 20.75,6 q 2.546875,0 4.421875,0.640625 1.875,0.65625 3.125,1.734375 1.25,1.078125 1.84375,2.515625 Q 30.75,12.34375 30.75,13.953125 30.75,16 29.625,17.34375 28.5,18.703125 26.671875,19.640625 24.84375,20.59375 22.5,21.296875 20.15625,22 17.671875,22.796875 15.203125,23.59375 12.84375,24.625 10.5,25.65625 8.671875,27.25 6.84375,28.84375 5.71875,31.125 q -1.125,2.28125 -1.125,5.578125 0,2.953125 1.203125,5.640625 1.203125,2.703125 3.53125,4.75 2.328125,2.0625 5.71875,3.25 3.40625,1.203125 7.75,1.203125 5,0 9.078125,-1.578125 4.078125,-1.5625 6.921875,-4.375 z" />
          <path
             id="Lato-Medium-121"
             d="M 22.84375,-14.796875 Q 22.40625,-15.90625 21.703125,-16.46875 21,-17.046875 19.546875,-17.046875 H 12.5 L 21.796875,3.09375 0.90625,50.75 h 8.25 q 1.1875,0 1.890625,-0.578125 Q 11.75,49.59375 12,48.84375 l 13.15625,-31 Q 26,15.546875 26.5,13.296875 q 0.34375,1.15625 0.75,2.328125 0.40625,1.171875 0.84375,2.328125 L 40.796875,48.84375 q 0.296875,0.859375 1.046875,1.375 0.75,0.53125 1.703125,0.53125 h 7.546875 z" />
          <path
             id="Lato-Medium-64"
             d="M 59.296875,9.25 Q 55.5,9.25 53.015625,11.078125 50.546875,12.90625 49.796875,16.75 46.90625,12.84375 43.5,11.125 40.09375,9.40625 36.203125,9.40625 q -3,0 -5.234375,1.046875 -2.21875,1.046875 -3.703125,2.875 -1.46875,1.828125 -2.203125,4.34375 -0.71875,2.53125 -0.71875,5.484375 0,4.25 1.625,8.5625 1.625,4.328125 4.828125,7.796875 3.203125,3.484375 8,5.6875 4.796875,2.203125 11.109375,2.203125 3.4375,0 6.015625,-0.53125 2.578125,-0.53125 4.875,-1.53125 L 56.09375,27.203125 Q 55.15625,23.5 55.171875,21.171875 q 0.03125,-2.328125 0.71875,-3.625 Q 56.59375,16.25 57.875,15.765625 q 1.28125,-0.46875 2.828125,-0.46875 2.390625,0 4.515625,1.390625 2.125,1.40625 3.75,3.90625 1.625,2.5 2.578125,6.03125 Q 72.5,30.15625 72.5,34.453125 q 0,6.84375 -2.171875,11.984375 -2.171875,5.15625 -6,8.578125 -3.828125,3.4375 -9.0625,5.15625 -5.21875,1.734375 -11.3125,1.734375 -6.703125,0 -12.5,-2.53125 -5.796875,-2.53125 -10.125,-7 Q 17,47.90625 14.515625,41.796875 q -2.46875,-6.09375 -2.46875,-13.25 0,-8.453125 2.640625,-14.859375 2.65625,-6.390625 7.25,-10.71875 4.609375,-4.3125 10.8125,-6.484375 6.203125,-2.1875 13.34375,-2.1875 7.609375,0 13.40625,1.625 5.796875,1.625 9.953125,4.125 1,0.609375 1.8125,0.375 0.828125,-0.21875 1.1875,-1.21875 l 1.34375,-3.5 q -5.34375,-3.5 -12.21875,-5.59375 Q 54.703125,-12 46.09375,-12 40.25,-12 34.953125,-10.75 29.65625,-9.5 25.09375,-7.125 q -4.546875,2.375 -8.25,5.875 -3.6875,3.5 -6.296875,8 -2.59375,4.5 -4.03125,9.96875 -1.421875,5.484375 -1.421875,11.828125 0,5.40625 1.375,10.453125 1.375,5.046875 3.875,9.4375 2.5,4.40625 6.03125,8.03125 3.53125,3.625 7.84375,6.21875 4.328125,2.609375 9.296875,4.03125 4.984375,1.4375 10.4375,1.4375 4.59375,0 9.015625,-1.03125 4.4375,-1.03125 8.375,-2.984375 3.953125,-1.9375 7.25,-4.84375 3.3125,-2.890625 5.703125,-6.625 2.40625,-3.71875 3.71875,-8.296875 1.328125,-4.578125 1.328125,-9.921875 0,-5.40625 -1.53125,-10.03125 -1.515625,-4.625 -4.21875,-8 -2.6875,-3.375 -6.375,-5.28125 Q 63.546875,9.25 59.296875,9.25 Z M 38.09375,15.65625 q 1.5,0 3.046875,0.46875 1.5625,0.46875 2.953125,1.6875 1.40625,1.234375 2.609375,3.28125 1.203125,2.0625 2.046875,5.203125 L 52.5,40.90625 q -1.90625,0.4375 -4.09375,0.4375 -3.609375,0 -6.6875,-1.53125 -3.0625,-1.515625 -5.265625,-4.046875 Q 34.25,33.25 33,30 q -1.25,-3.25 -1.25,-6.65625 0,-3.5 1.59375,-5.59375 1.609375,-2.09375 4.75,-2.09375 z" />
          <path
             id="Lato-Medium-103"
             d="m 24.703125,51.59375 q 3.296875,0 6.125,-0.71875 2.828125,-0.71875 5.21875,-2.078125 h 14 v -3.5 q 0,-1.796875 -2.203125,-2.25 L 42.296875,42.25 q 1.546875,-3.203125 1.546875,-7 0,-3.75 -1.421875,-6.75 Q 41,25.5 38.453125,23.34375 35.90625,21.203125 32.375,20.046875 28.84375,18.90625 24.703125,18.90625 q -3.5,0 -6.5,0.75 -3.15625,-1.90625 -3.15625,-4.203125 0,-1.75 1.46875,-2.625 1.484375,-0.875 3.875,-1.28125 2.40625,-0.390625 5.453125,-0.5 3.0625,-0.09375 6.25,-0.328125 3.203125,-0.21875 6.25,-0.765625 3.0625,-0.546875 5.453125,-1.828125 2.40625,-1.28125 3.875,-3.484375 1.484375,-2.1875 1.484375,-5.734375 0,-3.3125 -1.625,-6.375 -1.625,-3.078125 -4.703125,-5.453125 Q 39.75,-15.296875 35.296875,-16.75 30.84375,-18.203125 25.25,-18.203125 q -5.59375,0 -9.78125,1.109375 Q 11.296875,-16 8.515625,-14.140625 5.75,-12.296875 4.375,-9.875 3,-7.453125 3,-4.796875 q 0,3.75 2.328125,6.3125 2.328125,2.578125 6.375,4.03125 -2.25,1 -3.5625,2.71875 Q 6.84375,10 6.84375,12.84375 q 0,1.109375 0.40625,2.28125 0.40625,1.171875 1.21875,2.34375 0.828125,1.1875 2.046875,2.234375 Q 11.75,20.75 13.34375,21.546875 9.59375,23.65625 7.4375,27.125 5.296875,30.59375 5.296875,35.25 5.296875,39 6.75,42 q 1.453125,3 4.015625,5.140625 2.578125,2.15625 6.125,3.296875 3.5625,1.15625 7.8125,1.15625 z m 15.703125,-54.25 q 0,1.8125 -1.03125,2.90625 -1.03125,1.09375 -2.78125,1.75 -1.75,0.65625 -4.046875,0.90625 -2.296875,0.25 -4.84375,0.390625 -2.546875,0.15625 -5.234375,0.296875 -2.671875,0.15625 -5.125,0.5 Q 14.65625,2.796875 12.953125,0.890625 11.25,-1 11.25,-3.546875 q 0,-1.65625 0.84375,-3.078125 0.859375,-1.421875 2.578125,-2.4375 1.734375,-1.03125 4.40625,-1.625 2.671875,-0.609375 6.328125,-0.609375 3.59375,0 6.390625,0.65625 Q 34.59375,-10 36.5,-8.84375 q 1.90625,1.140625 2.90625,2.71875 1,1.578125 1,3.46875 z m -15.703125,27.8125 q 2.640625,0 4.640625,0.71875 2,0.71875 3.34375,2.015625 1.359375,1.3125 2.03125,3.109375 0.6875,1.796875 0.6875,4 0,4.5 -2.734375,7.171875 -2.71875,2.671875 -7.96875,2.671875 -5.25,0 -7.984375,-2.671875 Q 14,39.5 14,35 14,32.84375 14.703125,31.046875 15.40625,29.25 16.75,27.921875 18.09375,26.59375 20.09375,25.875 q 2,-0.71875 4.609375,-0.71875 z" />
          <path
             id="Lato-Medium-109"
             d="m 6.90625,0 v 50.75 h 5.6875 q 2,0 2.5,-1.90625 L 15.75,43.90625 q 2.796875,3.34375 6.25,5.484375 3.453125,2.15625 8.046875,2.15625 5.109375,0 8.25,-2.78125 Q 41.453125,46 42.84375,41.25 q 1.109375,2.703125 2.859375,4.640625 1.75,1.953125 3.890625,3.203125 2.15625,1.25 4.578125,1.84375 2.421875,0.609375 4.921875,0.609375 8.15625,0 12.609375,-4.984375 4.453125,-4.96875 4.453125,-14.21875 V 0 h -9.5 v 32.34375 q 0,5.75 -2.53125,8.703125 Q 61.59375,44 56.796875,44 54.65625,44 52.71875,43.25 q -1.921875,-0.75 -3.375,-2.203125 -1.4375,-1.453125 -2.296875,-3.65625 -0.84375,-2.1875 -0.84375,-5.046875 V 0 h -9.5 v 32.34375 q 0,5.90625 -2.375,8.78125 Q 31.953125,44 27.34375,44 24.203125,44 21.421875,42.328125 18.65625,40.65625 16.40625,37.703125 V 0 Z" />
          <path
             id="Lato-Medium-99"
             d="M 42.40625,41.40625 Q 42,40.84375 41.578125,40.546875 41.15625,40.25 40.40625,40.25 q -0.8125,0 -1.71875,0.625 -0.890625,0.625 -2.1875,1.34375 -1.296875,0.734375 -3.203125,1.359375 -1.890625,0.625 -4.640625,0.625 -3.65625,0 -6.453125,-1.3125 -2.796875,-1.296875 -4.671875,-3.75 Q 15.65625,36.703125 14.703125,33.25 13.75,29.796875 13.75,25.453125 q 0,-4.5 1.015625,-8 1.03125,-3.5 2.90625,-5.90625 1.875,-2.390625 4.546875,-3.640625 2.6875,-1.25 5.984375,-1.25 3.203125,0 5.25,0.765625 Q 35.5,8.203125 36.84375,9.09375 38.203125,10 39.125,10.765625 q 0.921875,0.78125 1.875,0.78125 1.203125,0 1.796875,-0.890625 L 45.5,7.203125 Q 43.75,5.09375 41.59375,3.59375 39.453125,2.09375 37,1.140625 34.546875,0.203125 31.890625,-0.25 29.25,-0.703125 26.5,-0.703125 q -4.75,0 -8.859375,1.75 -4.09375,1.75 -7.125,5.09375 Q 7.5,9.5 5.765625,14.375 q -1.71875,4.875 -1.71875,11.078125 0,5.640625 1.578125,10.421875 1.578125,4.78125 4.625,8.28125 3.046875,3.5 7.515625,5.4375 4.484375,1.953125 10.28125,1.953125 5.453125,0 9.578125,-1.75 4.125,-1.75 7.28125,-4.890625 z" />
        </defs>
        <g
           id="g78"
           transform="matrix(0.28,0,0,-0.28,-1.872,25.776563)"
           style="fill:#262626">
          <use
             height="100%"
             width="100%"
             y="0"
             x="0"
             id="use26"
             xlink:href="#Lato-Medium-105" />
          <use
             height="100%"
             width="100%"
             y="0"
             id="use28"
             xlink:href="#Lato-Medium-118"
             x="24.199997" />
          <use
             height="100%"
             width="100%"
             y="0"
             id="use30"
             xlink:href="#Lato-Medium-97"
             x="75.984375" />
          <use
             height="100%"
             width="100%"
             y="0"
             id="use32"
             xlink:href="#Lato-Medium-110"
             x="125.88438" />
          <use
             height="100%"
             width="100%"
             y="0"
             id="use34"
             xlink:href="#Lato-Medium-46"
             x="181.78439" />
          <use
             height="100%"
             width="100%"
             y="0"
             id="use36"
             xlink:href="#Lato-Medium-107"
             x="205.3844" />
          <use
             height="100%"
             width="100%"
             y="0"
             id="use38"
             xlink:href="#Lato-Medium-117"
             x="256.6344" />
          <use
             height="100%"
             width="100%"
             y="0"
             id="use40"
             xlink:href="#Lato-Medium-108"
             x="312.48441" />
          <use
             height="100%"
             width="100%"
             y="0"
             id="use42"
             xlink:href="#Lato-Medium-97"
             x="336.28442" />
          <use
             height="100%"
             width="100%"
             y="0"
             id="use44"
             xlink:href="#Lato-Medium-107"
             x="386.18442" />
          <use
             height="100%"
             width="100%"
             y="0"
             id="use46"
             xlink:href="#Lato-Medium-111"
             x="437.40317" />
          <use
             height="100%"
             width="100%"
             y="0"
             id="use48"
             xlink:href="#Lato-Medium-118"
             x="494.18756" />
          <use
             height="100%"
             width="100%"
             y="0"
             id="use50"
             xlink:href="#Lato-Medium-115"
             x="545.97192" />
          <use
             height="100%"
             width="100%"
             y="0"
             id="use52"
             xlink:href="#Lato-Medium-107"
             x="589.37195" />
          <use
             height="100%"
             width="100%"
             y="0"
             id="use54"
             xlink:href="#Lato-Medium-105"
             x="640.62195" />
          <use
             height="100%"
             width="100%"
             y="0"
             id="use56"
             xlink:href="#Lato-Medium-121"
             x="664.82196" />
          <use
             height="100%"
             width="100%"
             y="0"
             id="use58"
             xlink:href="#Lato-Medium-64"
             x="716.57196" />
          <use
             height="100%"
             width="100%"
             y="0"
             id="use60"
             xlink:href="#Lato-Medium-103"
             x="800.32196" />
          <use
             height="100%"
             width="100%"
             y="0"
             id="use62"
             xlink:href="#Lato-Medium-109"
             x="852.47192" />
          <use
             height="100%"
             width="100%"
             y="0"
             id="use64"
             xlink:href="#Lato-Medium-97"
             x="934.97198" />
          <use
             height="100%"
             width="100%"
             y="0"
             id="use66"
             xlink:href="#Lato-Medium-105"
             x="984.87201" />
          <use
             height="100%"
             width="100%"
             y="0"
             id="use68"
             xlink:href="#Lato-Medium-108"
             x="1009.072" />
          <use
             height="100%"
             width="100%"
             y="0"
             id="use70"
             xlink:href="#Lato-Medium-46"
             x="1032.8719" />
          <use
             height="100%"
             width="100%"
             y="0"
             id="use72"
             xlink:href="#Lato-Medium-99"
             x="1056.472" />
          <use
             height="100%"
             width="100%"
             y="0"
             id="use74"
             xlink:href="#Lato-Medium-111"
             x="1104.272" />
          <use
             height="100%"
             width="100%"
             y="0"
             id="use76"
             xlink:href="#Lato-Medium-109"
             x="1161.072" />
        </g>
      </g>
    </g>
  </g>
</svg>
