<?xml version="1.0" encoding="utf-8" standalone="no"?>
<!DOCTYPE svg PUBLIC "-//W3C//DTD SVG 1.1//EN"
  "http://www.w3.org/Graphics/SVG/1.1/DTD/svg11.dtd">
<!-- Created with matplotlib (https://matplotlib.org/) -->
<svg height="36pt" version="1.1" viewBox="0 0 360 36" width="360pt" xmlns="http://www.w3.org/2000/svg" xmlns:xlink="http://www.w3.org/1999/xlink">
 <defs>
  <style type="text/css">
*{stroke-linecap:butt;stroke-linejoin:round;}
  </style>
 </defs>
 <g id="figure_1">
  <g id="patch_1">
   <path d="M 0 36 
L 360 36 
L 360 0 
L 0 0 
z
" style="fill:none;"/>
  </g>
  <g id="axes_1">
   <g id="text_1">
    <!-- abramov.sa@phystech.edu -->
    <defs>
     <path d="M 39.34375 0 
Q 37.953125 0 37.203125 0.453125 
Q 36.453125 0.90625 36 2.203125 
L 34.953125 6.75 
Q 33 4.953125 31.09375 3.515625 
Q 29.203125 2.09375 27.125 1.140625 
Q 25.046875 0.203125 22.6875 -0.296875 
Q 20.34375 -0.796875 17.453125 -0.796875 
Q 14.453125 -0.796875 11.84375 0.015625 
Q 9.25 0.84375 7.328125 2.546875 
Q 5.40625 4.25 4.28125 6.765625 
Q 3.15625 9.296875 3.15625 12.75 
Q 3.15625 15.75 4.78125 18.5 
Q 6.40625 21.25 10.078125 23.421875 
Q 13.75 25.59375 19.671875 27 
Q 25.59375 28.40625 34.25 28.59375 
L 34.25 32.40625 
Q 34.25 38.15625 31.765625 41.078125 
Q 29.296875 44 24.5 44 
Q 21.25 44 19.078125 43.171875 
Q 16.90625 42.34375 15.328125 41.375 
Q 13.75 40.40625 12.546875 39.59375 
Q 11.34375 38.796875 10.15625 38.796875 
Q 9.15625 38.796875 8.46875 39.3125 
Q 7.796875 39.84375 7.296875 40.546875 
L 5.59375 43.65625 
Q 9.84375 47.65625 14.765625 49.65625 
Q 19.703125 51.65625 25.65625 51.65625 
Q 29.953125 51.65625 33.296875 50.25 
Q 36.65625 48.84375 38.921875 46.3125 
Q 41.203125 43.796875 42.375 40.25 
Q 43.546875 36.703125 43.546875 32.40625 
L 43.546875 0 
z
M 20.296875 5.84375 
Q 22.546875 5.84375 24.46875 6.296875 
Q 26.40625 6.75 28.078125 7.59375 
Q 29.75 8.453125 31.25 9.671875 
Q 32.75 10.90625 34.25 12.453125 
L 34.25 22.65625 
Q 28.25 22.453125 24.046875 21.703125 
Q 19.84375 20.953125 17.21875 19.75 
Q 14.59375 18.546875 13.390625 16.875 
Q 12.203125 15.203125 12.203125 13.203125 
Q 12.203125 11.25 12.828125 9.84375 
Q 13.453125 8.453125 14.546875 7.578125 
Q 15.65625 6.703125 17.125 6.265625 
Q 18.59375 5.84375 20.296875 5.84375 
z
" id="Lato-Medium-97"/>
     <path d="M 6.90625 0 
L 6.90625 73.75 
L 16.40625 73.75 
L 16.40625 43.59375 
Q 19.546875 47.25 23.5625 49.390625 
Q 27.59375 51.546875 32.75 51.546875 
Q 37.203125 51.546875 40.765625 49.8125 
Q 44.34375 48.09375 46.84375 44.890625 
Q 49.34375 41.703125 50.671875 37.078125 
Q 52 32.453125 52 26.703125 
Q 52 20.546875 50.46875 15.5 
Q 48.953125 10.453125 46.125 6.84375 
Q 43.296875 3.25 39.265625 1.265625 
Q 35.25 -0.703125 30.203125 -0.703125 
Q 25.203125 -0.703125 21.828125 1.171875 
Q 18.453125 3.046875 15.90625 6.34375 
L 15.453125 2 
Q 15 0 13.046875 0 
z
M 29.59375 44 
Q 25.34375 44 22.21875 42.078125 
Q 19.09375 40.15625 16.40625 36.59375 
L 16.40625 12.34375 
Q 18.796875 9.203125 21.640625 7.921875 
Q 24.5 6.65625 27.84375 6.65625 
Q 34.796875 6.65625 38.5 11.546875 
Q 42.203125 16.453125 42.203125 26.34375 
Q 42.203125 35.453125 38.921875 39.71875 
Q 35.65625 44 29.59375 44 
z
" id="Lato-Medium-98"/>
     <path d="M 6.90625 0 
L 6.90625 50.75 
L 12.34375 50.75 
Q 13.90625 50.75 14.46875 50.203125 
Q 15.046875 49.65625 15.25 48.203125 
L 15.84375 40.796875 
Q 18.25 45.84375 21.75 48.75 
Q 25.25 51.65625 30.15625 51.65625 
Q 31.796875 51.65625 33.265625 51.296875 
Q 34.75 50.953125 35.84375 50.203125 
L 35.203125 43.09375 
Q 34.90625 41.75 33.59375 41.75 
Q 32.90625 41.75 31.53125 42.046875 
Q 30.15625 42.34375 28.5 42.34375 
Q 26.15625 42.34375 24.328125 41.640625 
Q 22.5 40.953125 21.046875 39.59375 
Q 19.59375 38.25 18.46875 36.296875 
Q 17.34375 34.34375 16.40625 31.84375 
L 16.40625 0 
z
" id="Lato-Medium-114"/>
     <path d="M 6.90625 0 
L 6.90625 50.75 
L 12.59375 50.75 
Q 14.59375 50.75 15.09375 48.84375 
L 15.75 43.90625 
Q 18.546875 47.25 22 49.390625 
Q 25.453125 51.546875 30.046875 51.546875 
Q 35.15625 51.546875 38.296875 48.765625 
Q 41.453125 46 42.84375 41.25 
Q 43.953125 43.953125 45.703125 45.890625 
Q 47.453125 47.84375 49.59375 49.09375 
Q 51.75 50.34375 54.171875 50.9375 
Q 56.59375 51.546875 59.09375 51.546875 
Q 67.25 51.546875 71.703125 46.5625 
Q 76.15625 41.59375 76.15625 32.34375 
L 76.15625 0 
L 66.65625 0 
L 66.65625 32.34375 
Q 66.65625 38.09375 64.125 41.046875 
Q 61.59375 44 56.796875 44 
Q 54.65625 44 52.71875 43.25 
Q 50.796875 42.5 49.34375 41.046875 
Q 47.90625 39.59375 47.046875 37.390625 
Q 46.203125 35.203125 46.203125 32.34375 
L 46.203125 0 
L 36.703125 0 
L 36.703125 32.34375 
Q 36.703125 38.25 34.328125 41.125 
Q 31.953125 44 27.34375 44 
Q 24.203125 44 21.421875 42.328125 
Q 18.65625 40.65625 16.40625 37.703125 
L 16.40625 0 
z
" id="Lato-Medium-109"/>
     <path d="M 28.453125 51.546875 
Q 34.046875 51.546875 38.546875 49.71875 
Q 43.046875 47.90625 46.1875 44.5 
Q 49.34375 41.09375 51.046875 36.265625 
Q 52.75 31.453125 52.75 25.453125 
Q 52.75 19.453125 51.046875 14.59375 
Q 49.34375 9.75 46.1875 6.34375 
Q 43.046875 2.953125 38.546875 1.125 
Q 34.046875 -0.703125 28.453125 -0.703125 
Q 22.84375 -0.703125 18.3125 1.125 
Q 13.796875 2.953125 10.625 6.34375 
Q 7.453125 9.75 5.75 14.59375 
Q 4.046875 19.453125 4.046875 25.453125 
Q 4.046875 31.453125 5.75 36.265625 
Q 7.453125 41.09375 10.625 44.5 
Q 13.796875 47.90625 18.3125 49.71875 
Q 22.84375 51.546875 28.453125 51.546875 
z
M 28.453125 6.703125 
Q 35.75 6.703125 39.34375 11.59375 
Q 42.953125 16.5 42.953125 25.40625 
Q 42.953125 34.25 39.34375 39.203125 
Q 35.75 44.15625 28.453125 44.15625 
Q 21.046875 44.15625 17.421875 39.203125 
Q 13.796875 34.25 13.796875 25.40625 
Q 13.796875 16.5 17.421875 11.59375 
Q 21.046875 6.703125 28.453125 6.703125 
z
" id="Lato-Medium-111"/>
     <path d="M 30.203125 0 
L 21.59375 0 
L 1 50.75 
L 8.796875 50.75 
Q 9.953125 50.75 10.671875 50.203125 
Q 11.40625 49.65625 11.65625 48.84375 
L 24.046875 17.203125 
Q 24.703125 15.296875 25.140625 13.421875 
Q 25.59375 11.546875 26 9.703125 
Q 26.40625 11.546875 26.875 13.390625 
Q 27.34375 15.25 28.046875 17.203125 
L 40.59375 48.84375 
Q 40.84375 49.703125 41.59375 50.21875 
Q 42.34375 50.75 43.34375 50.75 
L 50.796875 50.75 
z
" id="Lato-Medium-118"/>
     <path d="M 5.34375 5.75 
Q 5.34375 7.09375 5.84375 8.265625 
Q 6.34375 9.453125 7.1875 10.34375 
Q 8.046875 11.25 9.25 11.75 
Q 10.453125 12.25 11.796875 12.25 
Q 13.15625 12.25 14.328125 11.75 
Q 15.5 11.25 16.375 10.34375 
Q 17.25 9.453125 17.75 8.265625 
Q 18.25 7.09375 18.25 5.75 
Q 18.25 4.34375 17.75 3.171875 
Q 17.25 2 16.375 1.125 
Q 15.5 0.25 14.328125 -0.25 
Q 13.15625 -0.75 11.796875 -0.75 
Q 10.453125 -0.75 9.25 -0.25 
Q 8.046875 0.25 7.1875 1.125 
Q 6.34375 2 5.84375 3.171875 
Q 5.34375 4.34375 5.34375 5.75 
z
" id="Lato-Medium-46"/>
     <path d="M 36.703125 42.15625 
Q 36 40.953125 34.75 40.953125 
Q 33.953125 40.953125 32.96875 41.5 
Q 32 42.046875 30.640625 42.71875 
Q 29.296875 43.40625 27.421875 43.953125 
Q 25.546875 44.5 23 44.5 
Q 20.84375 44.5 19.09375 43.953125 
Q 17.34375 43.40625 16.125 42.453125 
Q 14.90625 41.5 14.21875 40.21875 
Q 13.546875 38.953125 13.546875 37.453125 
Q 13.546875 35.546875 14.671875 34.265625 
Q 15.796875 33 17.625 32.078125 
Q 19.453125 31.15625 21.796875 30.421875 
Q 24.15625 29.703125 26.59375 28.890625 
Q 29.046875 28.09375 31.390625 27.0625 
Q 33.75 26.046875 35.578125 24.546875 
Q 37.40625 23.046875 38.53125 20.875 
Q 39.65625 18.703125 39.65625 15.65625 
Q 39.65625 12.09375 38.375 9.09375 
Q 37.09375 6.09375 34.625 3.890625 
Q 32.15625 1.703125 28.546875 0.453125 
Q 24.953125 -0.796875 20.25 -0.796875 
Q 14.953125 -0.796875 10.578125 0.953125 
Q 6.203125 2.703125 3.203125 5.40625 
L 5.40625 9 
Q 5.796875 9.703125 6.390625 10.078125 
Q 7 10.453125 7.90625 10.453125 
Q 8.84375 10.453125 9.84375 9.75 
Q 10.84375 9.046875 12.265625 8.21875 
Q 13.703125 7.40625 15.71875 6.703125 
Q 17.75 6 20.75 6 
Q 23.296875 6 25.171875 6.640625 
Q 27.046875 7.296875 28.296875 8.375 
Q 29.546875 9.453125 30.140625 10.890625 
Q 30.75 12.34375 30.75 13.953125 
Q 30.75 16 29.625 17.34375 
Q 28.5 18.703125 26.671875 19.640625 
Q 24.84375 20.59375 22.5 21.296875 
Q 20.15625 22 17.671875 22.796875 
Q 15.203125 23.59375 12.84375 24.625 
Q 10.5 25.65625 8.671875 27.25 
Q 6.84375 28.84375 5.71875 31.125 
Q 4.59375 33.40625 4.59375 36.703125 
Q 4.59375 39.65625 5.796875 42.34375 
Q 7 45.046875 9.328125 47.09375 
Q 11.65625 49.15625 15.046875 50.34375 
Q 18.453125 51.546875 22.796875 51.546875 
Q 27.796875 51.546875 31.875 49.96875 
Q 35.953125 48.40625 38.796875 45.59375 
z
" id="Lato-Medium-115"/>
     <path d="M 59.296875 9.25 
Q 55.5 9.25 53.015625 11.078125 
Q 50.546875 12.90625 49.796875 16.75 
Q 46.90625 12.84375 43.5 11.125 
Q 40.09375 9.40625 36.203125 9.40625 
Q 33.203125 9.40625 30.96875 10.453125 
Q 28.75 11.5 27.265625 13.328125 
Q 25.796875 15.15625 25.0625 17.671875 
Q 24.34375 20.203125 24.34375 23.15625 
Q 24.34375 27.40625 25.96875 31.71875 
Q 27.59375 36.046875 30.796875 39.515625 
Q 34 43 38.796875 45.203125 
Q 43.59375 47.40625 49.90625 47.40625 
Q 53.34375 47.40625 55.921875 46.875 
Q 58.5 46.34375 60.796875 45.34375 
L 56.09375 27.203125 
Q 55.15625 23.5 55.171875 21.171875 
Q 55.203125 18.84375 55.890625 17.546875 
Q 56.59375 16.25 57.875 15.765625 
Q 59.15625 15.296875 60.703125 15.296875 
Q 63.09375 15.296875 65.21875 16.6875 
Q 67.34375 18.09375 68.96875 20.59375 
Q 70.59375 23.09375 71.546875 26.625 
Q 72.5 30.15625 72.5 34.453125 
Q 72.5 41.296875 70.328125 46.4375 
Q 68.15625 51.59375 64.328125 55.015625 
Q 60.5 58.453125 55.265625 60.171875 
Q 50.046875 61.90625 43.953125 61.90625 
Q 37.25 61.90625 31.453125 59.375 
Q 25.65625 56.84375 21.328125 52.375 
Q 17 47.90625 14.515625 41.796875 
Q 12.046875 35.703125 12.046875 28.546875 
Q 12.046875 20.09375 14.6875 13.6875 
Q 17.34375 7.296875 21.9375 2.96875 
Q 26.546875 -1.34375 32.75 -3.515625 
Q 38.953125 -5.703125 46.09375 -5.703125 
Q 53.703125 -5.703125 59.5 -4.078125 
Q 65.296875 -2.453125 69.453125 0.046875 
Q 70.453125 0.65625 71.265625 0.421875 
Q 72.09375 0.203125 72.453125 -0.796875 
L 73.796875 -4.296875 
Q 68.453125 -7.796875 61.578125 -9.890625 
Q 54.703125 -12 46.09375 -12 
Q 40.25 -12 34.953125 -10.75 
Q 29.65625 -9.5 25.09375 -7.125 
Q 20.546875 -4.75 16.84375 -1.25 
Q 13.15625 2.25 10.546875 6.75 
Q 7.953125 11.25 6.515625 16.71875 
Q 5.09375 22.203125 5.09375 28.546875 
Q 5.09375 33.953125 6.46875 39 
Q 7.84375 44.046875 10.34375 48.4375 
Q 12.84375 52.84375 16.375 56.46875 
Q 19.90625 60.09375 24.21875 62.6875 
Q 28.546875 65.296875 33.515625 66.71875 
Q 38.5 68.15625 43.953125 68.15625 
Q 48.546875 68.15625 52.96875 67.125 
Q 57.40625 66.09375 61.34375 64.140625 
Q 65.296875 62.203125 68.59375 59.296875 
Q 71.90625 56.40625 74.296875 52.671875 
Q 76.703125 48.953125 78.015625 44.375 
Q 79.34375 39.796875 79.34375 34.453125 
Q 79.34375 29.046875 77.8125 24.421875 
Q 76.296875 19.796875 73.59375 16.421875 
Q 70.90625 13.046875 67.21875 11.140625 
Q 63.546875 9.25 59.296875 9.25 
z
M 38.09375 15.65625 
Q 39.59375 15.65625 41.140625 16.125 
Q 42.703125 16.59375 44.09375 17.8125 
Q 45.5 19.046875 46.703125 21.09375 
Q 47.90625 23.15625 48.75 26.296875 
L 52.5 40.90625 
Q 50.59375 41.34375 48.40625 41.34375 
Q 44.796875 41.34375 41.71875 39.8125 
Q 38.65625 38.296875 36.453125 35.765625 
Q 34.25 33.25 33 30 
Q 31.75 26.75 31.75 23.34375 
Q 31.75 19.84375 33.34375 17.75 
Q 34.953125 15.65625 38.09375 15.65625 
z
" id="Lato-Medium-64"/>
     <path d="M 6.90625 -17.046875 
L 6.90625 50.75 
L 12.59375 50.75 
Q 14.59375 50.75 15.09375 48.84375 
L 15.90625 43.046875 
Q 19.09375 46.90625 23.265625 49.28125 
Q 27.453125 51.65625 32.84375 51.65625 
Q 37.203125 51.65625 40.71875 49.96875 
Q 44.25 48.296875 46.765625 45 
Q 49.296875 41.703125 50.640625 36.875 
Q 52 32.046875 52 25.75 
Q 52 20.09375 50.5 15.265625 
Q 49 10.453125 46.140625 6.890625 
Q 43.296875 3.34375 39.25 1.3125 
Q 35.203125 -0.703125 30.09375 -0.703125 
Q 25.453125 -0.703125 22.203125 0.796875 
Q 18.953125 2.296875 16.40625 5.09375 
L 16.40625 -17.046875 
z
M 29.75 44 
Q 25.453125 44 22.265625 42.078125 
Q 19.09375 40.15625 16.40625 36.59375 
L 16.40625 12.34375 
Q 18.796875 9.203125 21.625 7.921875 
Q 24.453125 6.65625 27.953125 6.65625 
Q 34.796875 6.65625 38.5 11.546875 
Q 42.203125 16.453125 42.203125 25.75 
Q 42.203125 30.59375 41.34375 34.046875 
Q 40.5 37.5 38.890625 39.71875 
Q 37.296875 41.953125 35 42.96875 
Q 32.703125 44 29.75 44 
z
" id="Lato-Medium-112"/>
     <path d="M 6.90625 0 
L 6.90625 73.75 
L 16.40625 73.75 
L 16.40625 44.25 
Q 19.59375 47.546875 23.5 49.546875 
Q 27.40625 51.546875 32.5 51.546875 
Q 36.65625 51.546875 39.828125 50.140625 
Q 43 48.75 45.140625 46.21875 
Q 47.296875 43.703125 48.390625 40.171875 
Q 49.5 36.65625 49.5 32.34375 
L 49.5 0 
L 40 0 
L 40 32.34375 
Q 40 37.84375 37.453125 40.921875 
Q 34.90625 44 29.703125 44 
Q 25.84375 44 22.546875 42.203125 
Q 19.25 40.40625 16.40625 37.25 
L 16.40625 0 
z
" id="Lato-Medium-104"/>
     <path d="M 22.84375 -14.796875 
Q 22.40625 -15.90625 21.703125 -16.46875 
Q 21 -17.046875 19.546875 -17.046875 
L 12.5 -17.046875 
L 21.796875 3.09375 
L 0.90625 50.75 
L 9.15625 50.75 
Q 10.34375 50.75 11.046875 50.171875 
Q 11.75 49.59375 12 48.84375 
L 25.15625 17.84375 
Q 26 15.546875 26.5 13.296875 
Q 26.84375 14.453125 27.25 15.625 
Q 27.65625 16.796875 28.09375 17.953125 
L 40.796875 48.84375 
Q 41.09375 49.703125 41.84375 50.21875 
Q 42.59375 50.75 43.546875 50.75 
L 51.09375 50.75 
z
" id="Lato-Medium-121"/>
     <path d="M 22.703125 -0.796875 
Q 16.59375 -0.796875 13.296875 2.59375 
Q 10 6 10 12.40625 
L 10 43 
L 4.046875 43 
Q 3.203125 43 2.640625 43.515625 
Q 2.09375 44.046875 2.09375 45.046875 
L 2.09375 48.84375 
L 10.34375 49.953125 
L 12.5 65.296875 
Q 12.703125 66.09375 13.25 66.5625 
Q 13.796875 67.046875 14.703125 67.046875 
L 19.5 67.046875 
L 19.5 49.90625 
L 33.953125 49.90625 
L 33.953125 43 
L 19.5 43 
L 19.5 13.046875 
Q 19.5 10 20.96875 8.46875 
Q 22.453125 6.953125 24.84375 6.953125 
Q 26.203125 6.953125 27.203125 7.296875 
Q 28.203125 7.65625 28.890625 8.09375 
Q 29.59375 8.546875 30.125 8.890625 
Q 30.65625 9.25 31.046875 9.25 
Q 31.5 9.25 31.765625 9.046875 
Q 32.046875 8.84375 32.34375 8.34375 
L 35.15625 3.796875 
Q 32.75 1.59375 29.46875 0.390625 
Q 26.203125 -0.796875 22.703125 -0.796875 
z
" id="Lato-Medium-116"/>
     <path d="M 27.84375 51.546875 
Q 32.453125 51.546875 36.34375 50.015625 
Q 40.25 48.5 43.09375 45.59375 
Q 45.953125 42.703125 47.546875 38.46875 
Q 49.15625 34.25 49.15625 28.796875 
Q 49.15625 26.59375 48.671875 25.84375 
Q 48.203125 25.09375 46.90625 25.09375 
L 13.40625 25.09375 
Q 13.546875 20.453125 14.71875 17 
Q 15.90625 13.546875 17.921875 11.265625 
Q 19.953125 9 22.796875 7.875 
Q 25.65625 6.75 29.15625 6.75 
Q 32.453125 6.75 34.828125 7.5 
Q 37.203125 8.25 38.921875 9.140625 
Q 40.65625 10.046875 41.84375 10.796875 
Q 43.046875 11.546875 43.953125 11.546875 
Q 45.15625 11.546875 45.703125 10.65625 
L 48.40625 7.203125 
Q 46.65625 5.09375 44.34375 3.625 
Q 42.046875 2.15625 39.390625 1.171875 
Q 36.75 0.203125 33.921875 -0.25 
Q 31.09375 -0.703125 28.34375 -0.703125 
Q 23.09375 -0.703125 18.625 1.0625 
Q 14.15625 2.84375 10.90625 6.265625 
Q 7.65625 9.703125 5.828125 14.765625 
Q 4 19.84375 4 26.453125 
Q 4 31.75 5.640625 36.328125 
Q 7.296875 40.90625 10.375 44.28125 
Q 13.453125 47.65625 17.875 49.59375 
Q 22.296875 51.546875 27.84375 51.546875 
z
M 28 44.59375 
Q 21.75 44.59375 18.171875 40.96875 
Q 14.59375 37.34375 13.703125 30.953125 
L 40.65625 30.953125 
Q 40.65625 33.953125 39.796875 36.453125 
Q 38.953125 38.953125 37.328125 40.75 
Q 35.703125 42.546875 33.34375 43.5625 
Q 31 44.59375 28 44.59375 
z
" id="Lato-Medium-101"/>
     <path d="M 42.40625 41.40625 
Q 42 40.84375 41.578125 40.546875 
Q 41.15625 40.25 40.40625 40.25 
Q 39.59375 40.25 38.6875 40.875 
Q 37.796875 41.5 36.5 42.21875 
Q 35.203125 42.953125 33.296875 43.578125 
Q 31.40625 44.203125 28.65625 44.203125 
Q 25 44.203125 22.203125 42.890625 
Q 19.40625 41.59375 17.53125 39.140625 
Q 15.65625 36.703125 14.703125 33.25 
Q 13.75 29.796875 13.75 25.453125 
Q 13.75 20.953125 14.765625 17.453125 
Q 15.796875 13.953125 17.671875 11.546875 
Q 19.546875 9.15625 22.21875 7.90625 
Q 24.90625 6.65625 28.203125 6.65625 
Q 31.40625 6.65625 33.453125 7.421875 
Q 35.5 8.203125 36.84375 9.09375 
Q 38.203125 10 39.125 10.765625 
Q 40.046875 11.546875 41 11.546875 
Q 42.203125 11.546875 42.796875 10.65625 
L 45.5 7.203125 
Q 43.75 5.09375 41.59375 3.59375 
Q 39.453125 2.09375 37 1.140625 
Q 34.546875 0.203125 31.890625 -0.25 
Q 29.25 -0.703125 26.5 -0.703125 
Q 21.75 -0.703125 17.640625 1.046875 
Q 13.546875 2.796875 10.515625 6.140625 
Q 7.5 9.5 5.765625 14.375 
Q 4.046875 19.25 4.046875 25.453125 
Q 4.046875 31.09375 5.625 35.875 
Q 7.203125 40.65625 10.25 44.15625 
Q 13.296875 47.65625 17.765625 49.59375 
Q 22.25 51.546875 28.046875 51.546875 
Q 33.5 51.546875 37.625 49.796875 
Q 41.75 48.046875 44.90625 44.90625 
z
" id="Lato-Medium-99"/>
     <path d="M 43.546875 0 
Q 41.546875 0 41.046875 1.90625 
L 40.203125 7.84375 
Q 38.59375 5.90625 36.75 4.328125 
Q 34.90625 2.75 32.796875 1.625 
Q 30.703125 0.5 28.34375 -0.09375 
Q 26 -0.703125 23.296875 -0.703125 
Q 18.953125 -0.703125 15.421875 0.96875 
Q 11.90625 2.65625 9.375 5.953125 
Q 6.84375 9.25 5.5 14.078125 
Q 4.15625 18.90625 4.15625 25.203125 
Q 4.15625 30.84375 5.65625 35.671875 
Q 7.15625 40.5 10 44.046875 
Q 12.84375 47.59375 16.890625 49.625 
Q 20.953125 51.65625 26.046875 51.65625 
Q 30.65625 51.65625 33.921875 50.125 
Q 37.203125 48.59375 39.75 45.84375 
L 39.75 73.75 
L 49.25 73.75 
L 49.25 0 
z
M 26.40625 6.953125 
Q 30.65625 6.953125 33.84375 8.875 
Q 37.046875 10.796875 39.75 14.34375 
L 39.75 38.546875 
Q 37.34375 41.75 34.5 43.015625 
Q 31.65625 44.296875 28.203125 44.296875 
Q 21.34375 44.296875 17.640625 39.390625 
Q 13.953125 34.5 13.953125 25.203125 
Q 13.953125 20.34375 14.796875 16.890625 
Q 15.65625 13.453125 17.25 11.21875 
Q 18.84375 9 21.140625 7.96875 
Q 23.453125 6.953125 26.40625 6.953125 
z
" id="Lato-Medium-100"/>
     <path d="M 15.90625 50.75 
L 15.90625 18.40625 
Q 15.90625 12.90625 18.453125 9.828125 
Q 21 6.75 26.203125 6.75 
Q 30 6.75 33.328125 8.515625 
Q 36.65625 10.296875 39.5 13.453125 
L 39.5 50.75 
L 49 50.75 
L 49 0 
L 43.296875 0 
Q 41.296875 0 40.796875 1.90625 
L 40.046875 7.15625 
Q 36.75 3.59375 32.71875 1.390625 
Q 28.703125 -0.796875 23.40625 -0.796875 
Q 19.203125 -0.796875 16.015625 0.59375 
Q 12.84375 2 10.71875 4.515625 
Q 8.59375 7.046875 7.5 10.5625 
Q 6.40625 14.09375 6.40625 18.40625 
L 6.40625 50.75 
z
" id="Lato-Medium-117"/>
    </defs>
    <g style="fill:#262626;" transform="translate(-1.593 25.938437)scale(0.28 -0.28)">
     <use xlink:href="#Lato-Medium-97"/>
     <use x="49.900009" xlink:href="#Lato-Medium-98"/>
     <use x="106.050018" xlink:href="#Lato-Medium-114"/>
     <use x="142.600021" xlink:href="#Lato-Medium-97"/>
     <use x="192.500031" xlink:href="#Lato-Medium-109"/>
     <use x="275.000046" xlink:href="#Lato-Medium-111"/>
     <use x="331.784424" xlink:href="#Lato-Medium-118"/>
     <use x="383.537552" xlink:href="#Lato-Medium-46"/>
     <use x="407.137558" xlink:href="#Lato-Medium-115"/>
     <use x="450.537567" xlink:href="#Lato-Medium-97"/>
     <use x="500.437576" xlink:href="#Lato-Medium-64"/>
     <use x="584.187592" xlink:href="#Lato-Medium-112"/>
     <use x="640.387604" xlink:href="#Lato-Medium-104"/>
     <use x="696.271988" xlink:href="#Lato-Medium-121"/>
     <use x="748.021988" xlink:href="#Lato-Medium-115"/>
     <use x="791.421997" xlink:href="#Lato-Medium-116"/>
     <use x="827.472" xlink:href="#Lato-Medium-101"/>
     <use x="880.372009" xlink:href="#Lato-Medium-99"/>
     <use x="928.172012" xlink:href="#Lato-Medium-104"/>
     <use x="984.072021" xlink:href="#Lato-Medium-46"/>
     <use x="1007.672028" xlink:href="#Lato-Medium-101"/>
     <use x="1060.572037" xlink:href="#Lato-Medium-100"/>
     <use x="1116.722046" xlink:href="#Lato-Medium-117"/>
    </g>
   </g>
  </g>
 </g>
</svg>
