<?xml version="1.0" encoding="UTF-8" standalone="no"?>
<!DOCTYPE svg PUBLIC "-//W3C//DTD SVG 1.1//EN" "http://www.w3.org/Graphics/SVG/1.1/DTD/svg11.dtd">
<svg version="1.1" xmlns="http://www.w3.org/2000/svg" xmlns:xlink="http://www.w3.org/1999/xlink" preserveAspectRatio="xMidYMid meet" viewBox="0 0 24 24" width="24" height="24"><defs><path d="M15.83 23.05C15.83 23.57 15.41 23.99 14.89 23.99C14.37 23.99 13.95 23.57 13.95 23.05C13.95 22.53 14.37 22.11 14.89 22.11C15.41 22.11 15.83 22.53 15.83 23.05Z" id="aaMqhDu6"></path><path d="M14.89 22.11L23.04 22.12L23.04 24L14.89 23.99L14.89 22.11Z" id="aOzahqcow"></path><path d="M23.98 23.05C23.98 23.57 23.56 23.99 23.04 23.99C22.52 23.99 22.1 23.57 22.1 23.05C22.1 22.53 22.52 22.11 23.04 22.11C23.56 22.11 23.98 22.53 23.98 23.05Z" id="aOXa168NU"></path><path d="M23.98 22.97C23.98 23.49 23.56 23.91 23.04 23.91C22.52 23.91 22.1 23.49 22.1 22.97C22.1 22.45 22.52 22.03 23.04 22.03C23.56 22.03 23.98 22.45 23.98 22.97Z" id="b14kIdYReF"></path><path d="M23.06 15.67C22.54 15.67 22.12 15.25 22.12 14.73C22.12 14.21 22.54 13.79 23.06 13.79C23.58 13.8 24 14.22 24 14.74C24 15.25 23.58 15.68 23.06 15.67Z" id="bMEhXrJuX"></path><path d="M24 14.73L23.98 22.88L22.1 22.88L22.12 14.73L24 14.73Z" id="aaFWt4gZ1D"></path><path d="M15.83 23.06C15.83 23.58 15.41 24 14.89 24C14.37 24 13.95 23.58 13.95 23.06C13.95 22.54 14.37 22.12 14.89 22.12C15.41 22.12 15.83 22.54 15.83 23.06Z" id="c1C1er9Y5E"></path><path d="M14.91 15.76C14.39 15.76 13.97 15.34 13.97 14.82C13.97 14.3 14.39 13.88 14.91 13.88C15.43 13.88 15.85 14.3 15.85 14.82C15.85 15.34 15.43 15.76 14.91 15.76Z" id="b1A6cZiKt8"></path><path d="M15.85 14.82L15.83 22.97L13.95 22.97L13.97 14.82L15.85 14.82Z" id="d1jZX5CU6O"></path><path d="M15.85 14.76C15.85 15.28 15.43 15.7 14.91 15.7C14.39 15.7 13.97 15.28 13.97 14.76C13.97 14.24 14.39 13.82 14.91 13.82C15.43 13.82 15.85 14.24 15.85 14.76Z" id="e3pD0NlA70"></path><path d="M14.91 13.79L23.06 13.79L23.06 15.67L14.91 15.67L14.91 13.79Z" id="d67DPRkNH"></path><path d="M24 15.72C24 16.24 23.58 16.66 23.06 16.66C22.54 16.66 22.12 16.24 22.12 15.72C22.12 15.2 22.54 14.78 23.06 14.78C23.58 14.78 24 15.2 24 15.72Z" id="a1poJKJ3gb"></path><path d="M1.88 23.05C1.88 23.57 1.46 23.99 0.94 23.99C0.42 23.99 0 23.57 0 23.05C0 22.53 0.42 22.11 0.94 22.11C1.46 22.11 1.88 22.53 1.88 23.05Z" id="cp3DOmZaa"></path><path d="M0.94 22.11L9.09 22.12L9.09 24L0.94 23.99L0.94 22.11Z" id="b6FsJqCI9"></path><path d="M10.03 23.05C10.03 23.57 9.61 23.99 9.09 23.99C8.57 23.99 8.15 23.57 8.15 23.05C8.15 22.53 8.57 22.11 9.09 22.11C9.61 22.11 10.03 22.53 10.03 23.05Z" id="b17VwNRtFJ"></path><path d="M10.03 22.97C10.03 23.49 9.61 23.91 9.09 23.91C8.57 23.91 8.15 23.49 8.15 22.97C8.15 22.45 8.57 22.03 9.09 22.03C9.61 22.03 10.03 22.45 10.03 22.97Z" id="c3DXjx6Nmh"></path><path d="M9.11 15.67C8.59 15.67 8.17 15.25 8.17 14.73C8.17 14.21 8.59 13.79 9.11 13.79C9.63 13.8 10.05 14.22 10.05 14.74C10.05 15.25 9.63 15.68 9.11 15.67Z" id="h5i1UWQSL"></path><path d="M10.05 14.73L10.03 22.88L8.15 22.88L8.17 14.73L10.05 14.73Z" id="aEKXnokYM"></path><path d="M1.88 23.06C1.88 23.58 1.46 24 0.94 24C0.42 24 0 23.58 0 23.06C0 22.54 0.42 22.12 0.94 22.12C1.46 22.12 1.88 22.54 1.88 23.06Z" id="d3Bsaeaz6"></path><path d="M0.96 15.76C0.44 15.76 0.02 15.34 0.02 14.82C0.02 14.3 0.45 13.88 0.96 13.88C1.48 13.88 1.9 14.3 1.9 14.82C1.9 15.34 1.48 15.76 0.96 15.76Z" id="d8iffwtPf"></path><path d="M1.9 14.82L1.88 22.97L0 22.97L0.02 14.82L1.9 14.82Z" id="bop7kOcH4"></path><path d="M1.9 14.76C1.9 15.28 1.48 15.7 0.96 15.7C0.44 15.7 0.02 15.28 0.02 14.76C0.02 14.24 0.44 13.82 0.96 13.82C1.48 13.82 1.9 14.24 1.9 14.76Z" id="gniz3PN36"></path><path d="M0.96 13.79L9.11 13.79L9.11 15.67L0.96 15.67L0.96 13.79Z" id="auJ5r6EBb"></path><path d="M10.05 15.72C10.05 16.24 9.63 16.66 9.11 16.66C8.59 16.66 8.17 16.24 8.17 15.72C8.17 15.2 8.59 14.78 9.11 14.78C9.63 14.78 10.05 15.2 10.05 15.72Z" id="d33Lf7Eapy"></path><path d="M1.9 9.26C1.9 9.78 1.48 10.2 0.96 10.2C0.44 10.2 0.02 9.78 0.02 9.26C0.02 8.74 0.44 8.32 0.96 8.32C1.48 8.32 1.9 8.74 1.9 9.26Z" id="d1qu5EKvg"></path><path d="M0.96 8.33L9.11 8.33L9.11 10.21L0.96 10.21L0.96 8.33Z" id="b3kc7RvTFI"></path><path d="M10.05 9.26C10.05 9.78 9.63 10.2 9.11 10.2C8.59 10.2 8.17 9.78 8.17 9.26C8.17 8.74 8.59 8.32 9.11 8.32C9.63 8.32 10.05 8.74 10.05 9.26Z" id="a2x7K5xDaN"></path><path d="M10.05 9.18C10.05 9.7 9.63 10.12 9.11 10.12C8.59 10.12 8.17 9.7 8.17 9.18C8.17 8.66 8.59 8.24 9.11 8.24C9.63 8.24 10.05 8.66 10.05 9.18Z" id="aaCXClj08"></path><path d="M9.13 1.89C8.61 1.89 8.19 1.46 8.19 0.94C8.2 0.43 8.62 0.01 9.14 0.01C9.65 0.01 10.08 0.43 10.07 0.95C10.07 1.47 9.65 1.89 9.13 1.89Z" id="i3W2qwXFtd"></path><path d="M10.07 0.95L10.05 9.1L8.17 9.09L8.19 0.94L10.07 0.95Z" id="coVRmrSW8"></path><path d="M1.9 9.27C1.9 9.79 1.48 10.21 0.96 10.21C0.44 10.21 0.02 9.79 0.02 9.27C0.02 8.75 0.44 8.33 0.96 8.33C1.48 8.33 1.9 8.75 1.9 9.27Z" id="a1GBnJrzK"></path><path d="M0.99 1.97C0.47 1.97 0.05 1.55 0.05 1.03C0.05 0.51 0.47 0.09 0.99 0.09C1.51 0.09 1.93 0.52 1.93 1.03C1.93 1.55 1.5 1.97 0.99 1.97Z" id="hLPHEApXM"></path><path d="M1.92 1.03L1.9 9.18L0.02 9.18L0.04 1.03L1.92 1.03Z" id="n2aO3pLRvM"></path><path d="M1.93 0.97C1.93 1.49 1.51 1.91 0.99 1.91C0.47 1.91 0.05 1.49 0.05 0.97C0.05 0.45 0.47 0.03 0.99 0.03C1.51 0.03 1.93 0.45 1.93 0.97Z" id="a2qjFYiwqu"></path><path d="M0.98 0L9.13 0.01L9.13 1.89L0.98 1.88L0.98 0Z" id="b2zzTeVQk9"></path><path d="M10.07 1.94C10.07 2.45 9.65 2.88 9.13 2.88C8.62 2.88 8.19 2.45 8.19 1.94C8.19 1.42 8.62 1 9.13 1C9.65 1 10.07 1.42 10.07 1.94Z" id="a1XuSJkvye"></path><path d="M15.83 9.26C15.83 9.78 15.41 10.2 14.89 10.2C14.37 10.2 13.95 9.78 13.95 9.26C13.95 8.74 14.37 8.32 14.89 8.32C15.41 8.32 15.83 8.74 15.83 9.26Z" id="aqGcfReGz"></path><path d="M14.89 8.33L23.04 8.33L23.04 10.21L14.89 10.21L14.89 8.33Z" id="b2PIwpg5La"></path><path d="M23.98 9.26C23.98 9.78 23.56 10.2 23.04 10.2C22.52 10.2 22.1 9.78 22.1 9.26C22.1 8.74 22.52 8.32 23.04 8.32C23.56 8.32 23.98 8.74 23.98 9.26Z" id="a13VfOOYo9"></path><path d="M23.98 9.18C23.98 9.7 23.56 10.12 23.04 10.12C22.52 10.12 22.1 9.7 22.1 9.18C22.1 8.66 22.52 8.24 23.04 8.24C23.56 8.24 23.98 8.66 23.98 9.18Z" id="dDFtqUQ1x"></path><path d="M23.06 1.89C22.54 1.89 22.12 1.46 22.12 0.94C22.12 0.43 22.54 0.01 23.06 0.01C23.58 0.01 24 0.43 24 0.95C24 1.47 23.58 1.89 23.06 1.89Z" id="b18YCTnAs"></path><path d="M24 0.95L23.98 9.1L22.1 9.09L22.12 0.94L24 0.95Z" id="cfYK0nZnR"></path><path d="M15.83 9.27C15.83 9.79 15.41 10.21 14.89 10.21C14.37 10.21 13.95 9.79 13.95 9.27C13.95 8.75 14.37 8.33 14.89 8.33C15.41 8.33 15.83 8.75 15.83 9.27Z" id="j2XrUpbxwx"></path><path d="M14.91 1.97C14.39 1.97 13.97 1.55 13.97 1.03C13.97 0.51 14.39 0.09 14.91 0.09C15.43 0.09 15.85 0.52 15.85 1.03C15.85 1.55 15.43 1.97 14.91 1.97Z" id="fdHwLg58i"></path><path d="M15.85 1.03L15.83 9.18L13.95 9.18L13.97 1.03L15.85 1.03Z" id="c5MJcsMmD"></path><path d="M15.85 0.97C15.85 1.49 15.43 1.91 14.91 1.91C14.39 1.91 13.97 1.49 13.97 0.97C13.97 0.45 14.39 0.03 14.91 0.03C15.43 0.03 15.85 0.45 15.85 0.97Z" id="a2GDeSHAf"></path><path d="M14.91 0L23.06 0.01L23.06 1.89L14.91 1.88L14.91 0Z" id="c1vDvnliWO"></path><path d="M24 1.94C24 2.45 23.58 2.88 23.06 2.88C22.54 2.88 22.12 2.45 22.12 1.94C22.12 1.42 22.54 1 23.06 1C23.58 1 24 1.42 24 1.94Z" id="b4MqeJFCmS"></path></defs><g><g><g><use xlink:href="#aaMqhDu6" opacity="1" fill="#000000" fill-opacity="1"></use></g><g><use xlink:href="#aOzahqcow" opacity="1" fill="#000000" fill-opacity="1"></use></g><g><use xlink:href="#aOXa168NU" opacity="1" fill="#000000" fill-opacity="1"></use></g><g><use xlink:href="#b14kIdYReF" opacity="1" fill="#000000" fill-opacity="1"></use></g><g><use xlink:href="#bMEhXrJuX" opacity="1" fill="#000000" fill-opacity="1"></use></g><g><use xlink:href="#aaFWt4gZ1D" opacity="1" fill="#000000" fill-opacity="1"></use></g><g><use xlink:href="#c1C1er9Y5E" opacity="1" fill="#000000" fill-opacity="1"></use></g><g><use xlink:href="#b1A6cZiKt8" opacity="1" fill="#000000" fill-opacity="1"></use></g><g><use xlink:href="#d1jZX5CU6O" opacity="1" fill="#000000" fill-opacity="1"></use></g><g><use xlink:href="#e3pD0NlA70" opacity="1" fill="#000000" fill-opacity="1"></use></g><g><use xlink:href="#d67DPRkNH" opacity="1" fill="#000000" fill-opacity="1"></use></g><g><use xlink:href="#a1poJKJ3gb" opacity="1" fill="#000000" fill-opacity="1"></use></g><g><use xlink:href="#cp3DOmZaa" opacity="1" fill="#000000" fill-opacity="1"></use></g><g><use xlink:href="#b6FsJqCI9" opacity="1" fill="#000000" fill-opacity="1"></use></g><g><use xlink:href="#b17VwNRtFJ" opacity="1" fill="#000000" fill-opacity="1"></use></g><g><use xlink:href="#c3DXjx6Nmh" opacity="1" fill="#000000" fill-opacity="1"></use></g><g><use xlink:href="#h5i1UWQSL" opacity="1" fill="#000000" fill-opacity="1"></use></g><g><use xlink:href="#aEKXnokYM" opacity="1" fill="#000000" fill-opacity="1"></use></g><g><use xlink:href="#d3Bsaeaz6" opacity="1" fill="#000000" fill-opacity="1"></use></g><g><use xlink:href="#d8iffwtPf" opacity="1" fill="#000000" fill-opacity="1"></use></g><g><use xlink:href="#bop7kOcH4" opacity="1" fill="#000000" fill-opacity="1"></use></g><g><use xlink:href="#gniz3PN36" opacity="1" fill="#000000" fill-opacity="1"></use></g><g><use xlink:href="#auJ5r6EBb" opacity="1" fill="#000000" fill-opacity="1"></use></g><g><use xlink:href="#d33Lf7Eapy" opacity="1" fill="#000000" fill-opacity="1"></use></g><g><use xlink:href="#d1qu5EKvg" opacity="1" fill="#000000" fill-opacity="1"></use></g><g><use xlink:href="#b3kc7RvTFI" opacity="1" fill="#000000" fill-opacity="1"></use></g><g><use xlink:href="#a2x7K5xDaN" opacity="1" fill="#000000" fill-opacity="1"></use></g><g><use xlink:href="#aaCXClj08" opacity="1" fill="#000000" fill-opacity="1"></use></g><g><use xlink:href="#i3W2qwXFtd" opacity="1" fill="#000000" fill-opacity="1"></use></g><g><use xlink:href="#coVRmrSW8" opacity="1" fill="#000000" fill-opacity="1"></use></g><g><use xlink:href="#a1GBnJrzK" opacity="1" fill="#000000" fill-opacity="1"></use></g><g><use xlink:href="#hLPHEApXM" opacity="1" fill="#000000" fill-opacity="1"></use></g><g><use xlink:href="#n2aO3pLRvM" opacity="1" fill="#000000" fill-opacity="1"></use></g><g><use xlink:href="#a2qjFYiwqu" opacity="1" fill="#000000" fill-opacity="1"></use></g><g><use xlink:href="#b2zzTeVQk9" opacity="1" fill="#000000" fill-opacity="1"></use></g><g><use xlink:href="#a1XuSJkvye" opacity="1" fill="#000000" fill-opacity="1"></use></g><g><use xlink:href="#aqGcfReGz" opacity="1" fill="#000000" fill-opacity="1"></use></g><g><use xlink:href="#b2PIwpg5La" opacity="1" fill="#000000" fill-opacity="1"></use></g><g><use xlink:href="#a13VfOOYo9" opacity="1" fill="#000000" fill-opacity="1"></use></g><g><use xlink:href="#dDFtqUQ1x" opacity="1" fill="#000000" fill-opacity="1"></use></g><g><use xlink:href="#b18YCTnAs" opacity="1" fill="#000000" fill-opacity="1"></use></g><g><use xlink:href="#cfYK0nZnR" opacity="1" fill="#000000" fill-opacity="1"></use></g><g><use xlink:href="#j2XrUpbxwx" opacity="1" fill="#000000" fill-opacity="1"></use></g><g><use xlink:href="#fdHwLg58i" opacity="1" fill="#000000" fill-opacity="1"></use></g><g><use xlink:href="#c5MJcsMmD" opacity="1" fill="#000000" fill-opacity="1"></use></g><g><use xlink:href="#a2GDeSHAf" opacity="1" fill="#000000" fill-opacity="1"></use></g><g><use xlink:href="#c1vDvnliWO" opacity="1" fill="#000000" fill-opacity="1"></use></g><g><use xlink:href="#b4MqeJFCmS" opacity="1" fill="#000000" fill-opacity="1"></use></g></g></g></svg>