<svg width="24" height="24" viewBox="0 0 24 24" fill="none" xmlns="http://www.w3.org/2000/svg">
<path d="M12.92 3.00005C12.8039 2.88364 12.6659 2.79128 12.5141 2.72827C12.3622 2.66525 12.1994 2.63281 12.035 2.63281C11.8706 2.63281 11.7078 2.66525 11.5559 2.72827C11.404 2.79128 11.2661 2.88364 11.15 3.00005L2.83999 11.3C2.65374 11.4874 2.54919 11.7409 2.54919 12.005C2.54919 12.2692 2.65374 12.5227 2.83999 12.71L11.15 21C11.3847 21.2348 11.703 21.3666 12.035 21.3666C12.3669 21.3666 12.6853 21.2348 12.92 21C13.1547 20.7653 13.2866 20.447 13.2866 20.115C13.2866 19.7831 13.1547 19.4648 12.92 19.23L5.67999 12L12.93 4.75005C13.1577 4.51508 13.2842 4.2002 13.2823 3.87301C13.2804 3.54581 13.1504 3.2324 12.92 3.00005V3.00005Z"/>
<path d="M21.08 3.00005C20.9639 2.88364 20.8259 2.79128 20.6741 2.72827C20.5222 2.66525 20.3594 2.63281 20.195 2.63281C20.0306 2.63281 19.8678 2.66525 19.7159 2.72827C19.564 2.79128 19.4261 2.88364 19.31 3.00005L11 11.3C10.8137 11.4874 10.7092 11.7409 10.7092 12.005C10.7092 12.2692 10.8137 12.5227 11 12.71L19.31 21C19.5447 21.2348 19.8631 21.3666 20.195 21.3666C20.5269 21.3666 20.8453 21.2348 21.08 21C21.3147 20.7653 21.4466 20.447 21.4466 20.115C21.4466 19.7831 21.3147 19.4648 21.08 19.23L13.84 12L21.09 4.75005C21.3177 4.51508 21.4442 4.2002 21.4423 3.87301C21.4405 3.54581 21.3104 3.2324 21.08 3.00005V3.00005Z"/>
</svg>
