<svg id="Layer_1" height="512" viewBox="0 0 128 128" width="512" xmlns="http://www.w3.org/2000/svg" data-name="Layer 1"><path d="m123.25 52.5a18.84 18.84 0 0 0 -17.07-18.732v-27.268a1.75 1.75 0 0 0 -2.847-1.363c-.216.174-21.768 17.363-37.82 17.363h-30.143a30 30 0 0 0 -6.82 59.209l11.416 40.269a1.75 1.75 0 0 0 1.684 1.272h14.12a1.75 1.75 0 0 0 1.747-1.855l-1.548-25.645h5.185a12.784 12.784 0 0 0 12.737-11.964c14.278 3.988 29.262 15.932 29.442 16.077a1.75 1.75 0 0 0 2.847-1.363v-27.268a18.84 18.84 0 0 0 17.07-18.732zm-80.277 67.25-10.6-37.4c.987.1 1.988.15 3 .15h16.29l2.248 37.25zm18.181-27.5h-5.4l-.589-9.75h10.348a27.553 27.553 0 0 1 4.919.481 9.289 9.289 0 0 1 -9.279 9.269zm41.527 2.722c-5.51-4.032-18.075-12.454-30.124-15.132l-.037-.008a32.614 32.614 0 0 0 -7.007-.832h-30.143a26.5 26.5 0 1 1 0-53h30.143c13.835 0 30.565-11.142 37.167-15.972zm3.5-27.259v-30.426a15.312 15.312 0 0 1 0 30.425z"/><path d="m53 28.5h-17.63a23.873 23.873 0 0 0 -16.97 7.019 1.75 1.75 0 0 0 2.473 2.481 20.394 20.394 0 0 1 14.5-6h17.627a1.75 1.75 0 0 0 0-3.5z"/></svg>