<svg id="Layer_1" data-name="Layer 1" xmlns="http://www.w3.org/2000/svg" viewBox="0 0 24 24">
    <defs>
        <style>.cls-1{fill:none;}</style>
    </defs>
    <title>payment-in-progress</title>
    <path class="cls-1" d="M0,0H24V24H0V0Z"/>
    <path
        d="M9.5,4A3.37,3.37,0,0,0,7.11,3V6.36L4.71,8.75A3.38,3.38,0,1,0,9.5,4ZM7.11,0.72a5.64,5.64,0,1,0,5.64,5.64A5.64,5.64,0,0,0,7.11.72Zm0,10.15a4.51,4.51,0,1,1,4.51-4.51A4.51,4.51,0,0,1,7.11,10.87Z"/>
    <path
        d="M16.54,14c-2.07-.54-2.74-1.1-2.74-2s0.92-1.69,2.47-1.69,2.23,0.78,2.29,1.92h2a3.64,3.64,0,0,0-2.93-3.48v-2H14.89v2c-1.77.38-3.2,1.54-3.2,3.3,0,2.11,1.75,3.16,4.3,3.78,2.29,0.55,2.74,1.35,2.74,2.2,0,0.63-.45,1.64-2.47,1.64s-2.62-.84-2.72-1.92h-2a3.83,3.83,0,0,0,3.36,3.5v2h2.74v-2c1.78-.34,3.2-1.37,3.2-3.24C20.83,15.4,18.61,14.51,16.54,14Z"/>
</svg>
