<svg width="24" height="24" viewBox="0 0 24 24" fill="#616161" xmlns="http://www.w3.org/2000/svg">
<path d="M13.3 3C8.20001 2.9 4.00001 6.9 4.00001 12H2.20001C1.70001 12 1.50001 12.5 1.80001 12.9L4.60001 15.7C4.80001 15.9 5.10001 15.9 5.30001 15.7L8.10001 12.9C8.50001 12.5 8.20001 12 7.80001 12H6.00001C6.00001 8.1 9.20001 4.9 13.1 5C16.8 5.1 20 8.2 20 11.9C20 15.8 16.9 19 13 19C11.4 19 9.90001 18.5 8.70001 17.5C8.30001 17.2 7.70001 17.2 7.40001 17.6C7.00001 18 7.00001 18.7 7.50001 19.1C9.00001 20.3 10.9 21 13 21C18 21 22.1 16.8 22 11.7C21.9 7 18 3.1 13.3 3Z"/>
<path d="M13.3 11.3C11.9 10.9 11.5 10.6 11.5 9.99998C11.5 9.29998 12.1 8.89998 13.1 8.89998C13.9 8.89998 14.4 9.19998 14.5 9.69998C14.6 9.89998 14.8 10.1 15 10.1H15.2C15.6 10.1 15.9 9.69998 15.7 9.29998C15.6 8.69998 15 8.19998 14 7.89998V7.49998C14 6.99998 13.6 6.59998 13.1 6.59998C12.6 6.59998 12.2 6.99998 12.2 7.49998V7.89998C11 8.19998 10.1 8.89998 10.1 10.1C10.1 11.5 11.2 12.2 12.9 12.6C14.4 13 14.7 13.5 14.7 14C14.7 14.4 14.4 15.1 13.1 15.1C12.1 15.1 11.6 14.7 11.4 14.2C11.3 14 11.1 13.8 10.9 13.8H10.7C10.3 13.8 10 14.2 10.2 14.6C10.5 15.4 11.3 15.9 12.2 16.1V16.5C12.2 17 12.6 17.4 13.1 17.4C13.6 17.4 14 17 14 16.5V16.1C15.2 15.9 16.1 15.2 16.1 14C16.1 12.3 14.7 11.7 13.3 11.3Z"/>
</svg>
