<svg id="Layer_1" data-name="Layer 1" xmlns="http://www.w3.org/2000/svg" viewBox="0 0 24 24"><defs><style>.cls-1{fill:none;}</style></defs><title>video-history</title><path class="cls-1" d="M0,0H24V24H0V0Z"/><path d="M13,3a9,9,0,0,0-9,9H1l3.89,3.89L5,16l4-4H6a7,7,0,1,1,2.06,4.94L6.64,18.36A9,9,0,1,0,13,3Z"/><path d="M16.94,11.24V9.48a0.51,0.51,0,0,0-.5-0.5H10.38a0.51,0.51,0,0,0-.5.5v5a0.51,0.51,0,0,0,.5.5h6.06a0.51,0.51,0,0,0,.5-0.5V12.76l1.16,1.16A0.51,0.51,0,0,0,19,13.55V10.44a0.51,0.51,0,0,0-.86-0.36Z"/></svg>